<svg width="85" height="44" viewBox="0 0 85 44" fill="none" xmlns="http://www.w3.org/2000/svg">
<path d="M38.7 14.7C38.6 14.7 38.5 14.7 38.4 14.6C38.1 14.6 38.5 14.6 38.4 14.6C38.1 14.6 38.7 14.6 38.4 14.6C38.3 14.6 38.3 14.6 38.4 14.5C38.6 14.5 38.4 14.5 38.4 14.4C38.6 14.4 38.5 14.4 38.4 14.3C38.7 14.3 38.7 14.3 38.4 14.2C38.4 14.2 38.5 14.2 38.4 14.1C38.4 14.1 38.3 14.1 38.4 14C38.2 14 38.2 14 38.4 13.9C38.2 13.9 38.3 13.9 38.4 13.8C38.5 13.8 38.2 13.8 38.4 13.7C38.4 13.7 38.3 13.7 38.4 13.6C38.5 13.6 38.6 13.5 38.4 13.5C38.3 13.5 38.3 13.4 38.4 13.4C38.1 13.4 38.3 13.3 38.4 13.3C38.4 13.3 38.5 13.2 38.4 13.2C38.4 13.2 38.3 13.1 38.4 13.1C38.5 13.1 38.6 13 38.4 13C38.2 13 38.5 12.9 38.4 12.9C38.6 12.9 38.3 12.8 38.4 12.8C38.4 12.8 38.5 12.7 38.4 12.7C38.4 12.7 38.3 12.6 38.4 12.6C38 12.6 38.5 12.5 38.4 12.5C38.6 12.5 38.4 12.5 38.4 12.4C38.3 12.4 38.6 12.4 38.4 12.3C38.4 12.3 38.3 12.3 38.4 12.2C38.2 12.2 38.6 12.2 38.4 12.1C38.4 12.1 38.4 12.1 38.4 12C38.7 12 38.5 12 38.4 11.9C38.4 11.9 38.2 11.9 38.4 11.8C38.4 11.8 38.6 11.8 38.4 11.7C38.4 11.7 38.8 11.7 38.4 11.6C38.3 11.6 38.7 11.6 38.4 11.6C38.5 11.5 38.7 11.4 38.8 11.4C39 11.4 39.1 11.5 39.3 11.6C39.6 11.6 39.4 11.6 39.3 11.7C39.3 11.7 39.2 11.7 39.3 11.8C39.5 11.8 39.2 11.8 39.3 11.9C39.1 11.9 39.2 11.9 39.3 12C39.1 12 39.3 12 39.3 12.1C39 12.1 39.2 12.1 39.3 12.2C39.4 12.2 39.3 12.2 39.3 12.3C39.3 12.3 39.4 12.3 39.3 12.4C39.4 12.4 39.5 12.4 39.3 12.5C39.4 12.5 39.3 12.5 39.3 12.6C39.4 12.6 39.3 12.7 39.3 12.7C39.4 12.7 39 12.8 39.3 12.8V12.9C39.3 12.9 39.2 13 39.3 13C39 13 39.2 13.1 39.3 13.1C39.4 13.1 39.3 13.2 39.3 13.2V13.3C39.4 13.3 39.2 13.4 39.3 13.4C39.4 13.4 39.2 13.5 39.3 13.5C39.4 13.5 39.4 13.6 39.3 13.6C39.3 13.6 39.1 13.7 39.3 13.7C39.4 13.7 39.7 13.7 39.3 13.8C39.4 13.8 39.1 13.8 39.3 13.9C39 13.9 39.3 13.9 39.3 14C39.2 14 39.2 14 39.3 14.1C39.4 14.1 39.2 14.1 39.3 14.2C39.5 14.2 39.1 14.2 39.3 14.3C39.3 14.3 39.3 14.3 39.3 14.4C39.7 14.4 39.3 14.4 39.3 14.5C39.2 14.5 39.6 14.5 39.3 14.6C39.2 14.6 39.4 14.6 39.3 14.6C39.2 14.6 39.5 14.6 39.3 14.6C38.9 14.7 38.8 14.7 38.7 14.7Z" fill="#67B02C"/>
<path d="M44.3 17C44.2 16.9 44.2 16.8 44.1 16.7C44.1 16.7 44.1 16.7 44.1 16.6V16.5C44.2 16.6 43.9 16.3 44.1 16.4C44.2 16.4 44.1 16.4 44.1 16.3C44.1 16.3 44.2 16.3 44.1 16.2C43.9 16 44.3 16.4 44.1 16.1C44.1 16 44.1 16 44.1 16C44.3 16.1 44.1 16 44.1 15.9C44.3 16.1 44.2 16 44.1 15.8C44.4 16 44.3 16 44.1 15.7C44.1 15.7 44.2 15.8 44.1 15.6V15.5C44 15.3 44 15.3 44.1 15.4C43.9 15.2 44 15.3 44.1 15.3C44.2 15.4 44 15.1 44.1 15.2V15.1C44.2 15.2 44.3 15.2 44.1 15C44.1 14.9 44 14.9 44.1 14.9C43.9 14.7 44 14.8 44.2 14.8C44.2 14.8 44.3 14.9 44.3 14.7C44.3 14.7 44.3 14.6 44.4 14.6C44.5 14.6 44.5 14.7 44.5 14.5C44.4 14.4 44.6 14.5 44.6 14.4C44.8 14.6 44.6 14.3 44.7 14.3C44.7 14.3 44.8 14.4 44.8 14.3C44.8 14.2 44.8 14.2 44.9 14.3C44.7 14 45 14.3 45 14.3C45.1 14.4 45 14.2 45.1 14.3C45.1 14.2 45.3 14.4 45.2 14.3C45.2 14.3 45.1 14.2 45.3 14.3C45.2 14.2 45.4 14.4 45.4 14.3C45.4 14.3 45.4 14.3 45.5 14.3C45.7 14.5 45.6 14.3 45.6 14.3C45.6 14.3 45.5 14.2 45.7 14.3C45.7 14.3 45.8 14.4 45.8 14.3C45.8 14.3 46.1 14.6 45.9 14.3C45.9 14.2 46.1 14.5 46 14.3C45.8 14.1 46 14.3 46.1 14.3C46.1 14.3 46.1 14.3 46.2 14.3C46.4 14.3 46.5 14.4 46.6 14.5C46.7 14.6 46.8 14.8 46.8 15C46.8 15 46.9 15.2 46.8 15.1C46.8 15.1 46.9 15.2 46.8 15.2C47 15.4 46.8 15.3 46.8 15.3C46.8 15.3 46.7 15.3 46.8 15.4C46.9 15.5 46.7 15.4 46.8 15.5C46.7 15.4 46.7 15.4 46.8 15.6C46.7 15.5 46.8 15.7 46.8 15.7C46.6 15.5 46.7 15.7 46.8 15.8C46.8 15.9 46.7 15.8 46.8 15.9C46.7 15.9 46.8 16 46.8 16C46.9 16.1 46.9 16.1 46.8 16.1C46.8 16.2 46.8 16.1 46.8 16.2C46.9 16.3 46.8 16.2 46.8 16.3C46.8 16.4 46.6 16.1 46.8 16.4C46.8 16.4 46.7 16.4 46.8 16.5C46.8 16.5 46.7 16.5 46.7 16.6C46.5 16.4 46.6 16.6 46.6 16.7C46.6 16.8 46.6 16.8 46.5 16.8C46.5 16.8 46.5 16.8 46.4 16.9C46.4 17 46.3 16.9 46.3 17C46.4 17.1 46.2 16.9 46.2 17C46.2 17.1 46.3 17.1 46.1 17C46.1 17 45.9 16.9 46 17C46 17.1 46.2 17.3 45.9 17C46 17.1 45.7 16.9 45.8 17C45.6 16.8 45.8 17 45.7 17C45.6 17 45.6 16.9 45.6 17C45.7 17.1 45.5 17 45.5 17C45.6 17.1 45.3 16.9 45.4 17C45.4 17 45.4 17 45.3 17C45.6 17.3 45.3 17 45.2 17C45.1 17 45.4 17.2 45.1 17C45.3 17.2 45.1 17 45 17C44.9 17 45.1 17.1 44.9 17C45 17.2 44.8 16.9 44.8 17C44.7 16.9 44.8 17 44.7 17C44.7 17 44.7 17 44.6 17C44.6 17 44.6 17 44.5 17C44.4 17.1 44.3 17.1 44.3 17Z" fill="#67B02C"/>
<path d="M46.6 22.6C46.6 22.5 46.6 22.4 46.7 22.3C46.7 22 46.7 22.4 46.7 22.3C46.7 22 46.7 22.6 46.7 22.3C46.7 22.2 46.7 22.2 46.7 22.3C46.7 22.5 46.7 22.3 46.8 22.3C46.8 22.5 46.8 22.4 46.9 22.3C46.9 22.6 46.9 22.6 47 22.3C47 22.3 47 22.4 47.1 22.3C47.1 22.3 47.1 22.2 47.2 22.3C47.2 22.1 47.2 22.1 47.3 22.3C47.3 22.1 47.3 22.2 47.4 22.3C47.4 22.4 47.4 22.1 47.5 22.3C47.5 22.3 47.5 22.2 47.6 22.3C47.6 22.4 47.7 22.5 47.7 22.3C47.7 22.2 47.8 22.2 47.8 22.3C47.8 22 47.9 22.2 47.9 22.3C47.9 22.3 48 22.4 48 22.3C48 22.3 48.1 22.2 48.1 22.3C48.1 22.4 48.2 22.5 48.2 22.3C48.2 22.1 48.3 22.4 48.3 22.3C48.3 22.5 48.4 22.2 48.4 22.3C48.4 22.3 48.5 22.4 48.5 22.3C48.5 22.3 48.6 22.2 48.6 22.3C48.6 21.9 48.6 22.4 48.7 22.3C48.7 22.5 48.7 22.3 48.8 22.3C48.8 22.2 48.8 22.5 48.9 22.3C48.9 22.3 48.9 22.2 49 22.3C49 22.1 49 22.5 49.1 22.3C49.1 22.3 49.1 22.3 49.2 22.3C49.2 22.6 49.2 22.3 49.3 22.3C49.3 22.3 49.3 22.1 49.4 22.3C49.4 22.3 49.4 22.5 49.5 22.3C49.5 22.3 49.5 22.7 49.6 22.3C49.6 22.2 49.6 22.6 49.6 22.3C49.7 22.4 49.8 22.6 49.8 22.7C49.8 22.9 49.7 23 49.6 23.2C49.6 23.5 49.6 23.3 49.5 23.2C49.5 23.2 49.5 23.1 49.4 23.2C49.4 23.4 49.4 23.1 49.3 23.2C49.3 23 49.3 23.1 49.2 23.2C49.2 23 49.2 23.2 49.1 23.2C49.1 22.9 49.1 23.1 49 23.2C49 23.3 49 23.2 48.9 23.2C48.9 23.2 48.9 23.3 48.8 23.2C48.8 23.3 48.8 23.4 48.7 23.2C48.7 23.3 48.7 23.2 48.6 23.2C48.6 23.3 48.5 23.2 48.5 23.2C48.5 23.3 48.4 22.9 48.4 23.2H48.3C48.3 23.2 48.2 23.1 48.2 23.2C48.2 22.9 48.1 23.1 48.1 23.2C48.1 23.3 48 23.2 48 23.2H47.9C47.9 23.3 47.8 23.1 47.8 23.2C47.8 23.3 47.7 23.1 47.7 23.2C47.7 23.3 47.6 23.3 47.6 23.2C47.6 23.2 47.5 22.9 47.5 23.2C47.5 23.3 47.5 23.6 47.4 23.2C47.4 23.3 47.4 23 47.3 23.2C47.3 22.9 47.3 23.2 47.2 23.2C47.2 23.1 47.2 23.1 47.1 23.2C47.1 23.3 47.1 23.1 47 23.2C47 23.4 47 23 46.9 23.2C46.9 23.2 46.9 23.2 46.8 23.2C46.8 23.6 46.8 23.2 46.7 23.2C46.7 23.1 46.7 23.4 46.7 23.2C46.7 23.1 46.7 23.3 46.7 23.2C46.7 23.1 46.7 23.4 46.7 23.2C46.6 22.8 46.6 22.7 46.6 22.6Z" fill="#67B02C"/>
<path d="M44.3 28.2C44.4 28.1 44.5 28.1 44.6 28C44.6 28 44.6 28 44.7 28H44.8C44.7 28.1 45 27.8 44.9 28C44.9 28.1 44.9 28 45 28C45 28 45 28.1 45.1 28C45.3 27.8 44.9 28.2 45.2 28C45.3 28 45.3 28 45.3 28C45.2 28.2 45.3 28 45.4 28C45.2 28.2 45.3 28.1 45.5 28C45.3 28.3 45.3 28.2 45.6 28C45.6 28 45.5 28.1 45.7 28H45.8C46 27.9 46 27.9 45.9 28C46.1 27.8 46 27.9 46 28C45.9 28.1 46.2 27.9 46.1 28H46.2C46.1 28.1 46.1 28.2 46.3 28C46.4 28 46.4 27.9 46.4 28C46.6 27.8 46.5 27.9 46.5 28C46.5 28 46.4 28.1 46.6 28.1C46.6 28.1 46.7 28.1 46.7 28.2C46.7 28.3 46.6 28.3 46.8 28.3C46.9 28.2 46.8 28.4 46.9 28.4C46.7 28.6 47 28.4 47 28.5C47 28.5 46.9 28.6 47 28.6C47 28.6 47.1 28.6 47 28.7C47.3 28.5 47 28.8 47 28.8C46.9 28.9 47.1 28.8 47 28.9C47.1 28.9 46.9 29.1 47 29C47 29 47.1 28.9 47 29.1C47.1 29 46.9 29.2 47 29.2C47 29.2 47 29.2 47 29.3C46.8 29.5 47 29.4 47 29.4C47 29.4 47.1 29.3 47 29.5C47 29.5 46.9 29.6 47 29.6C47 29.6 46.7 29.9 47 29.7C47.1 29.7 46.8 29.9 47 29.8C47.2 29.6 47 29.8 47 29.9C47 29.9 47 29.9 47 30C47 30.2 46.9 30.3 46.8 30.4C46.7 30.5 46.5 30.6 46.3 30.6C46.3 30.6 46.1 30.7 46.2 30.6C46.2 30.6 46.1 30.7 46.1 30.6C45.9 30.8 46 30.6 46 30.6C46 30.6 46 30.5 45.9 30.6C45.8 30.7 45.9 30.5 45.8 30.6C45.9 30.5 45.9 30.5 45.7 30.6C45.8 30.5 45.6 30.6 45.6 30.6C45.8 30.4 45.6 30.5 45.5 30.6C45.4 30.6 45.5 30.5 45.4 30.6C45.4 30.5 45.3 30.6 45.3 30.6C45.2 30.7 45.2 30.7 45.2 30.6C45.1 30.6 45.2 30.6 45.1 30.6C45 30.7 45.1 30.6 45 30.6C44.9 30.6 45.2 30.4 44.9 30.6C44.9 30.6 44.9 30.5 44.8 30.5C44.8 30.5 44.8 30.4 44.7 30.4C44.9 30.2 44.7 30.3 44.6 30.3C44.5 30.3 44.5 30.3 44.5 30.2C44.5 30.2 44.5 30.2 44.4 30.1C44.3 30.1 44.4 30 44.3 30C44.2 30.1 44.4 29.9 44.3 29.9C44.2 29.9 44.2 30 44.3 29.8C44.3 29.8 44.4 29.6 44.3 29.7C44.2 29.7 44 29.9 44.3 29.6C44.2 29.7 44.4 29.4 44.3 29.5C44.5 29.3 44.3 29.5 44.3 29.4C44.3 29.3 44.4 29.3 44.3 29.3C44.2 29.4 44.3 29.2 44.3 29.2C44.2 29.3 44.4 29 44.3 29.1C44.3 29.1 44.3 29.1 44.3 29C44 29.3 44.3 29 44.3 28.9C44.3 28.8 44.1 29.1 44.3 28.8C44.1 29 44.3 28.8 44.3 28.7C44.3 28.6 44.2 28.8 44.3 28.6C44.1 28.7 44.4 28.5 44.3 28.5C44.4 28.4 44.3 28.5 44.3 28.4C44.3 28.4 44.3 28.4 44.3 28.3C44.3 28.3 44.3 28.3 44.3 28.2C44.2 28.3 44.1 28.4 44.3 28.2Z" fill="#67B02C"/>
<path d="M38.6 30.6C38.7 30.6 38.8 30.6 38.9 30.7C38.8 30.7 39.2 30.7 38.9 30.7C38.6 30.7 39.2 30.7 38.9 30.7C39 30.7 39 30.7 38.9 30.8C38.7 30.8 38.9 30.8 38.9 30.9C38.6 30.9 38.8 30.9 38.9 31C38.6 31 38.6 31 38.9 31.1C38.9 31.1 38.8 31.1 38.9 31.2C38.9 31.2 39 31.2 38.9 31.3C39.1 31.3 39.1 31.3 38.9 31.4C39.1 31.4 39 31.4 38.9 31.5C38.8 31.5 39.1 31.5 38.9 31.6C38.9 31.6 39 31.6 38.9 31.7C38.8 31.7 38.7 31.8 38.9 31.8C39 31.8 39 31.9 38.9 31.9C39.2 31.9 39 32 38.9 32C38.9 32 38.8 32.1 38.9 32.1C38.9 32.1 39 32.2 38.9 32.2C38.8 32.2 38.7 32.3 38.9 32.3C39.1 32.3 38.8 32.4 38.9 32.4C38.7 32.4 39 32.5 38.9 32.5C38.9 32.5 38.8 32.6 38.9 32.6C38.9 32.6 39 32.7 38.9 32.7C39.3 32.7 38.8 32.7 38.9 32.8C38.7 32.8 38.9 32.8 38.9 32.9C39 32.9 38.7 32.9 38.9 33C38.9 33 39 33 38.9 33.1C39.1 33.1 38.7 33.1 38.9 33.2C38.9 33.2 38.9 33.2 38.9 33.3C38.6 33.3 38.9 33.3 38.9 33.4C38.9 33.4 39.1 33.4 38.9 33.5C38.9 33.5 38.7 33.5 38.9 33.6C38.9 33.6 38.5 33.6 38.9 33.7C38.6 33.7 39 33.7 38.9 33.7C38.8 33.8 38.6 33.9 38.5 33.9C38.3 33.9 38.2 33.8 38 33.7C37.7 33.7 37.9 33.7 38 33.6C38 33.6 38.1 33.6 38 33.5C37.8 33.5 38.1 33.5 38 33.4C38.2 33.4 38.1 33.4 38 33.3C38.2 33.3 38 33.3 38 33.2C38.3 33.2 38.1 33.2 38 33.1C37.9 33.1 38 33.1 38 33C38 33 37.9 33 38 32.9C37.9 32.9 37.8 32.9 38 32.8C37.9 32.8 38 32.8 38 32.7C37.9 32.7 38 32.6 38 32.6C37.9 32.6 38.3 32.5 38 32.5V32.4C38 32.4 38.1 32.3 38 32.3C38.3 32.3 38.1 32.2 38 32.2C37.9 32.2 38 32.1 38 32.1V32C37.9 32 38.1 31.9 38 31.9C37.9 31.9 38.1 31.8 38 31.8C37.9 31.8 37.9 31.7 38 31.7C38 31.7 38.3 31.6 38 31.6C37.9 31.6 37.6 31.6 38 31.5C37.9 31.5 38.2 31.5 38 31.4C38.3 31.4 38 31.4 38 31.3C38.1 31.3 38.1 31.3 38 31.2C37.9 31.2 38.1 31.2 38 31.1C37.8 31.1 38.2 31.1 38 31C38 31 38 31 38 30.9C37.6 30.9 38 30.9 38 30.8C38.1 30.8 37.8 30.8 38 30.7C37.9 30.7 38.1 30.7 38 30.7C37.8 30.7 38.1 30.7 38 30.7C38.4 30.6 38.5 30.6 38.6 30.6Z" fill="#67B02C"/>
<path d="M33 28.2C33.1 28.3 33.1 28.4 33.2 28.5C33.2 28.5 33.2 28.5 33.2 28.6V28.7C33.1 28.6 33.4 28.9 33.2 28.8C33.1 28.8 33.2 28.8 33.2 28.9C33.2 28.9 33.1 28.9 33.2 29C33.4 29.2 33 28.8 33.2 29.1C33.2 29.2 33.2 29.2 33.2 29.2C33 29.1 33.2 29.2 33.2 29.3C33 29.1 33.1 29.2 33.2 29.4C32.9 29.2 33 29.2 33.2 29.5C33.2 29.5 33.1 29.4 33.2 29.6V29.7C33.3 29.9 33.3 29.9 33.2 29.8C33.4 30 33.3 29.9 33.2 29.9C33.1 29.8 33.3 30.1 33.2 30V30.1C33.1 30 33 30 33.2 30.2C33.2 30.3 33.3 30.3 33.2 30.3C33.4 30.5 33.3 30.4 33.1 30.4C33.1 30.4 33 30.3 33 30.5C33 30.5 33 30.6 32.9 30.6C32.8 30.6 32.8 30.5 32.8 30.7C32.9 30.8 32.7 30.7 32.7 30.8C32.5 30.6 32.7 30.9 32.6 30.9C32.6 30.9 32.5 30.8 32.5 30.9C32.5 31 32.5 31 32.4 30.9C32.6 31.2 32.3 30.9 32.3 30.9C32.2 30.8 32.3 31 32.2 30.9C32.2 31 32 30.8 32.1 30.9C32.1 30.9 32.2 31 32 30.9C32.1 31 31.9 30.8 31.9 30.9C31.9 30.9 31.9 30.9 31.8 30.9C31.6 30.7 31.7 30.9 31.7 30.9C31.7 30.9 31.8 31 31.6 30.9C31.6 30.9 31.5 30.8 31.5 30.9C31.5 30.9 31.2 30.6 31.4 30.9C31.4 31 31.2 30.7 31.3 30.9C31.5 31.1 31.3 30.9 31.2 30.9C31.2 30.9 31.2 30.9 31.1 30.9C30.9 30.9 30.8 30.8 30.7 30.7C30.6 30.6 30.5 30.4 30.5 30.2C30.5 30.2 30.4 30 30.5 30.1C30.5 30.1 30.4 30 30.5 30C30.3 29.8 30.5 29.9 30.5 29.9C30.5 29.9 30.6 29.9 30.5 29.8C30.4 29.7 30.6 29.8 30.5 29.7C30.6 29.8 30.6 29.8 30.5 29.6C30.6 29.7 30.5 29.5 30.5 29.5C30.7 29.7 30.6 29.5 30.5 29.4C30.5 29.3 30.6 29.4 30.5 29.3C30.6 29.3 30.5 29.2 30.5 29.2C30.4 29.1 30.4 29.1 30.5 29.1C30.5 29 30.5 29.1 30.5 29C30.4 28.9 30.5 29 30.5 28.9C30.5 28.8 30.7 29.1 30.5 28.8C30.5 28.8 30.6 28.8 30.6 28.7C30.6 28.7 30.7 28.7 30.7 28.6C30.9 28.8 30.8 28.6 30.8 28.5C30.8 28.4 30.8 28.4 30.9 28.4C30.9 28.4 30.9 28.4 31 28.3C31 28.2 31.1 28.3 31.1 28.2C31 28.1 31.2 28.3 31.2 28.2C31.2 28.1 31.1 28.1 31.3 28.2C31.3 28.2 31.5 28.3 31.4 28.2C31.4 28.1 31.2 27.9 31.5 28.2C31.4 28.1 31.7 28.3 31.6 28.2C31.8 28.4 31.6 28.2 31.7 28.2C31.8 28.2 31.8 28.3 31.8 28.2C31.7 28.1 31.9 28.2 31.9 28.2C31.8 28.1 32.1 28.3 32 28.2C32 28.2 32 28.2 32.1 28.2C31.8 27.9 32.1 28.2 32.2 28.2C32.3 28.2 32 28 32.3 28.2C32.1 28 32.3 28.1 32.4 28.2C32.5 28.2 32.3 28.1 32.5 28.2C32.4 28 32.6 28.3 32.6 28.2C32.7 28.3 32.6 28.2 32.7 28.2C32.7 28.2 32.7 28.2 32.8 28.2C32.8 28.2 32.8 28.2 32.9 28.2C32.9 28.1 33 28.2 33 28.2Z" fill="#67B02C"/>
<path d="M30.7 22.6C30.7 22.7 30.7 22.8 30.6 22.9C30.6 22.8 30.6 23.2 30.6 22.9C30.6 22.6 30.6 23.2 30.6 22.9C30.6 23 30.6 23 30.5 22.9C30.5 22.7 30.5 22.9 30.4 22.9C30.4 22.7 30.4 22.8 30.3 22.9C30.3 22.6 30.3 22.6 30.2 22.9C30.2 22.9 30.2 22.8 30.1 22.9C30.1 22.9 30.1 23 30 22.9C30 23.1 30 23.1 29.9 22.9C29.9 23.1 29.9 23 29.8 22.9C29.8 22.8 29.8 23.1 29.7 22.9C29.7 22.9 29.7 23 29.6 22.9C29.6 22.8 29.5 22.7 29.5 22.9C29.5 23 29.4 23 29.4 22.9C29.4 23.2 29.3 23 29.3 22.9C29.3 22.9 29.2 22.8 29.2 22.9C29.2 22.9 29.1 23 29.1 22.9C29.1 22.8 29 22.7 29 22.9C29 23.1 28.9 22.8 28.9 22.9C28.9 22.7 28.8 23 28.8 22.9C28.8 22.9 28.7 22.8 28.7 22.9C28.7 22.9 28.6 23 28.6 22.9C28.6 23.3 28.5 22.8 28.5 22.9C28.5 22.7 28.5 22.9 28.4 22.9C28.4 23 28.4 22.7 28.3 22.9C28.3 22.9 28.3 23 28.2 22.9C28.2 23.1 28.2 22.7 28.1 22.9C28.1 22.9 28.1 22.9 28 22.9C28 22.6 28 22.8 27.9 22.9C27.9 22.9 27.9 23.1 27.8 22.9C27.8 22.9 27.8 22.7 27.7 22.9C27.7 22.9 27.7 22.5 27.6 22.9C27.6 22.6 27.6 23 27.6 22.9C27.5 22.8 27.4 22.6 27.4 22.5C27.4 22.3 27.5 22.2 27.6 22C27.6 21.7 27.6 21.9 27.7 22C27.7 22 27.7 22.1 27.8 22C27.8 21.8 27.8 22.1 27.9 22C27.9 22.2 27.9 22.1 28 22C28 22.2 28 22 28.1 22C28.1 22.3 28.1 22.1 28.2 22C28.2 21.9 28.2 22 28.3 22C28.3 22 28.3 21.9 28.4 22C28.4 21.9 28.4 21.8 28.5 22C28.5 21.9 28.6 22 28.6 22C28.6 21.9 28.7 22 28.7 22C28.7 21.9 28.8 22.3 28.8 22H28.9C28.9 22 29 22.1 29 22C29 22.3 29.1 22.1 29.1 22C29.1 21.9 29.2 22 29.2 22H29.3C29.3 21.9 29.4 22.1 29.4 22C29.4 21.9 29.5 22.1 29.5 22C29.5 21.9 29.6 21.9 29.6 22C29.6 22 29.7 22.3 29.7 22C29.7 21.9 29.7 21.6 29.8 22C29.8 21.9 29.8 22.2 29.9 22C29.9 22.3 29.9 22 30 22C30 22.1 30 22.1 30.1 22C30.1 21.9 30.1 22.1 30.2 22C30.2 21.8 30.2 22.2 30.3 22C30.3 22 30.3 22 30.4 22C30.4 21.6 30.4 22 30.5 22C30.5 22.1 30.5 21.7 30.6 22C30.6 21.9 30.6 22.1 30.6 22C30.6 21.8 30.6 22.1 30.6 22C30.7 22.4 30.7 22.5 30.7 22.6Z" fill="#67B02C"/>
<path d="M33.1 17C33 17.1 32.9 17.1 32.8 17.2C32.8 17.2 32.8 17.2 32.7 17.2H32.6C32.7 17.1 32.4 17.4 32.5 17.2C32.5 17.1 32.5 17.2 32.4 17.2C32.4 17.2 32.4 17.1 32.3 17.2C32.1 17.4 32.5 17 32.2 17.2C32.1 17.2 32.1 17.2 32.1 17.2C32.2 17 32.1 17.2 32 17.2C32.2 17 32.1 17.1 31.9 17.2C32.1 16.9 32.1 17 31.8 17.2C31.8 17.2 31.9 17.1 31.7 17.2H31.6C31.4 17.3 31.4 17.3 31.5 17.2C31.3 17.4 31.4 17.3 31.4 17.2C31.5 17.1 31.2 17.3 31.3 17.2H31.2C31.3 17.1 31.3 17 31.1 17.2C31 17.2 31 17.3 31 17.2C30.8 17.4 30.9 17.3 30.9 17.1C30.9 17.1 31 17 30.8 17C30.8 17 30.7 17 30.7 16.9C30.7 16.8 30.8 16.8 30.6 16.8C30.5 16.9 30.6 16.7 30.5 16.7C30.7 16.5 30.4 16.7 30.4 16.6C30.4 16.6 30.5 16.5 30.4 16.5C30.3 16.5 30.3 16.5 30.4 16.4C30.1 16.6 30.4 16.3 30.4 16.3C30.5 16.2 30.3 16.3 30.4 16.2C30.3 16.2 30.5 16 30.4 16.1C30.4 16.1 30.3 16.2 30.4 16C30.3 16.1 30.5 15.9 30.4 15.9C30.4 15.9 30.4 15.9 30.4 15.8C30.6 15.6 30.4 15.7 30.4 15.7C30.4 15.7 30.3 15.8 30.4 15.6C30.4 15.6 30.5 15.5 30.4 15.5C30.4 15.5 30.7 15.2 30.4 15.4C30.3 15.4 30.6 15.2 30.4 15.3C30.2 15.5 30.4 15.3 30.4 15.2C30.4 15.2 30.4 15.2 30.4 15.1C30.4 14.9 30.5 14.8 30.6 14.7C30.7 14.6 30.9 14.5 31.1 14.5C31.1 14.5 31.3 14.4 31.2 14.5C31.2 14.5 31.3 14.4 31.3 14.5C31.5 14.3 31.4 14.5 31.4 14.5C31.4 14.5 31.4 14.6 31.5 14.5C31.6 14.4 31.5 14.6 31.6 14.5C31.5 14.6 31.5 14.6 31.7 14.5C31.6 14.6 31.8 14.5 31.8 14.5C31.6 14.7 31.8 14.6 31.9 14.5C32 14.4 31.9 14.6 32 14.5C32 14.6 32.1 14.5 32.1 14.5C32.2 14.4 32.2 14.4 32.2 14.5C32.3 14.5 32.2 14.5 32.3 14.5C32.4 14.4 32.3 14.5 32.4 14.5C32.5 14.5 32.2 14.7 32.5 14.5C32.5 14.5 32.5 14.6 32.6 14.6C32.6 14.6 32.6 14.7 32.7 14.7C32.5 14.9 32.7 14.8 32.8 14.8C32.9 14.8 32.9 14.8 32.9 14.9C32.9 14.9 32.9 14.9 33 15C33.1 15 33 15.1 33.1 15.1C33.2 15 33 15.2 33.1 15.2C33.2 15.2 33.2 15.1 33.1 15.3C33.1 15.3 33 15.5 33.1 15.4C33.2 15.4 33.4 15.2 33.1 15.5C33.2 15.4 33 15.7 33.1 15.6C32.9 15.8 33.1 15.6 33.1 15.7C33.1 15.8 33 15.8 33.1 15.8C33.2 15.7 33.1 15.9 33.1 15.9C33.2 15.8 33 16.1 33.1 16C33.1 16 33.1 16 33.1 16.1C33.4 15.8 33.1 16.1 33.1 16.2C33.1 16.3 33.3 16 33.1 16.3C33.3 16.1 33.1 16.3 33.1 16.4C33.1 16.5 33.2 16.3 33.1 16.5C33.3 16.4 33 16.6 33.1 16.6C33 16.7 33.1 16.6 33.1 16.7C33.1 16.7 33.1 16.7 33.1 16.8C33.1 16.8 33.1 16.8 33.1 16.9C33.2 16.8 33.1 16.9 33.1 17Z" fill="#67B02C"/>
<path d="M42.6 25.9C42.5 26 42.4 26 42.1 25.9H42C41.9 25.9 41.9 25.9 41.9 25.8C42 25.7 41.7 25.9 41.8 25.7C41.8 25.6 41.7 25.6 41.6 25.6C41.5 25.6 41.6 25.5 41.4 25.5C41.2 25.7 41.5 25.2 41.2 25.4C41.1 25.4 41.1 25.4 41 25.3C41.1 25.1 40.9 25.2 40.8 25.2C40.9 25 40.8 25 40.6 25.1C40.8 24.8 40.7 24.8 40.4 25C40.3 25 40.3 24.8 40.2 24.9C40.1 24.9 40 24.9 40 24.7C39.8 24.8 39.7 24.7 39.8 24.5C39.6 24.6 39.6 24.5 39.6 24.3C39.6 24.1 39.3 24.3 39.4 24.1C39.3 24 39.2 24 39.2 23.9C39.2 23.8 39.2 23.6 39 23.7C39 23.7 38.9 23.7 38.9 23.6C38.8 23.5 38.7 23.5 38.7 23.4C38.5 23.4 38.4 23.4 38.3 23.3C38.2 23.2 38.2 23.1 38.2 23C38.1 22.9 38 22.8 37.9 22.7V22.6C38 22.5 38 22.4 38 22.3C38 22.2 38.1 22.1 38.2 22C38.4 21.8 38.6 21.7 38.5 21.5C38.5 21.3 38.5 21.3 38.6 21.3C38.7 21.3 38.7 21.2 38.7 21.2C39 21.2 38.7 21 38.9 20.9C38.9 20.8 39.1 20.8 39.1 20.6C39.1 20.5 39.1 20.4 39.3 20.3C39 20 39.5 20.2 39.5 20C39.7 20 39.6 19.8 39.7 19.8C39.7 19.7 39.9 19.7 39.9 19.6C40 19.5 39.9 19.4 40.1 19.4C40 19.2 40.3 19.3 40.3 19.2C40.3 19.1 40.4 19 40.5 19C40.8 19.1 40.6 18.9 40.6 18.8C40.7 18.7 40.5 18.6 40.7 18.6C40.8 18.5 40.9 18.5 40.8 18.4C40.8 18.3 41.2 18.5 40.9 18.2C40.9 18.1 41.2 18.2 41 18C40.5 18 40.7 18 40.8 18L40.9 17.9C41.3 17.5 41.5 17.4 41.7 17.5C41.9 17.6 41.8 18 41.7 18.5C41.7 18.6 41.8 18.7 41.6 18.7C41.6 18.8 41.7 18.9 41.5 18.9C41.7 19.1 41.5 19 41.4 19.1C41.4 19.2 41.3 19.2 41.3 19.3C41.4 19.4 41.2 19.4 41.2 19.5C41 19.5 41 19.6 41.1 19.7C40.9 19.7 41 19.9 41 19.9C40.7 19.9 40.8 20 40.9 20.1C40.9 20.2 40.8 20.2 40.8 20.4C40.7 20.5 40.8 20.6 40.7 20.7C40.8 20.8 40.7 21 40.6 21C40.6 21.1 40.5 21.2 40.5 21.3C40.5 21.4 40.4 21.5 40.4 21.6C40.4 21.7 40.1 21.7 40.3 21.9C40.3 22 40.2 22.1 40.1 22.2L40 22.3C40 22.3 40 22.3 40 22.4C40 22.4 40 22.4 40 22.5C39.9 22.4 39.8 22.5 39.9 22.5C39.9 22.5 40 22.5 40 22.6C40.1 22.6 40.2 22.6 40.2 22.8C40.3 22.9 40.2 23.1 40.4 23C40.5 23 40.8 22.8 40.6 23.2C40.7 23.2 40.6 23.5 40.8 23.4C40.7 23.7 40.9 23.5 41 23.6C41 23.7 41 23.8 41.2 23.8C41.4 23.8 41.3 24 41.4 24C41.6 23.9 41.4 24.3 41.6 24.2C41.6 24.3 41.7 24.3 41.8 24.4C42.1 24.2 41.9 24.5 41.9 24.6C41.9 24.7 42.2 24.5 42 24.8C42.2 24.6 42.1 24.9 42.1 25C42.1 25.1 42.3 25 42.2 25.1C42.4 25 42.2 25.3 42.3 25.2C42.3 25.3 42.4 25.3 42.4 25.3C42.5 25.3 42.5 25.3 42.5 25.4C42.5 25.4 42.5 25.5 42.6 25.5C42.6 25.7 42.7 25.8 42.6 25.9Z" fill="#67B02C"/>
<path d="M41.4 7.2C41.3 7.2 41.3 6.8 41.3 5.9C41.3 5.5 41.3 5 41.2 4.3C41.2 3.8 41.2 3.1 41.1 2.4C41 2.4 40.8 2.4 40.7 2.4C40.6 2.4 40.5 2.4 40.4 2.4C40.2 2.4 40.1 2.4 39.9 2.4C39.6 2.4 39.2 2.4 38.9 2.4C38.6 2.4 38.2 2.4 37.8 2.4C37.6 2.4 37.4 2.4 37.2 2.4C37.1 2.4 37 2.4 36.9 2.4C36.8 2.4 36.8 2.4 36.7 2.4C36.5 2.4 36.4 2.4 36.2 2.4C36.2 2.6 36.3 2.8 36.3 2.9V3.1C36.3 3.2 36.3 3.2 36.3 3.3C36.3 3.4 36.3 3.6 36.2 3.7C36.2 4.1 36.2 4.6 36.2 5C36.2 5.2 36.2 5.5 36.2 5.7C36.2 5.8 36.2 5.9 36.2 6C36.2 6.2 36.2 6.3 36.2 6.5C36.2 6.7 36.2 6.9 36.2 7V7.4C36.2 7.4 36.2 7.4 36.1 7.4H36C35.7 7.5 35.3 7.5 35 7.6C34.8 7.7 34.5 7.7 34.3 7.8C34.2 8 34 8.1 33.8 8.2C33.6 8.3 33.4 8.4 33.1 8.5C32.9 8.6 32.6 8.6 32.4 8.7C32.3 8.7 32.2 8.8 32 8.8C31.9 8.8 31.8 8.9 31.6 9C31.5 9.1 31.4 9.1 31.3 9.2C31.2 9.3 31.1 9.4 31 9.5C30.9 9.6 30.8 9.6 30.7 9.7C30.5 9.8 30.4 9.9 30.2 10C30 10.1 29.8 10.2 29.7 10.4H29.6L29.3 10.1C29 9.8 28.8 9.6 28.5 9.3C28.3 9.1 28.1 8.9 27.9 8.7C27.6 8.3 27.3 8 26.9 7.6C26.7 7.4 26.5 7.2 26.4 7.2C26.3 7.1 26.2 7.1 26.2 7C26.1 7.1 26 7.2 26 7.3H25.9C25.9 7.3 25.9 7.3 25.8 7.3L25.7 7.4C25.6 7.5 25.5 7.6 25.3 7.7C25.1 7.9 24.8 8.1 24.6 8.4C24.2 8.9 23.8 9.4 23.4 9.9C23.4 9.9 23.4 9.9 23.3 9.9C23.3 9.9 23.3 9.9 23.2 9.9C23.2 9.9 23.1 9.9 23.1 10C23 10 22.9 10.1 22.8 10.2C22.9 10.5 23.9 11.3 24.7 11.8C24.9 12 25.2 12.3 25.4 12.5C25.6 12.7 25.7 12.8 25.9 13C26.1 13.2 26.3 13.4 26.5 13.6L26.4 13.7L26.3 13.9L25.9 14.5L25.8 14.6V14.7L25.7 14.8C25.5 15.1 25.4 15.4 25.3 15.7C25 16.3 24.8 16.9 24.5 17.6C24.4 17.8 24.4 17.9 24.3 18.1C24.2 18.3 24.2 18.4 24.2 18.6C24.2 18.8 24.1 18.9 24.1 19.1V19.5L24 19.9C24 20.1 23.9 20.4 23.9 20.6C23.6 20.6 23.3 20.6 23 20.7H22.2C21.9 20.7 21.5 20.7 21.2 20.7C20.9 20.7 20.5 20.7 20.2 20.7C20 20.7 19.9 20.7 19.7 20.7H19.2C19.1 20.7 19.1 20.8 19.1 20.8C19.1 20.9 19.1 20.9 19.1 20.9C19.1 20.9 19.1 21 19.1 21.1V21.3C19.1 21.5 19.1 21.6 19.1 21.8C19.1 22.4 19 23 19 23.7C19 23.8 19 24 19 24.1V24.4C19 24.5 19 24.5 19 24.6C19.2 24.6 19 24.5 19.7 24.5C20.2 24.5 20.7 24.5 21.2 24.6C21.4 24.6 21.6 24.6 21.8 24.6C22 24.6 22.2 24.6 22.4 24.6C22.8 24.6 23.1 24.6 23.5 24.6H23.8V24.8L24 25.8V26.1C24.1 26.3 24.1 26.5 24.2 26.7C24.3 26.9 24.3 27.1 24.4 27.3L24.6 27.9L24.7 28.3C24.7 28.4 24.8 28.6 24.9 28.7C25 28.8 25 29 25.1 29.1L25.3 29.5C25.4 29.8 25.6 30.1 25.7 30.3L25.8 30.4C25.8 30.4 25.8 30.4 25.8 30.5L25.9 30.6L26.1 30.9C26.3 31.1 26.4 31.4 26.6 31.6C26.4 31.8 26.2 32.1 26 32.3L25.6 32.7V33C25.2 33.5 24.7 33.9 24.3 34.4L24 34.8L23.7 35.1C23.7 35.1 23.7 35.1 23.6 35.2C23.6 35.2 23.6 35.2 23.6 35.3L23.8 35.5C24.4 35.9 24.9 36.4 25.4 36.9C25.6 37.1 25.9 37.4 26.1 37.7C26.1 37.7 26.1 37.7 26.1 37.8C26.7 37.2 27.4 36.6 28 35.9L28.2 35.7L28.6 35.4L29.2 34.8C29.3 34.7 29.3 34.6 29.4 34.7C29.7 34.9 30 35.1 30.4 35.3C30.6 35.4 30.7 35.4 30.8 35.5L31.1 35.6C31.8 36 32.6 36.4 33.4 36.7C33.6 36.8 33.8 36.8 34 36.9L34.9 37.2H35C35 37.2 35 37.2 35.1 37.2L35.4 37.3C35.8 37.4 36.2 37.5 36.6 37.6C36.6 38 36.6 38.4 36.6 38.8V39.6C36.6 40 36.6 40.4 36.6 40.8C36.6 41.2 36.6 41.6 36.6 42V42.3C36.6 42.3 36.6 42.3 36.6 42.4V42.5H36.9C37.1 42.5 37.3 42.5 37.5 42.5C37.9 42.5 38.3 42.5 38.8 42.5C39.2 42.5 39.6 42.5 40.1 42.5H40.5C40.5 42.5 40.5 42.5 40.5 42.4C40.5 42.4 40.5 42.4 40.6 42.3C40.6 42.3 40.6 42.2 40.6 42.1V41.8C40.6 41.4 40.6 41 40.6 40.6C40.6 40.2 40.6 39.8 40.5 39.4V38.6C40.5 38.2 40.5 37.9 40.5 37.5C40.8 37.4 41.2 37.4 41.5 37.3L42 37.2L42.3 37.1C42.5 37 42.7 37 42.9 36.9L43.5 36.7C43.7 36.6 43.9 36.6 44.1 36.5C44.9 36.2 45.6 35.9 46.3 35.4L46.4 35.3H46.6L47.6 34.7L47.8 34.5C47.8 34.5 47.8 34.5 47.9 34.5L48.1 34.7C48.5 35.1 49 35.6 49.4 36C50 36.6 50.6 37.2 51.1 37.8C51.2 37.9 51.2 37.8 51.2 37.8L51.5 37.5L51.9 37.2C52.4 36.8 52.9 36.4 53.3 35.9C53.4 35.8 53.5 35.7 53.6 35.6L53.8 35.5C53.9 35.5 53.9 35.4 54 35.4C53.9 35.4 53.9 35.3 53.8 35.3L53.4 34.9C53 34.5 52.6 34.2 52.3 33.8C52.1 33.6 51.8 33.4 51.6 33.1C51.2 32.7 50.9 32.4 50.5 32C50.7 31.7 51 31.3 51.2 31L51.5 30.7L51.7 30.4C51.8 30.2 51.9 30 52 29.8C52.1 29.6 52.2 29.4 52.2 29.2C52.3 29.1 52.3 28.9 52.4 28.8C52.5 28.7 52.5 28.5 52.6 28.3C52.7 28.1 52.7 28 52.8 27.8C52.8 27.6 52.9 27.5 52.9 27.3C53 27 53.1 26.7 53.1 26.4V26.1L53.2 25.7C53.3 25.4 53.3 25.1 53.4 24.9C53.7 24.9 53.9 24.9 54.2 24.9C54.4 24.9 54.5 24.9 54.7 24.9C54.8 24.9 54.9 24.9 55.1 24.9C55.3 24.9 55.5 24.9 55.6 24.9C56 24.9 56.3 24.9 56.7 24.9C57.1 24.9 57.4 24.9 57.8 25H58.2C58.3 25 58.3 25 58.3 25C58.3 25 58.3 25 58.4 25C58.4 24.6 58.4 24.1 58.4 23.7C58.4 23.1 58.4 22.4 58.4 21.8C58.4 21.7 58.5 21.5 58.5 21.4V21.1C58.5 21 58.5 20.8 58.5 20.7C58.4 20.7 58.3 20.7 58.2 20.7H57.8C57.4 20.7 57 20.8 56.6 20.8C56.3 20.8 56 20.8 55.6 20.8C55.4 20.8 55.3 20.8 55.1 20.8H54.6C54.3 20.8 54.1 20.8 53.8 20.8H53.5L53.4 20.4C53.4 20.1 53.3 19.9 53.3 19.6V19.3C53.3 19.2 53.3 19.2 53.3 19.1C53 18 52.7 16.8 52.1 15.9C52 15.8 52 15.7 51.9 15.5C51.8 15.4 51.8 15.3 51.7 15.1L51.6 14.9V14.7C51.5 14.5 51.4 14.4 51.3 14.2L51 13.6L51.1 13.5C51.2 13.4 51.4 13.2 51.5 13.1C51.6 13 51.6 13 51.7 12.9L51.9 12.7C52 12.6 52.1 12.5 52.1 12.3C52.5 11.9 52.9 11.6 53.3 11.2C53.5 11 53.7 10.9 53.9 10.7L54.1 10.5C54.1 10.4 54.2 10.4 54.2 10.3C54.2 10.2 54.2 10.2 54.3 10.1C54.1 10 54.1 10 54 9.9C54 9.9 54 9.8 53.9 9.8V9.7L53.8 9.6C53.5 9.3 53.3 9 53 8.7C52.7 8.4 52.4 8 52 7.7C51.8 7.5 51.7 7.4 51.5 7.2C51.4 7.1 51.3 7 51.2 6.9L51.1 6.8C51.1 6.9 51 7 50.9 7.1C50.8 7.2 50.6 7.4 50.5 7.5C50.2 7.8 49.9 8.1 49.6 8.4C49.3 8.7 49 9 48.7 9.2C48.5 9.4 48.4 9.5 48.2 9.7C48.1 9.8 48 9.9 47.9 10L47.7 10.2C47.5 10.1 47.3 9.9 47.1 9.8C47 9.7 46.9 9.7 46.8 9.6C46.7 9.6 46.7 9.5 46.6 9.5C46.3 9.3 46.1 9.2 45.8 9C45.7 8.9 45.5 8.9 45.4 8.8C45.3 8.7 45.1 8.7 45 8.6C44.9 8.5 44.8 8.5 44.6 8.4C44.5 8.3 44.4 8.3 44.2 8.2C43.7 8 43.3 7.9 43 7.7C42.6 7.6 42.3 7.5 42.1 7.4C41.6 7.3 41.4 7.2 41.4 7.2C41.4 7.2 41.7 7.2 42.2 7.2C42.5 7.2 42.8 7.3 43.2 7.4C43.6 7.5 44 7.6 44.5 7.8C44.6 7.8 44.7 7.9 44.9 7.9C44.9 8 45.1 8 45.2 8.1C45.3 8.2 45.5 8.2 45.6 8.3C45.7 8.4 45.9 8.4 46 8.5C46.3 8.6 46.6 8.8 46.9 9C47 8.9 47.1 9 47.1 9C47.2 9 47.2 9.1 47.3 9.1C47.4 9.2 47.5 9.2 47.6 9.3L47.9 9C48 8.9 48 8.9 48.1 8.8C48.4 8.5 48.7 8.2 48.9 7.9C49.2 7.6 49.5 7.3 49.8 7C50.2 6.6 50.6 6.1 51.1 5.7C52 6.4 52.8 7.2 53.7 8C54 8.3 54.3 8.5 54.6 8.8L54.7 8.9V9H54.8C54.9 9.1 55 9.2 55.2 9.3C55.4 9.5 55.7 9.8 55.9 10C55.7 10.2 55.5 10.4 55.3 10.5C55.2 10.6 55 10.8 54.9 10.9L54.6 11.2C54.4 11.4 54.3 11.6 54.1 11.8C53.7 12.2 53.4 12.6 52.9 12.9C52.8 13 52.8 13.1 52.7 13.2L52.6 13.3C52.6 13.3 52.6 13.3 52.6 13.4C52.6 13.4 52.6 13.5 52.5 13.5V13.6C52.5 13.6 52.5 13.7 52.6 13.7V13.8L52.7 14C52.8 14.1 52.8 14.3 52.9 14.4C53 14.5 53 14.7 53.1 14.8C53.7 15.9 54 17.1 54.5 18.3C54.5 18.4 54.6 18.4 54.6 18.5V18.6C54.6 18.7 54.6 18.7 54.6 18.8V18.9H55C55.2 18.9 55.3 18.9 55.5 18.9C55.8 18.9 56.1 18.9 56.5 18.9C56.9 19 57.3 19 57.7 19H58.6C58.9 19 59.2 19 59.6 19C59.6 19.4 59.6 19.8 59.6 20.2V20.7C59.6 20.8 59.6 21 59.6 21.1C59.5 21.7 59.5 22.4 59.6 23C59.6 23.3 59.6 23.7 59.6 24C59.6 24.6 59.6 25.1 59.6 25.7C59.5 25.7 59.3 25.7 59.2 25.7C58.9 25.7 58.6 25.6 58.3 25.6H57.6C57.2 25.6 56.9 25.6 56.5 25.6C56.1 25.6 55.8 25.6 55.4 25.7C55.2 25.7 55 25.7 54.9 25.7H54.6C54.6 25.8 54.6 25.8 54.6 25.9V26.1C54.5 26.4 54.4 26.8 54.3 27.1C54.2 27.3 54.2 27.4 54.1 27.6C54 27.8 54 27.9 53.9 28.1C53.8 28.3 53.8 28.4 53.7 28.6C53.6 28.8 53.6 28.9 53.5 29.1C53.4 29.3 53.3 29.5 53.2 29.7C53.1 29.9 53 30.1 52.9 30.3C52.8 30.5 52.7 30.7 52.6 30.8L52.5 31L52.7 31.2C52.9 31.4 53.1 31.6 53.4 31.9C53.8 32.2 54.2 32.6 54.6 32.9L55.3 33.6C55.7 34 56 34.3 56.4 34.7C56 35.1 55.6 35.4 55.3 35.8L55 36.4L54.9 36.5L54.7 36.6L54.4 36.9C54 37.4 53.5 37.8 53.1 38.3C52.4 38.9 51.8 39.6 51.1 40.2C50.7 39.7 50.2 39.3 49.7 38.8C49.1 38.2 48.5 37.7 47.9 37.1L47.4 36.6H47.2L46.9 36.8C46.1 37.3 45.3 37.6 44.5 37.9C44.3 38 44.1 38.1 43.9 38.1C43.7 38.2 43.5 38.2 43.3 38.3C43.1 38.4 42.9 38.4 42.7 38.5C42.6 38.5 42.5 38.6 42.4 38.6H42.3C42.3 38.6 42.3 38.6 42.3 38.7V39.1C42.3 39.5 42.3 39.9 42.3 40.3C42.3 40.7 42.3 41.1 42.3 41.5C42.3 42.1 42.3 42.7 42.3 43.3C42.3 43.5 42.3 43.7 42.3 43.9C41.2 43.9 40.1 43.9 38.9 43.9C38.5 43.9 38.1 43.9 37.6 43.9C37 43.9 36.4 43.9 35.8 43.9C35.5 43.9 35.3 43.9 35 43.8C35 43.4 35 43 35.1 42.7V41.8C35.1 41.4 35.1 41 35.1 40.6C35.1 40.2 35.1 39.8 35 39.4V38.8H34.7L34.3 38.7L34 38.6C33.9 38.6 33.8 38.5 33.7 38.5C33.5 38.4 33.2 38.4 33 38.3C32.1 38 31.2 37.5 30.4 37.1L29.9 36.8L29.8 36.7C29.8 36.7 29.8 36.7 29.7 36.7L29.4 37C28.8 37.6 28.1 38.2 27.5 38.9L27.3 39L27.1 39.2L26.8 39.6L26.1 40.3L24.7 38.9C24.5 38.6 24.2 38.4 24 38.1C23.5 37.6 23 37.1 22.5 36.6L21.9 36C21.6 35.7 21.3 35.4 21 35.1C21.4 34.7 21.9 34.2 22.3 33.8C22.5 33.6 22.8 33.4 23 33.1C23.5 32.7 23.9 32.2 24.4 31.7L24.6 31.5L24.4 31.3C24.2 31 24 30.7 23.9 30.4L23.7 29.9C23.6 29.7 23.6 29.6 23.5 29.4C23.4 29.2 23.4 29.1 23.3 28.9L23.1 28.4L23 28.1V27.8C22.9 27.6 22.9 27.4 22.8 27.2C22.8 27 22.7 26.8 22.7 26.6V26.2C22.6 26.2 22.6 26.2 22.5 26.2H21.9C21.7 26.2 21.5 26.2 21.3 26.3C20.8 26.3 20.3 26.4 19.8 26.4C19.5 26.4 19.4 26.4 18.8 26.5C18.3 26.5 17.8 26.5 17.3 26.5C17.3 25.9 17.3 25.3 17.3 24.7V24.2C17.3 24.1 17.4 23.9 17.4 23.8C17.4 23.2 17.4 22.6 17.4 21.9V21.2C17.4 21.1 17.4 21.1 17.4 20.9C17.4 20.4 17.4 19.8 17.4 19.3C17.9 19.3 18.5 19.3 19 19.2H19.3C19.4 19.2 19.5 19.2 19.6 19.2C19.8 19.2 19.9 19.2 20.1 19.2C20.4 19.2 20.8 19.2 21.1 19.2C21.4 19.2 21.8 19.2 22.1 19.2H22.5V18.9C22.6 18.7 22.6 18.5 22.7 18.4C22.8 18.2 22.8 18 22.9 17.9C23 17.7 23 17.5 23.1 17.4C23.4 16.7 23.7 16 23.9 15.3C24 15 24.2 14.6 24.4 14.3L24.5 14.2V14L24.6 13.9L24.5 13.8V13.7L24.3 13.5C24.1 13.3 23.8 13 23.6 12.8C23.2 12.5 22.9 12.1 22.5 11.8L22.3 11.5L22.1 11.3L22.2 11C21.9 10.7 21.7 10.4 21.4 10.1C21.6 9.9 21.8 9.7 22 9.5C22.1 9.4 22.2 9.3 22.3 9.2L22.4 9L22.5 8.9C22.5 8.9 22.5 8.9 22.5 8.8C23 8.4 23.4 8 23.9 7.5C24.1 7.3 24.3 7.1 24.6 6.8C24.7 6.7 24.8 6.6 24.9 6.5C25.1 6.3 25.2 6.2 25.4 6C25.6 5.7 25.9 5.4 26.2 5C26.5 5.3 26.8 5.6 27.2 5.9C27.6 6.3 27.7 6.4 27.8 6.6C28.1 7 28.4 7.4 28.7 7.7C28.9 7.9 29.1 8.1 29.3 8.3L29.5 8.4L29.7 8.6H29.8C29.8 8.6 29.8 8.6 29.9 8.6L30 8.5C30 8.5 30 8.5 30.1 8.5C30.1 8.5 30.1 8.5 30.2 8.5C30.3 8.4 30.5 8.4 30.6 8.4C30.7 8.3 30.8 8.2 30.9 8.1C30.9 8.2 31 8.1 31.2 8C31.3 7.9 31.4 7.9 31.6 7.8C31.7 7.7 31.9 7.7 32 7.6C32.1 7.6 32.3 7.5 32.4 7.5C32.5 7.5 32.7 7.4 32.8 7.4C33.1 7.3 33.3 7.3 33.6 7.2C33.7 7.2 34 7.1 34.2 7C34.4 6.9 34.7 6.9 34.9 6.8C35 6.8 35.1 6.7 35.3 6.7C35.3 6.7 35.3 6.7 35.3 6.6C35.3 6.6 35.3 6.5 35.3 6.4C35.2 6.3 35.2 6 35.2 5.8C35.2 5.6 35.2 5.3 35.2 5.1C35.2 4.6 35.3 4.2 35.3 3.8C35.3 3.7 35.3 3.5 35.3 3.4C35.3 3.3 35.3 3.3 35.3 3.2C35.3 3.1 35.3 3 35.3 2.9C35.3 2.5 35.3 2.1 35.3 1.7C35.6 1.7 36 1.7 36.4 1.7C36.6 1.7 36.9 1.7 37.1 1.7C37.3 1.7 37.5 1.7 37.7 1.7C38.1 1.7 38.4 1.7 38.8 1.8C39.5 1.8 40.2 1.8 40.9 1.8C41.2 1.8 41.4 1.8 41.7 1.8C41.7 2.3 41.7 2.8 41.7 3.2C41.7 3.6 41.7 3.9 41.7 4.2C41.7 4.8 41.7 5.3 41.6 5.8C41.5 6.7 41.5 7.2 41.4 7.2Z" fill="#67B02C"/>
<path d="M38.7 12C38.7 12.1 38 12.2 36.7 12.5C36.5 12.6 36.3 12.6 36 12.7C35.9 12.7 35.8 12.8 35.6 12.8C35.5 12.9 35.3 12.9 35.2 12.9C35 12.9 34.9 13 34.8 13.1C34.7 13.2 34.6 13.3 34.4 13.3C34.2 13.3 34.1 13.4 34 13.5C33.9 13.6 33.7 13.7 33.6 13.8C33.5 13.9 33.3 14 33.2 14.1C33 14.2 32.9 14.3 32.8 14.4C32.7 14.6 32.5 14.7 32.4 14.7C32.2 14.8 32 14.9 32 15.1C31.8 15.4 31.5 15.7 31.2 16C30.8 16.2 30.7 16.7 30.5 17C30.1 17.2 29.9 17.7 29.9 18.2C29.4 18.5 29.2 19 29.4 19.5C29 20 28.8 20.4 28.8 21C28.7 21.5 28.8 22 28.7 22.5C28.9 23 28.9 23.5 28.8 24.1C29.1 24.6 29.1 25.1 29.2 25.7C29.2 25.8 29.3 26 29.3 26.1C29.4 26.2 29.4 26.3 29.5 26.5C29.7 26.7 29.8 27 29.8 27.3C30 27.8 30.4 28.3 30.7 28.7C31 29.2 31.3 29.7 31.9 30C32.4 30.4 32.9 30.6 33.3 31.1C33.9 31.2 34.4 31.6 34.9 31.9C35.5 32.1 36 32.4 36.7 32.4C37.3 32.6 37.9 32.5 38.6 32.6C39.2 32.7 39.9 32.7 40.5 32.4C40.8 32.3 41.1 32.2 41.4 32.1C41.6 32.1 41.7 32 41.9 32C42 32 42.2 31.9 42.3 31.8C42.5 31.8 42.6 31.8 42.8 31.7C42.9 31.6 43.1 31.6 43.2 31.5C43.3 31.4 43.4 31.3 43.6 31.2C43.7 31.1 43.9 31 44 31C44.5 30.7 45.1 30.4 45.4 29.9C45.8 29.5 46.2 29 46.6 28.6C46.6 28.3 46.8 28 47 27.8C47.1 27.7 47.2 27.6 47.3 27.5C47.4 27.4 47.5 27.3 47.5 27.1C47.9 26.7 47.9 26.1 48.2 25.6C48.2 25.3 48.4 25.1 48.5 24.8C48.5 24.7 48.6 24.5 48.6 24.4C48.6 24.3 48.6 24.1 48.6 24C48.7 23.5 48.6 23 48.7 22.4C48.6 22.3 48.6 22.1 48.6 22C48.6 21.9 48.6 21.7 48.6 21.6C48.6 21.5 48.6 21.3 48.6 21.2C48.6 21.1 48.6 20.9 48.5 20.8C48.4 20.3 48.3 19.8 48.2 19.4C48.2 19.3 48.2 19.1 48.2 19C48.2 18.9 48.1 18.8 48.1 18.7C48 18.6 48 18.5 47.9 18.4C47.8 18.3 47.8 18.2 47.7 18.1C47.5 17.7 47.1 17.4 47.1 16.9C46.9 16.5 46.7 16.1 46.4 15.9C46.3 15.8 46.2 15.5 46.1 15.3C46 15.1 45.9 15 45.6 15C45.4 14.9 45.3 14.7 45.2 14.6C45.1 14.4 45 14.3 44.7 14.3C44.5 14.3 44.3 14.2 44.2 14.1C44.1 14 44 13.8 43.8 13.7C43.7 13.6 43.5 13.5 43.4 13.4C43.3 13.3 43.1 13.2 43 13.2C42.4 12.9 41.8 12.7 41.3 12.5C40.8 12.3 40.3 12.2 39.9 12.1C39.5 12 39.2 12 39 11.9C38.8 12 38.7 12 38.7 12C38.7 11.9 39.2 11.8 40.2 11.9C40.7 11.9 41.3 12 42 12.2C42.7 12.4 43.5 12.7 44.3 13.1C44.5 13.2 44.7 13.2 44.8 13.3C45 13.4 45.1 13.5 45.3 13.7C45.6 13.9 46 14.1 46.3 14.5C46.8 14.6 47 15.1 47.3 15.4C47.6 15.7 47.8 16.2 48.2 16.5C48.4 16.7 48.5 16.9 48.6 17.1C48.7 17.3 48.8 17.6 49 17.8C49.1 18.3 49.3 18.8 49.6 19.3C49.6 19.9 49.9 20.3 50 20.9C49.8 21.5 50.1 22 50.2 22.6C50.3 23.2 50.1 23.8 50.1 24.4C50 25 49.9 25.6 49.7 26.2C49.6 26.8 49.4 27.5 49 28C48.8 28.6 48.4 29.2 48 29.7C47.7 30.3 47.1 30.7 46.6 31.2C46.4 31.5 46.1 31.6 45.8 31.8C45.5 32 45.2 32.2 45 32.5C44.4 32.9 43.8 33.2 43.1 33.5C42.4 33.7 41.7 33.9 41 34.1C40.2 34 39.6 34.2 38.8 34.3C38.1 34.4 37.3 34.3 36.6 34.1C35.9 34 35.2 33.8 34.5 33.5C33.8 33.3 33.3 32.8 32.6 32.5C32.3 32.4 32 32.1 31.7 31.9C31.4 31.7 31.2 31.4 30.9 31.2C30.3 30.8 29.8 30.3 29.5 29.7C29.3 29.4 29.2 29.1 29 28.8C28.9 28.7 28.9 28.5 28.8 28.4C28.7 28.3 28.6 28.1 28.5 28C28.3 27.7 28.1 27.5 27.9 27.2C27.8 27.1 27.8 26.9 27.7 26.7C27.7 26.5 27.7 26.4 27.7 26.2C27.6 25.9 27.5 25.6 27.5 25.3C27.5 25.1 27.5 25 27.4 24.8C27.4 24.6 27.3 24.5 27.3 24.4C27.4 24.2 27.4 24.1 27.4 23.9C27.4 23.7 27.4 23.6 27.4 23.5C27.4 23.4 27.3 23.2 27.3 23.1C27.3 23 27.3 22.8 27.3 22.7C27.4 22.1 27.5 21.6 27.5 21C27.5 20.4 27.8 19.9 27.9 19.4C27.9 19.3 27.9 19.1 28 19C28.1 18.9 28.1 18.8 28.2 18.6C28.3 18.5 28.3 18.4 28.4 18.3C28.5 18.2 28.5 18.1 28.5 17.9C28.8 17.5 29 17 29.3 16.6C29.3 16.3 29.4 16.1 29.6 15.9C29.8 15.7 30 15.6 30.2 15.5C30.5 15.2 30.6 14.7 31.2 14.6C31.3 14.4 31.4 14.2 31.6 14.1C31.8 14 32 13.9 32.2 13.8C32.4 13.7 32.5 13.6 32.7 13.5C32.8 13.4 33 13.3 33.2 13.2C33.3 13 33.5 13 33.7 12.9C33.9 12.9 34.1 12.8 34.2 12.7C34.6 12.7 34.8 12.5 35.1 12.4C35.2 12.3 35.4 12.3 35.5 12.2C35.6 12.2 35.8 12.2 35.9 12.2C36.2 12.1 36.4 12.1 36.6 12.1C37.9 11.7 38.7 11.9 38.7 12Z" fill="#67B02C"/>
<path d="M73.5 3.5C73.5 3.5 73.4 3.2 73.4 2.7C73.4 2.2 73.3 1.3 73.3 0.7C73.2 0.7 73.1 0.7 73 0.7C72.9 0.7 72.7 0.7 72.6 0.7C72.4 0.7 72.2 0.7 72 0.7C71.8 0.7 71.6 0.7 71.3 0.7C71.2 0.7 71.1 0.7 71 0.7C70.9 0.7 70.9 0.7 70.8 0.7C70.7 0.7 70.6 0.7 70.5 0.7C70.5 0.8 70.6 1 70.6 1.1C70.6 1.2 70.6 1.2 70.6 1.2C70.6 1.2 70.6 1.2 70.6 1.3C70.6 1.3 70.6 1.3 70.6 1.4C70.6 1.7 70.6 1.9 70.6 2.2C70.6 2.5 70.6 2.9 70.7 3.2C70.7 3.3 70.7 3.4 70.7 3.5V3.7H70.6C70.4 3.7 70.2 3.8 69.9 3.8C69.8 3.8 69.7 3.8 69.6 3.9C69.5 3.9 69.5 3.9 69.4 4C69.3 4 69.1 4.1 69 4.2C68.9 4.3 68.8 4.4 68.6 4.4C68.5 4.4 68.3 4.5 68.2 4.5C68.1 4.5 68 4.5 68 4.6C67.9 4.6 67.9 4.7 67.8 4.7C67.7 4.8 67.5 4.9 67.4 5L67.3 5.1L67 5.3C66.9 5.4 66.8 5.5 66.7 5.5C66.6 5.6 66.5 5.7 66.4 5.7L66.3 5.6H66C65.8 5.4 65.6 5.2 65.4 5C65.3 4.9 65.1 4.7 65 4.6C64.9 4.5 64.8 4.3 64.7 4.2C64.7 4.1 64.6 4.1 64.6 4H64.5C64.4 3.9 64.3 3.8 64.2 3.8C64.2 3.9 64.1 3.9 64.1 4C64 4 63.9 4 63.9 4.1H63.8L63.7 4.2C63.6 4.3 63.6 4.3 63.5 4.4C63.4 4.5 63.2 4.7 63.1 4.9L63 5V5.2C62.9 5.2 62.7 5.3 62.6 5.4C62.6 5.5 62.8 5.7 62.9 5.7H63L63.1 5.8C63.2 5.8 63.2 5.9 63.3 5.9C63.4 6 63.6 6.1 63.7 6.1C63.8 6.2 63.8 6.2 63.9 6.3C64 6.4 64.1 6.5 64.2 6.6C64.4 6.8 64.7 7.1 64.9 7.4V7.5L64.8 7.6L64.7 7.8C64.6 7.9 64.5 8.1 64.4 8.2L64.3 8.3C64.3 8.3 64.3 8.4 64.2 8.4L64 8.6C64 8.7 63.9 8.8 63.9 8.9C63.7 9.3 63.6 9.6 63.5 10C63.4 10.2 63.4 10.4 63.3 10.6V10.7L63.2 11C63.2 11.2 63.1 11.4 63.1 11.6C63.1 11.7 63.1 11.8 63.1 11.9V12.1H63C62.8 12.1 62.6 12.1 62.4 12.2C62.2 12.2 62 12.2 61.8 12.2H61.4C61.2 12.2 60.9 12.2 60.7 12.2H60.4C60.4 12.2 60.4 12.2 60.3 12.1C60.3 12.2 60.3 12.2 60.3 12.2V12.4C60.3 12.8 60.2 13.2 60.2 13.5V13.6C60.2 13.6 60.2 13.6 60.2 13.7V13.8C60.3 13.8 60.4 13.7 60.4 13.7C60.4 13.7 60.5 13.7 60.6 13.7C60.7 13.7 60.8 13.7 60.8 13.7C61 13.7 61.1 13.7 61.3 13.8H61.7C61.9 13.8 62.1 13.8 62.3 13.8C62.5 13.8 62.8 13.8 63 13.8H63.2V13.9L63.3 14.2C63.4 14.4 63.4 14.6 63.5 14.9V15.4L63.6 15.7C63.6 15.8 63.7 15.9 63.7 16C63.8 16.5 64 16.9 64.2 17.3V17.4L64.3 17.5C64.4 17.6 64.4 17.7 64.5 17.8C64.6 18 64.7 18.2 64.9 18.4L65 18.5L64.7 18.8C64.6 19 64.4 19.1 64.3 19.3L63.2 20.4C63 20.6 63.1 20.5 63 20.6C63 20.6 63 20.6 63 20.7C63 20.7 63 20.7 63.1 20.7C63.2 20.8 63.3 20.8 63.4 20.9C63.6 21 63.7 21.2 63.9 21.3L64.1 21.5C64.1 21.5 64.1 21.5 64.1 21.6C64.1 21.6 64.1 21.6 64.2 21.6C64.3 21.5 64.4 21.4 64.5 21.3C64.7 21.1 64.9 20.9 65.1 20.7L65.6 20.2L66 20L66.2 19.8C66.4 19.9 66.6 20.1 66.8 20.2C66.9 20.3 67 20.3 67.1 20.4L67.3 20.5C67.7 20.8 68.2 21 68.7 21.1C68.8 21.1 68.9 21.2 69.1 21.2C69.2 21.2 69.3 21.3 69.5 21.3H69.8L70.2 21.4C70.5 21.5 70.7 21.5 70.9 21.6V24.4C70.9 24.5 70.9 24.5 71 24.5C71 24.5 71 24.5 71.1 24.5H71.2C71.5 24.5 71.7 24.5 72 24.5H72.7C72.8 24.5 72.8 24.4 72.8 24.4C72.8 24.1 72.8 23.9 72.8 23.6V22.5C72.8 22.3 72.8 22 72.8 21.8V21.7H73.1L73.5 21.6C73.7 21.5 74 21.5 74.2 21.4H74.4C74.5 21.4 74.5 21.4 74.6 21.4L74.9 21.3C75 21.3 75.1 21.2 75.2 21.2C75.3 21.2 75.4 21.1 75.5 21.1C75.6 21.1 75.7 21 75.8 21C75.9 20.9 76 20.9 76.1 20.8C76.2 20.8 76.2 20.7 76.2 20.7L76.4 20.6C76.6 20.5 76.8 20.3 77 20.2L77.3 20L77.5 19.9L77.6 20C77.9 20.3 78.3 20.6 78.6 21C78.8 21.2 79 21.4 79.1 21.5C79.2 21.6 79.3 21.7 79.4 21.8C79.5 21.8 79.5 21.7 79.5 21.7L79.6 21.6C79.9 21.4 80.2 21.1 80.5 20.8C80.5 20.8 80.5 20.8 80.6 20.8L80.7 20.7C80.6 20.6 80.6 20.6 80.5 20.5L80.2 20.2C80.1 20.1 80 20 79.9 19.9C79.8 19.8 79.7 19.7 79.6 19.6C79.4 19.4 79.3 19.3 79.2 19.1L78.8 18.6L78.7 18.5L78.8 18.4L79 18.1C79.2 17.8 79.5 17.3 79.6 17.2C79.7 17 79.8 16.8 79.8 16.6C80 16.2 80.1 15.8 80.2 15.4C80.3 15.1 80.3 14.8 80.4 14.5C80.4 14.3 80.5 14.1 80.5 13.9V13.8C80.5 13.8 80.6 13.8 80.7 13.8H81C81.2 13.8 81.4 13.8 81.6 13.8H82.1C82.3 13.8 82.5 13.8 82.8 13.8C82.9 13.8 83 13.8 83.1 13.8H83.3C83.3 13.8 83.3 13.8 83.4 13.8C83.5 13.8 83.5 13.8 83.6 13.8C83.6 13.6 83.6 13.5 83.6 13.3C83.6 13.1 83.6 12.9 83.6 12.7V12.1C83.7 12 83.7 11.8 83.7 11.6C83.6 11.6 83.4 11.6 83.3 11.7H83.1C83 11.7 82.9 11.7 82.7 11.7C82.5 11.7 82.3 11.7 82.1 11.7H81.8C81.6 11.7 81.5 11.7 81.3 11.7C81.1 11.7 81 11.7 80.8 11.7H80.6V11.5C80.5 11.2 80.5 10.8 80.5 10.5L80.4 10.2C80.4 10.1 80.4 10 80.3 9.9C80.3 9.8 80.3 9.7 80.2 9.6C80.2 9.5 80.2 9.4 80.1 9.4C80.1 9.3 80 9.2 80 9.2C80 9.1 79.9 9 79.9 9C80.1 9.1 80 9.1 80 9C80 8.9 79.9 8.9 79.9 8.8C79.9 8.7 79.8 8.7 79.8 8.6V8.4C79.7 8.2 79.6 7.9 79.5 7.7L79.4 7.5V7.4C79.5 7.3 79.6 7.2 79.7 7.2C79.9 7 80 6.8 80.1 6.6C80.3 6 81.1 5.7 81 5.4V5.3C80.9 5.2 80.9 5.2 80.8 5.1V5L80.7 4.9C80.6 4.8 80.6 4.7 80.5 4.6C80.3 4.4 80.1 4.2 79.9 4C79.8 3.9 79.7 3.8 79.6 3.6L79.5 3.5C79.4 3.6 79.3 3.7 79.1 3.8C78.9 4 78.7 4.1 78.6 4.3C78.4 4.5 78.2 4.7 78 4.8C77.9 4.9 77.8 5 77.7 5.1C77.6 5.2 77.6 5.2 77.5 5.3L77.4 5.4C77.2 5.2 76.9 5.1 76.7 4.9C76.6 4.8 76.5 4.8 76.4 4.7C76.3 4.6 76.2 4.6 76.2 4.6C76.1 4.6 76 4.5 76 4.5C75.9 4.5 75.8 4.4 75.8 4.4C75.7 4.3 75.5 4.2 75.4 4.2C75 4.1 74.7 4 74.5 3.9C74.3 3.8 74.1 3.8 73.9 3.7C73.6 3.6 73.5 3.5 73.5 3.5C73.5 3.4 73.7 3.4 74 3.5C74.2 3.5 74.4 3.6 74.6 3.6C74.8 3.7 75.1 3.7 75.4 3.8C75.6 3.8 75.7 3.9 75.9 4C75.9 4 76 4 76.1 4C76.2 4 76.3 4.1 76.4 4.1C76.5 4.1 76.6 4.2 76.7 4.2C76.8 4.2 76.9 4.3 76.9 4.3C77 4.4 77.1 4.4 77.3 4.5L77.4 4.4C77.5 4.3 77.5 4.3 77.6 4.2C77.7 4.1 77.9 4 78 3.8C78.2 3.6 78.4 3.4 78.6 3.2C78.9 2.9 79.2 2.6 79.4 2.3C79.9 2.8 80.5 3.3 81.1 3.9C81.2 4 81.3 4 81.4 4.1L81.5 4.2H81.6C81.7 4.3 81.7 4.3 81.8 4.4C82.1 4.7 82.4 4.9 82.7 5.2C82.6 5.3 82.4 5.4 82.3 5.5C82.1 5.7 82 5.8 81.8 6C81.7 6.1 81.6 6.2 81.6 6.3L81.4 6.5C81.2 6.7 81 7 80.7 7.2C80.7 7.3 80.7 7.4 80.7 7.4C80.7 7.4 80.7 7.4 80.7 7.5C80.7 7.5 80.7 7.6 80.7 7.7V7.8L80.8 8L80.9 8.3C80.9 8.4 81 8.5 81 8.6C81 8.7 81.1 8.8 81.1 8.9C81.1 9 81.2 9.1 81.2 9.2C81.2 9.3 81.3 9.4 81.3 9.5C81.3 9.6 81.4 9.7 81.4 9.8C81.4 9.9 81.5 10 81.5 10.1C81.5 10.2 81.6 10.3 81.6 10.4L81.7 10.5V10.7C81.8 10.7 81.8 10.8 81.8 10.8H82.1C82.3 10.8 82.5 10.8 82.7 10.8C82.8 10.8 82.9 10.8 83.1 10.9H83.6C84 10.9 84.4 10.9 84.8 10.9C84.8 11.4 84.9 11.9 84.9 12.4V12.7C84.9 12.8 84.9 12.9 84.9 13C84.9 13.2 84.9 13.4 84.9 13.6V13.9C84.9 14.1 84.9 14.2 84.9 14.4C84.9 14.7 84.9 15.1 84.9 15.5C84.8 15.5 84.7 15.5 84.6 15.5C84.2 15.4 83.8 15.4 83.4 15.4H82.9C82.8 15.4 82.7 15.4 82.6 15.4C82.4 15.4 82.2 15.4 81.9 15.5H81.7V15.6C81.7 15.6 81.7 15.6 81.7 15.7C81.7 15.8 81.6 15.9 81.6 16.1C81.4 16.6 81.3 17 81.1 17.5C81 17.7 80.9 17.9 80.7 18.2C80.5 18.5 80.6 18.4 80.5 18.5H80.6C80.7 18.6 80.8 18.7 80.8 18.8C80.9 18.9 81 19 81.2 19.1L81.5 19.4C81.9 19.8 82.4 20.3 82.8 20.7C82.6 20.9 82.3 21.2 82.1 21.4C82 21.5 81.9 21.6 81.7 21.7L81.3 22.1C81.1 22.4 80.8 22.7 80.5 23C80 23.5 79.5 23.9 79.1 24.4C78.8 24.1 78.5 23.8 78.2 23.5L77.7 23.1C77.6 23 77.5 22.9 77.4 22.8C77.2 22.6 77 22.4 76.9 22.3C76.8 22.2 76.9 22.2 76.8 22.2L77 22C76.9 22 76.9 22.1 76.8 22.1C76.7 22.2 76.5 22.2 76.4 22.3C76.3 22.4 76.1 22.4 76 22.5C75.9 22.5 75.7 22.6 75.6 22.6L75.2 22.7C75.1 22.7 74.9 22.8 74.8 22.8C74.7 22.8 74.7 22.8 74.6 22.9H74.4V23.4C74.4 23.7 74.4 23.9 74.4 24.2C74.4 24.7 74.4 25.2 74.4 25.7C74.4 25.8 74.4 25.9 74.4 26C73.6 26 72.8 26 72 26C71.7 26 71.5 26 71.2 26C71 26 70.7 26 70.5 26C70.3 26 70 26 69.8 26C69.6 26 69.5 26 69.4 25.9C69.4 25.4 69.5 24.9 69.5 24.5V24C69.5 23.9 69.5 23.7 69.5 23.6C69.5 23.5 69.5 23.3 69.5 23.2V22.8L69.4 22.7H69.2C69.1 22.7 68.9 22.6 68.8 22.6C68.7 22.6 68.5 22.5 68.4 22.5C67.8 22.3 67.3 22 66.8 21.7H66.7C66.7 21.7 66.7 21.7 66.6 21.8C66.1 22.3 65.7 22.7 65.2 23.2C64.9 23.5 64.6 23.8 64.4 24.1C64.1 23.8 63.8 23.5 63.5 23.2L63.1 22.8L62.9 22.5C62.8 22.3 62.6 22.2 62.5 22C62 22 61.9 22 61.6 21.6C61.2 21.3 60.9 20.9 60.5 20.6C60.8 20.3 61.1 20.1 61.3 19.8C61.6 19.6 61.9 19.2 62 19.2C62.1 19.1 62.3 18.9 62.4 18.8C62.5 18.7 62.5 18.7 62.6 18.6L62.7 18.5L62.6 18.4C62.3 17.9 62.1 17.4 62 16.9C61.9 16.8 61.9 16.6 61.9 16.5C61.9 16.4 61.8 16.2 61.8 16.1V15.6H61.7C61.7 15.6 61.7 15.6 61.6 15.6C61.5 15.6 61.4 15.6 61.2 15.7C61 15.7 60.9 15.7 60.7 15.7H60.5C60.4 15.7 60.4 15.7 60.2 15.7C59.6 15.7 59 15.8 58.4 15.8C58.4 15.4 58.4 15.1 58.4 14.7C58.4 14.5 58.4 14.3 58.5 14.2C58.5 14.1 58.5 14 58.5 13.9V13.7C58.5 13.3 58.5 12.9 58.5 12.6V12.3C58.5 12.1 58.5 12 58.5 11.8C58.5 11.5 58.5 11.2 58.5 10.8C58.8 10.8 59.1 10.8 59.5 10.7C59.7 10.7 59.9 10.8 60.1 10.8H60.4C60.5 10.8 60.5 10.8 60.6 10.8C60.8 10.8 61.1 10.8 61.3 10.8H61.8C61.8 10.8 61.8 10.8 61.8 10.7L61.9 10.5C62 10.3 62.1 10.1 62.1 9.8C62.3 9.4 62.4 8.9 62.6 8.5C62.6 8.4 62.7 8.3 62.7 8.2C62.7 8.1 62.8 8.1 62.8 8L62.9 7.9C62.9 7.9 62.9 7.8 62.8 7.8L62.7 7.7C62.6 7.6 62.6 7.6 62.5 7.5C62.4 7.4 62.3 7.3 62.1 7.2C62 7.1 62 7.1 61.9 7L62 6.5L61.9 6.4C61.6 6 61.3 5.7 60.9 5.3C61.2 5.1 61.4 4.8 61.6 4.5C61.7 4.4 61.8 4.3 62 4.2L62.2 4C62.3 3.9 62.5 3.7 62.6 3.6L62.8 3.4L63 3.1C63.2 2.9 63.5 2.7 63.7 2.5C63.8 2.2 64 2 64.1 1.8C64.5 2.1 64.9 2.6 65.2 3L65.4 3.2C65.4 3.3 65.5 3.3 65.5 3.4C65.6 3.5 65.7 3.6 65.8 3.8C65.9 3.8 66 3.9 66 3.9L66.1 4C66.2 4 66.2 4.1 66.3 4.1C66.3 4.1 66.3 4.1 66.4 4.1C66.4 4.1 66.4 4.1 66.5 4.1C66.5 4.1 66.5 4.1 66.6 4.1C66.6 4.1 66.6 4.1 66.7 4.1C66.8 4 67 3.9 67.1 3.8C67.2 3.8 67.3 3.7 67.3 3.7C67.4 3.7 67.5 3.6 67.5 3.6C67.7 3.5 67.8 3.5 68 3.5C68.2 3.5 68.3 3.4 68.5 3.4C68.7 3.4 68.8 3.3 69 3.3C69.1 3.3 69.2 3.3 69.2 3.2H69.3C69.4 3.2 69.4 3.2 69.5 3.1C69.5 3.1 69.5 3.1 69.6 3V2.9C69.6 2.8 69.5 2.7 69.5 2.7C69.5 2.6 69.5 2.4 69.5 2.3C69.5 2 69.6 1.8 69.6 1.5C69.7 1 69.7 0.5 69.6 0.1C69.8 0.1 70 0.1 70.2 0.1C70.4 0.1 70.5 0.1 70.7 0.1C71 0 71 0 71.1 0C71.2 0 71.2 0 71.3 0C71.5 0 71.7 0 72 0.1C72.5 0.1 73 0.1 73.4 0.1C73.6 0.1 73.7 0.1 73.9 0.1C73.9 0.4 73.9 0.7 73.9 1C73.9 1.1 73.9 1.3 73.9 1.4C73.9 1.5 73.9 1.6 73.9 1.7C73.9 2.1 73.9 2.4 73.8 2.7C73.6 3.2 73.6 3.5 73.5 3.5Z" fill="#67B02C"/>
<path d="M71.8 8C71.8 8.1 71.7 8.1 71.6 8.2C71.5 8.2 71.4 8.3 71.3 8.3C71.2 8.3 71.1 8.4 70.9 8.4C70.8 8.4 70.7 8.5 70.6 8.5C70.6 8.5 70.5 8.6 70.4 8.6C70.3 8.6 70.3 8.7 70.2 8.7C70.1 8.6 70.2 9 70 8.9C69.9 8.9 69.7 9 69.6 9.1C69.5 9.2 69.3 9.2 69.2 9.4C69.2 9.6 69.1 9.5 69 9.5C68.9 9.5 68.8 9.5 68.8 9.7C68.8 9.8 68.7 9.8 68.7 9.9C68.6 10 68.6 10 68.5 10.1C68.4 10.1 68.3 10.2 68.3 10.3C68.3 10.4 68.3 10.5 68.2 10.6C67.9 10.6 67.9 10.9 68 11.1C67.8 11.1 67.7 11.2 67.7 11.3C67.7 11.4 67.7 11.5 67.8 11.7C67.8 11.8 67.7 11.9 67.7 12C67.7 12 67.7 12.1 67.7 12.2C67.7 12.3 67.7 12.3 67.7 12.4C67.7 12.5 67.7 12.6 67.7 12.7C67.7 12.8 67.7 12.9 67.7 13C67.8 13.1 67.9 13.2 67.9 13.3C67.9 13.4 67.9 13.4 67.9 13.5C67.9 13.6 67.9 13.6 67.8 13.7C68.1 13.9 68 14.1 68 14.4C68 14.5 68.1 14.6 68.1 14.7C68.2 14.8 68.3 14.9 68.2 15C68.2 15.1 68.3 15.2 68.4 15.3C68.5 15.4 68.5 15.5 68.6 15.6C68.6 15.7 68.6 15.7 68.7 15.8C68.7 15.9 68.8 15.9 68.8 16L68.9 16.1C69 16.1 69 16.1 69.1 16.1C69.2 16.2 69.3 16.2 69.4 16.3C69.5 16.4 69.6 16.5 69.7 16.6C70 16.5 70.2 16.7 70.4 16.9C70.5 16.9 70.6 17 70.7 17.1C70.8 17.1 70.9 17.2 71.1 17.2C71.2 17.2 71.4 17.2 71.5 17.2C71.6 17.2 71.8 17.2 71.9 17.2C72 17.2 72.2 17.3 72.3 17.3C72.4 17.3 72.6 17.3 72.7 17.2C72.8 17.1 72.9 17.1 73.1 17.1C73.2 17.1 73.4 17.1 73.5 17C73.7 17.1 73.8 17 73.9 16.9C74 16.8 74.1 16.7 74.2 16.7C74.3 16.6 74.4 16.6 74.5 16.5C74.6 16.4 74.7 16.4 74.8 16.2L74.9 16.1C74.9 16 75 16 75 16L75.2 15.8C75.1 15.6 75.2 15.5 75.3 15.5C75.4 15.4 75.6 15.4 75.6 15.3C75.7 15.2 75.8 15.1 75.8 15C75.8 14.9 75.8 14.8 75.9 14.7C75.9 14.6 76 14.5 76 14.4C76.1 14.3 76.1 14.2 76 14.1C76 14 76 14 76 13.9C76 13.8 76 13.8 76 13.7C76 13.6 76 13.5 76.1 13.4C76 13.3 76 13.2 76.1 13.1C76.1 13 76.2 12.9 76.1 12.8V12.5C76.1 12.4 76.1 12.3 76 12.2C76.1 12.1 76.1 12 76 11.9C75.9 11.8 75.8 11.8 75.8 11.7C75.8 11.5 75.5 11.5 75.6 11.2C75.6 11.1 75.5 11 75.5 10.9C75.5 10.8 75.4 10.7 75.3 10.7C75 10.1 75 9.9 75 9.8C75 9.7 74.9 9.6 74.7 9.7C74.6 9.7 74.6 9.6 74.6 9.5C74.6 9.4 74.5 9.3 74.4 9.4C74.1 9.5 74.2 9.2 74 9.1C73.9 9 73.8 9 73.7 8.9C73.2 8.6 72.7 8.4 72.4 8.3C72 8.2 71.8 8.1 71.8 8C71.8 8 71.9 7.9 72 7.9C72.1 7.9 72.3 7.8 72.5 7.8C73 7.8 73.7 7.9 74.5 8.2C74.7 8.3 74.9 8.2 75 8.5C75.1 8.6 75.2 8.6 75.3 8.6C75.4 8.6 75.5 8.7 75.5 8.8C75.7 8.8 75.8 8.8 75.8 8.9C75.9 9 75.9 9.1 76 9.2C76.1 9.3 76.1 9.4 76.2 9.5C76.3 9.6 76.3 9.7 76.4 9.8C76.7 9.9 76.6 10.2 76.8 10.4C76.8 10.7 76.9 10.9 77.1 11.1C77.1 11.3 77.1 11.4 77.2 11.5C77.2 11.6 77.3 11.6 77.3 11.7C77.3 11.8 77.3 11.8 77.4 11.9C77.3 12.1 77.3 12.2 77.3 12.3C77.3 12.4 77.4 12.6 77.5 12.7C77.6 12.8 77.5 13 77.5 13.1C77.5 13.2 77.5 13.2 77.5 13.3C77.5 13.4 77.5 13.4 77.5 13.5C77.4 13.8 77.4 14.1 77.3 14.4C77.3 14.6 77.3 14.7 77.2 14.9C77.1 15.1 77 15.2 76.9 15.3C76.9 15.5 76.8 15.6 76.7 15.7C76.6 15.8 76.5 16 76.4 16.1C76.4 16.2 76.3 16.3 76.3 16.3C76.2 16.4 76.2 16.4 76.1 16.5L75.9 17C75.8 17.1 75.8 17.1 75.7 17.2C75.6 17.3 75.4 17.4 75.3 17.5C75.1 17.6 75 17.7 74.9 17.9C74.6 18.1 74.3 18.2 74 18.4C73.8 18.4 73.7 18.5 73.5 18.5C73.3 18.5 73.2 18.6 73 18.7C72.8 18.6 72.6 18.6 72.4 18.6C72.2 18.6 72 18.7 71.9 18.8C71.7 18.8 71.5 18.8 71.3 18.8C71.1 18.8 70.9 18.7 70.8 18.7C70.6 18.7 70.4 18.6 70.3 18.6C70.1 18.6 70 18.5 69.8 18.4C69.6 18.4 69.5 18.3 69.3 18.2C69.1 18.1 69 18 68.8 17.9C68.6 17.9 68.5 17.7 68.4 17.6C68.3 17.5 68.2 17.3 68 17.3C67.9 17.3 67.8 17.2 67.8 17.2C67.7 17.1 67.7 17.1 67.6 17C67.5 16.9 67.5 16.9 67.4 16.8C67.4 16.7 67.3 16.6 67.3 16.6C67.2 16.5 67.1 16.3 67.1 16.1C67 15.9 67 15.8 66.8 15.7C66.7 15.6 66.5 15.5 66.5 15.3C66.4 15.2 66.4 15 66.5 14.8C66.4 14.7 66.4 14.5 66.4 14.3C66.4 14.1 66.4 14 66.3 13.9C66.4 13.8 66.4 13.7 66.4 13.7C66.4 13.6 66.4 13.6 66.4 13.5C66.4 13.4 66.3 13.2 66.3 13.1C66.3 13 66.4 12.8 66.4 12.7C66.4 12.6 66.4 12.4 66.4 12.3C66.4 12.2 66.4 12.2 66.4 12.1C66.4 12 66.4 12 66.5 11.9C66.6 11.8 66.6 11.7 66.7 11.5C66.7 11.3 66.8 11.2 66.9 11.1C67 11 67.1 10.9 67.1 10.8C67.2 10.6 67.3 10.3 67.5 10.2C67.4 10 67.5 9.9 67.6 9.8C67.7 9.7 67.9 9.7 68 9.6C68.1 9.5 68.1 9.4 68.2 9.3C68.2 9.2 68.3 9.1 68.5 9.2C68.5 9 68.6 8.9 68.7 8.9C68.8 8.9 68.9 8.9 69 8.8C69.2 8.7 69.3 8.5 69.5 8.5C69.5 8.4 69.6 8.3 69.7 8.4C69.8 8.4 69.9 8.4 70 8.4C69.8 8.1 69.9 8 70 8C70.1 8 70.1 7.9 70.2 7.9C70.3 7.9 70.3 7.9 70.4 7.9C70.5 7.9 70.6 7.9 70.8 7.9C71 7.9 71.1 7.9 71.2 7.9C71.3 7.9 71.4 7.9 71.5 8C71.7 7.9 71.8 8 71.8 8Z" fill="#67B02C"/>
<path d="M9.1 3.9C9.1 4 8.9 4 8.6 4.1C8.4 4.1 8.2 4.2 8 4.2C7.9 4.2 7.8 4.3 7.6 4.3C7.5 4.3 7.5 4.3 7.4 4.3C7.3 4.3 7.3 4.3 7.2 4.4C7 4.5 6.8 4.6 6.6 4.6C6.4 4.8 6.2 4.9 6 4.9C5.8 4.9 5.7 5 5.6 5.2C5.5 5.3 5.4 5.4 5.3 5.3C5.1 5.4 5 5.4 4.9 5.5C4.8 5.6 4.7 5.7 4.6 5.8C4.4 6 4 6.1 3.9 6.4C3.9 6.6 3.7 6.7 3.5 6.7C3.3 6.9 3.2 7 3.2 7.2C3.1 7.3 3 7.5 2.9 7.6C2.8 7.8 2.7 7.9 2.6 8.1C2.4 8.2 2.3 8.3 2.2 8.5C2.2 8.7 2.1 8.9 2.1 9.1C1.8 9.2 1.8 9.4 1.7 9.6C1.7 9.7 1.7 9.8 1.7 9.9C1.7 10 1.7 10.1 1.7 10.2C1.6 10.3 1.5 10.4 1.4 10.5L1.3 10.6C1.3 10.6 1.3 10.7 1.3 10.8C1.3 11 1.3 11.2 1.5 11.5C1.5 11.7 1.5 11.9 1.4 12.1C1.4 12.2 1.4 12.3 1.4 12.4C1.4 12.5 1.4 12.6 1.5 12.7C1.5 12.8 1.5 12.9 1.5 13C1.5 13.1 1.5 13.2 1.6 13.3C1.6 13.4 1.6 13.5 1.7 13.6V13.8C1.7 13.9 1.7 13.9 1.7 14C2 14.4 2.1 14.8 2.2 15.3C2.3 15.4 2.4 15.5 2.5 15.6C2.6 15.7 2.6 15.8 2.7 15.9C2.8 16 2.8 16.1 2.8 16.2C2.8 16.3 2.9 16.4 2.9 16.6C3 16.9 3.2 17.1 3.4 17.2C3.6 17.4 3.8 17.6 3.8 17.9C3.9 18.2 4.1 18.4 4.3 18.7C4.4 18.8 4.4 19 4.5 19.1C4.6 19.2 4.6 19.4 4.7 19.5V20C4.7 20.1 4.8 20.3 4.8 20.4C4.8 20.5 4.9 20.7 5 20.8C5.1 20.9 5.1 21.1 5.2 21.2C5.3 21.3 5.3 21.5 5.4 21.6L5.5 22C5.5 22.1 5.5 22.1 5.6 22.2C5.7 22.5 5.7 22.8 5.7 23.1C5.7 23.2 5.8 23.2 5.8 23.3V23.5C5.8 23.5 5.8 23.5 5.8 23.6V23.7C5.8 23.7 5.8 23.7 5.9 23.7C6.1 23.7 6.2 23.7 6.4 23.7C6.7 23.7 7 23.7 7.3 23.7C7.9 23.7 8.5 23.6 9.2 23.7C9.8 23.8 10.4 23.9 11.1 23.7C11.4 23.6 11.7 23.6 12 23.7C12.2 23.7 12.3 23.7 12.5 23.7C12.5 23.8 12.6 23.8 12.6 23.8V23.4C12.6 23.3 12.6 23.2 12.6 23.2C12.6 22.9 12.7 22.6 12.8 22.3L12.9 22.1C12.9 22 12.9 22 13 21.9C13 21.7 13.1 21.6 13.1 21.4C13.1 21.2 13.1 21.1 13.2 20.9C13.2 20.8 13.3 20.6 13.3 20.5C13.3 20.4 13.4 20.2 13.5 20.1C13.6 20 13.6 19.8 13.7 19.7C13.7 19.5 13.7 19.4 13.8 19.2C13.9 19.1 14 18.9 14 18.8C14.2 18.6 14.4 18.4 14.5 18.1C14.7 17.9 14.9 17.7 15 17.4C15.1 17.2 15.3 16.9 15.4 16.7C15.5 16.5 15.7 16.3 15.8 16.1C15.9 16 16 15.9 16 15.8C16 15.7 16.1 15.6 16.1 15.5C16.3 15.1 16.3 14.6 16.6 14.2C16.6 14.1 16.6 14.1 16.6 14C16.6 13.9 16.6 13.9 16.6 13.8C16.6 13.7 16.7 13.6 16.7 13.5C16.7 13.4 16.8 13.3 16.8 13.2C16.8 13.1 16.8 13 16.8 12.9C16.8 12.8 16.8 12.7 16.8 12.6C16.8 12.5 16.8 12.4 16.8 12.3C16.8 12.1 16.8 11.9 16.8 11.7C16.9 11.5 16.9 11.3 16.8 11.1C16.8 11 16.8 11 16.8 11L16.7 10.9C16.7 10.8 16.6 10.7 16.6 10.6C16.6 10.5 16.6 10.4 16.5 10.3C16.5 10.2 16.4 10.1 16.4 10C16.4 9.9 16.3 9.8 16.3 9.7V9.6C16.3 9.6 16.3 9.5 16.3 9.4C16.2 9.2 16.2 9 16.1 8.8C16 8.6 15.9 8.5 15.8 8.3C15.7 8.1 15.7 7.9 15.6 7.8C15.6 7.7 15.5 7.6 15.5 7.6L15.4 7.5C15.4 7.5 15.3 7.5 15.2 7.5C15.1 7.4 15 7.2 14.9 7.1C14.8 6.9 14.7 6.8 14.5 6.8C14.3 6.8 14.2 6.7 14.1 6.5C14 6.4 13.9 6.2 13.8 6.1C13.7 6 13.6 5.9 13.4 5.8C13.3 5.7 13.2 5.6 13 5.6C12.9 5.5 12.7 5.5 12.6 5.4C12.3 5 12.2 5 12 4.9C11.9 4.8 11.7 4.8 11.6 4.7C11.5 4.7 11.4 4.6 11.2 4.6C11 4.5 10.7 4.4 10.6 4.4C10.4 4.4 10.2 4.3 10 4.3C9.9 4.3 9.8 4.3 9.8 4.2C9.7 4.2 9.7 4.2 9.6 4.2C9.5 4.2 9.4 4.2 9.3 4.1C9.1 4 9.1 4 9.1 3.9C9.1 3.9 9.2 3.8 9.4 3.8C9.5 3.8 9.7 3.8 9.8 3.8C10 3.8 10.2 3.8 10.4 3.8C10.5 3.8 10.6 3.8 10.8 3.8C10.9 3.8 11.1 3.8 11.2 3.9C11.3 3.9 11.5 4 11.6 4C11.7 4 11.9 4.1 12.1 4.1C12.7 4.3 13.4 4.6 14.1 5C14.4 5.2 14.8 5.2 15 5.6C15.1 5.7 15.3 5.8 15.5 5.9C15.6 6 15.8 6.2 15.9 6.4C16 6.4 16 6.4 16.1 6.5L16.2 6.6C16.3 6.7 16.3 6.8 16.4 6.8C16.5 7 16.6 7.2 16.7 7.4C16.8 7.6 16.9 7.8 17 8C17.1 8.2 17.2 8.4 17.3 8.6L17.4 8.7C17.4 8.7 17.5 8.8 17.5 8.9C17.5 9 17.6 9.1 17.6 9.2C17.6 9.3 17.7 9.4 17.7 9.5C17.7 9.6 17.8 9.7 17.8 9.8C17.8 9.9 17.8 10 17.8 10.2C17.8 10.3 17.8 10.3 17.8 10.4C17.8 10.5 17.8 10.5 17.8 10.6C17.8 10.8 17.9 11.1 18 11.3C17.9 11.6 18 11.8 18 12.1C18 12.2 18 12.4 18 12.5C18 12.6 18 12.8 18 12.9C17.9 13 17.9 13.2 17.9 13.3C17.9 13.4 17.9 13.6 17.8 13.7C17.8 13.8 17.8 14 17.8 14.1C17.8 14.2 17.8 14.2 17.8 14.3V14.5C17.8 15.1 17.5 15.6 17.3 16.1C17.2 16.2 17.2 16.4 17.1 16.5C17 16.6 17 16.8 16.9 16.9C16.8 17.2 16.6 17.4 16.5 17.6C16.4 17.9 16.3 18.1 16.1 18.3C16 18.5 15.8 18.7 15.6 18.9C15.5 19.1 15.4 19.4 15.2 19.6C15.1 19.7 15.1 19.8 15 19.9C15.1 20 15 20.1 15 20.3C15 20.4 14.9 20.6 14.9 20.7C14.9 20.8 14.8 20.9 14.8 21.1C14.8 21.2 14.7 21.3 14.7 21.5C14.6 21.6 14.6 21.8 14.6 21.9C14.6 22 14.5 22.2 14.5 22.3L14.4 22.5C14.4 22.6 14.4 22.6 14.3 22.7C14.2 23 14.2 23.2 14.3 23.5C14.3 23.6 14.3 23.6 14.3 23.7V23.9C14.3 24.2 14.2 24.4 14.2 24.7V25.5C13.9 25.5 13.6 25.5 13.4 25.5C13 25.5 12.5 25.5 12.1 25.5C11.8 25.5 11.5 25.5 11.2 25.5C10.6 25.2 10 25.4 9.3 25.5C8.7 25.6 8.1 25.5 7.4 25.5C7.1 25.5 6.8 25.5 6.5 25.5C6.1 25.5 5.6 25.5 5.2 25.5C4.9 25.5 4.6 25.5 4.3 25.5V24.7C4.3 24.4 4.3 24.1 4.3 23.9V23.7C4.3 23.6 4.3 23.6 4.3 23.5C4.2 23.2 4.2 23 4.2 22.7C4.2 22.6 4.2 22.6 4.2 22.5C4.2 22.4 4.2 22.4 4.2 22.3C4.2 22.2 4.1 22 4.1 21.9C4 21.8 4 21.6 3.9 21.5C3.8 21.4 3.8 21.3 3.8 21.1C3.8 21 3.7 20.8 3.7 20.7C3.7 20.6 3.6 20.4 3.6 20.3C3.1 20.1 3 20 3 19.9C3 19.8 2.9 19.7 2.9 19.5C2.8 19.3 2.7 19 2.4 18.9C2.2 18.7 2 18.5 1.8 18.3C1.6 18.1 1.5 17.9 1.5 17.5C1.3 17.3 1.2 17 1.1 16.8C1.1 16.6 1 16.5 1 16.4C0.9 16.3 0.9 16.1 0.8 16C0.8 15.7 0.7 15.4 0.6 15.2L0.4 15L0.3 14.8C0.2 14.7 0.2 14.5 0.2 14.4V14C0.2 13.9 0.2 13.7 0.2 13.6C0.2 13.5 0.2 13.3 0.2 13.2C0.2 13.1 0.2 12.9 0.1 12.8C0 12.7 0 12.6 0 12.5C0 12.4 0 12.2 0 12.1C0 11.8 0.1 11.6 0.1 11.3C0.1 11 0.1 10.8 0.2 10.6C0.2 10.5 0.2 10.5 0.3 10.4C0.3 10.3 0.3 10.3 0.4 10.2C0.4 10.1 0.5 10 0.4 9.8C0.4 9.7 0.5 9.6 0.5 9.5C0.5 9.4 0.6 9.3 0.6 9.2C0.7 9 0.8 8.8 0.9 8.6C0.8 8.3 0.9 8.1 1.1 7.9C1.3 7.7 1.5 7.6 1.6 7.4C1.7 7.2 1.8 7 1.9 6.8C2 6.7 2.1 6.5 2.3 6.5C2.3 6.3 2.5 6.1 2.6 6C2.8 5.8 3 5.8 3.2 5.7C3.5 5.5 3.6 5.1 4 5C4.1 4.8 4.2 4.8 4.4 4.7C4.6 4.7 4.7 4.6 4.8 4.5C5.1 4.5 5.3 4.2 5.6 4.2C5.9 4.1 6.2 4 6.4 4C6.6 3.9 6.9 3.9 7.1 3.9C7.2 3.9 7.3 3.9 7.3 3.9C7.4 3.9 7.4 3.9 7.5 3.9C7.6 3.9 7.8 3.9 7.9 3.9C8.1 3.9 8.3 3.9 8.5 3.9C8.9 3.8 9.1 3.9 9.1 3.9Z" fill="#67B02C"/>
<path d="M6.2 29.8C6.2 29.8 6.2 29.9 6 29.9C5.9 29.9 5.7 29.9 5.5 29.7C5.4 29.6 5.4 29.6 5.3 29.4V29.3C5.3 29.3 5.3 29.3 5.3 29.2C5.3 29.2 5.3 29.2 5.3 29.1C5.4 29 5 28.9 5.3 28.9C5.4 28.8 5.3 28.7 5.3 28.6C5.3 28.5 5.4 28.4 5.3 28.3C5.2 28.2 5.2 28.2 5.3 28.1C5.4 28 5.4 28 5.3 27.9C5.2 27.7 5.3 27.5 5.3 27.4C5.4 27.4 5.5 27.3 5.5 27.2V27.1C5.5 27.1 5.5 27 5.6 27C5.9 27.1 6 26.9 6.1 26.7C6.3 26.8 6.4 26.9 6.5 26.9C6.6 26.9 6.7 26.8 6.8 26.6H6.9C6.9 26.6 6.9 26.6 7 26.6H7.1C7.2 26.6 7.2 26.6 7.3 26.5C7.4 26.5 7.6 26.4 7.7 26.5C7.8 26.3 8 26.3 8.2 26.5C8.4 26.3 8.5 26.4 8.7 26.5C8.9 26.6 9 26.3 9.2 26.5C9.4 26.5 9.5 26.4 9.7 26.5C9.9 26.6 10 26.7 10.2 26.5C10.4 26.4 10.5 26.4 10.7 26.5C10.9 26.2 11.1 26.4 11.2 26.5C11.4 26.5 11.6 26.6 11.7 26.5H11.9H12C12.2 26.5 12.4 26.5 12.5 26.6C12.6 26.6 12.6 26.7 12.7 26.7C12.8 26.7 12.8 26.8 12.9 26.8C13 26.8 13 26.9 13.1 26.9C13.2 26.9 13.2 27 13.3 27C13.4 27 13.4 27.1 13.5 27.2C13.5 27.3 13.6 27.3 13.6 27.4V27.6C13.6 27.7 13.6 27.8 13.6 27.8C13.5 27.9 13.5 28 13.5 28.1V28.2C13.5 28.2 13.5 28.2 13.5 28.3C13.5 28.4 13.6 28.5 13.6 28.6C13.6 28.7 13.6 28.8 13.6 28.9C13.6 28.9 13.6 28.9 13.6 29V29.1C13.6 29.2 13.6 29.3 13.6 29.3C13.6 29.4 13.6 29.5 13.6 29.5V29.8C13.6 29.8 13.6 29.9 13.5 29.9C13.5 30 13.4 30 13.3 30.1C13.4 30.3 13.2 30.4 13.1 30.5C13 30.5 12.9 30.5 12.9 30.5C12.8 30.5 12.8 30.5 12.7 30.6C12.6 30.6 12.5 30.6 12.5 30.6C12.4 30.6 12.4 30.6 12.3 30.6C12.2 30.6 12 30.7 11.9 30.7C11.9 30.7 11.9 30.7 11.8 30.7C11.8 30.7 11.8 30.7 11.7 30.7H11.6C11.5 30.7 11.4 30.6 11.4 30.7C11.2 30.7 11.1 30.8 10.9 30.7C10.8 30.9 10.6 30.5 10.5 30.7C10.4 30.7 10.2 30.7 10.1 30.7C10 30.4 9.8 30.7 9.7 30.7C9.6 30.7 9.4 30.9 9.3 30.7C9.2 30.7 9.1 30.5 8.9 30.7C8.8 30.7 8.7 30.3 8.6 30.7C8.5 30.8 8.4 30.4 8.3 30.7C8.2 30.9 8.1 30.7 8 30.7C7.9 30.7 7.8 30.7 7.7 30.7C6.6 30.1 6.2 29.9 6.2 29.8C6.2 29.6 6.8 29.5 7.7 29.3C7.8 29.3 7.9 29.1 8 29.3C8.1 29.3 8.2 29.1 8.3 29.3C8.4 29 8.5 29.2 8.6 29.3C8.7 29.3 8.8 29.4 9 29.3C9.1 29.1 9.3 29.4 9.4 29.3C9.5 29.5 9.7 29.4 9.8 29.3C9.9 29.5 10.1 29.3 10.2 29.3C10.3 29.6 10.5 29.4 10.6 29.3C10.7 29.2 10.9 29.3 11.1 29.3C11.2 29.3 11.3 29.3 11.3 29.3H11.4C11.4 29.3 11.4 29.3 11.5 29.3C11.5 29.2 11.5 29.1 11.6 29.3C11.6 29.2 11.6 29.3 11.7 29.2C11.7 29.2 11.7 29.2 11.7 29.1C11.7 29.1 11.7 29.1 11.7 29C11.7 28.9 11.7 28.8 11.6 28.7C11.6 28.6 11.6 28.5 11.6 28.4C11.6 28.4 11.7 28.3 11.6 28.3C11.7 28.2 11.7 28.1 11.7 28.1L11.6 28.2H11.5C11.3 28.2 11.1 28.2 11 28.2C10.8 28.3 10.6 28.1 10.5 28.2C10.3 28.3 10.2 28.1 10 28.2C9.8 28.3 9.7 28.3 9.5 28.2C9.3 28.2 9.2 27.9 9 28.2C8.8 28.3 8.7 28.6 8.5 28.2C8.3 28.3 8.2 28 8 28.2C7.8 27.9 7.7 28.2 7.5 28.2C7.4 28.1 7.2 28.1 7.1 28.2C7 28.3 7 28.2 6.9 28.2H6.8C6.8 28.2 6.8 28.2 6.7 28.2C6.7 28.3 6.7 28.2 6.6 28.2C6.6 28.2 6.5 28.1 6.5 28.2C6.4 28.2 6.4 28.2 6.4 28.2C6.4 28 6.4 28 6.4 28C6.3 28 6.2 27.9 6.2 27.9C6.2 27.9 6.2 28 6.3 28C6.3 28 6.3 28 6.2 28C6.3 28 6.4 28.1 6.3 28.1L6.2 28.2C6.1 28.3 6.3 28.4 6.2 28.5C6.4 28.6 6.1 28.7 6.2 28.8C5.9 29 6 29 6 29.1C6 29.1 6 29.1 6 29.2C6 29.2 6 29.2 6 29.3C6 29.3 6 29.3 6 29.4C6 29.5 6.1 29.6 6.1 29.7C6.1 29.6 6.2 29.7 6.2 29.8Z" fill="#67B02C"/>
<path d="M11.4 29.8C11.4 29.9 11.3 30 11 30.1H10.9C10.9 30.1 10.8 30.2 10.7 30.1C10.6 30 10.6 30.4 10.5 30.1C10.4 30 10.4 30.1 10.3 30.1C10.2 30.1 10.2 30 10.1 30.1C10 30.4 10 29.8 9.9 30.1C9.8 30.2 9.7 30.2 9.7 30.1C9.6 29.9 9.5 30.1 9.5 30.1C9.4 29.8 9.3 30 9.2 30.1C9.1 29.8 9 29.8 8.9 30.1C8.8 30.1 8.7 30 8.6 30.1C8.5 30.1 8.4 30.2 8.3 30.1C8.2 30.3 8.1 30.3 8 30.1C8 30.3 8 30.2 7.9 30.1C7.9 30.1 7.9 30.2 7.8 30.1C7.7 30 7.7 30 7.6 30C7.6 30 7.6 30 7.7 30.1L7.8 30.2C7.8 30.2 7.8 30.2 7.7 30.2C8 30.8 8 30.8 8 30.8C8 30.8 7.9 30.8 7.8 30.8C7.8 30.8 7.8 30.8 7.9 30.8L7.8 30.9C7.8 30.9 7.8 30.9 7.9 30.9C8.1 30.9 8 31.1 8.1 31.1C8 31.2 8.1 31.2 8.2 31.2C8.3 31.2 8.3 31.2 8.3 31.2C8.4 31.2 8.4 31.4 8.5 31.3C8.6 31.3 8.7 31.3 8.7 31.4C8.8 31.2 8.8 31.3 8.8 31.3C8.8 31.4 8.8 31.5 8.9 31.4C9 31.6 9 31.4 9.1 31.4C9.2 31.3 9.3 31.6 9.3 31.4C9.4 31.4 9.4 31.3 9.5 31.4C9.5 31.3 9.5 31.3 9.6 31.4C9.6 31.4 9.7 31.5 9.7 31.4C9.8 31.4 9.8 31.3 9.9 31.3C10.1 31.5 10 31.3 10.1 31.2C10.2 31.2 10.1 31 10.3 31.1C10.4 31.1 10.5 31.1 10.5 31C10.5 31 10.6 31 10.7 31C10.8 31 10.8 31 10.7 30.9C10.7 30.8 11 31 10.8 30.8C10.6 30.6 10.9 30.7 10.9 30.7L11 30.6C11.1 30.2 11.3 29.9 11.4 29.8C11.5 29.8 11.6 29.9 11.6 30.1C11.7 30.3 11.7 30.6 11.6 31C11.6 31.1 11.7 31.2 11.5 31.2C11.5 31.3 11.5 31.4 11.4 31.4C11.6 31.6 11.3 31.6 11.3 31.7C11.2 31.8 11.1 31.8 11.1 32C11.1 32.2 10.9 32.1 10.9 32.2C10.7 32.1 10.7 32.2 10.6 32.4C10.4 32.3 10.4 32.6 10.3 32.6C10.1 32.4 10 32.6 9.9 32.8C9.8 32.9 9.6 32.8 9.5 32.9C9.4 32.9 9.2 33 9.1 33C9 33.1 8.8 33.2 8.6 33C8.4 33.1 8.3 33 8.1 32.9C7.9 33 7.8 32.8 7.6 32.7C7.5 32.7 7.5 32.6 7.4 32.5C7.4 32.4 7.3 32.4 7.1 32.5C6.9 32.4 6.9 32.3 6.7 32.2C6.6 32.1 6.5 31.9 6.4 31.8C6.5 31.7 6.4 31.5 6.3 31.5C6.2 31.4 6.1 31.4 6 31.3C6.1 31.3 6 31 6 30.8C5.9 30.6 5.9 30.4 5.9 30.2C5.8 30.1 5.9 30 5.9 29.9C5.9 29.8 5.9 29.7 5.9 29.6C5.8 29.5 5.9 29.4 5.9 29.3V29.2C5.9 29.2 5.9 29.2 5.9 29.1C6 29 6.1 29 6.4 29.1C6.5 29.1 6.6 29.1 6.7 29.2C6.8 29.2 6.9 29.2 6.9 29.1C7 29.1 7 29 7.1 28.9C7.2 28.9 7.3 28.9 7.4 29C7.5 28.9 7.6 29 7.7 29C7.8 29 7.9 29.1 8 29C8.1 29.3 8.2 29 8.3 29C8.4 29.1 8.5 29.2 8.6 29C8.7 28.9 8.8 29.1 8.9 29C9 28.8 9.1 29.2 9.2 29C9.3 29 9.4 29 9.5 29C9.6 28.6 9.7 29 9.7 29C9.8 29.1 9.9 28.8 9.9 29C10 28.7 10 29 10.1 29C10.2 29.1 10.2 28.9 10.3 29C10.4 28.8 10.4 29.1 10.5 29C10.6 29.1 10.6 29 10.7 29C10.8 29 10.8 29 10.9 29H11C11.3 29.6 11.4 29.7 11.4 29.8Z" fill="#67B02C"/>
<path d="M5.8 24.6C5.8 24.7 5.7 24.7 5.7 24.8C5.6 24.9 5.6 25 5.6 25.1V25.3C5.5 25.4 5.9 25.5 5.6 25.6C5.5 25.7 5.6 25.8 5.6 25.9C5.6 26 5.5 26.1 5.6 26.2C5.7 26.2 5.7 26.2 5.6 26.3C5.5 26.3 5.5 26.4 5.6 26.4C5.7 26.4 5.7 26.5 5.7 26.5C5.6 26.6 5.6 26.6 5.7 26.6C5.7 26.6 5.8 26.6 5.8 26.5C5.7 26.6 5.8 26.7 5.8 26.7C5.8 26.7 5.9 26.6 5.9 26.5C5.9 26.7 5.9 26.7 6 26.7C6.1 26.7 6.1 26.6 6.2 26.4C6.3 26.4 6.5 26.5 6.7 26.4C6.9 26.4 7 26.3 7.2 26.4C7.4 26.2 7.5 26.2 7.7 26.4C7.9 26.2 8 26.3 8.2 26.4C8.4 26.5 8.5 26.2 8.7 26.4C8.9 26.4 9.1 26.3 9.2 26.4C9.4 26.5 9.6 26.6 9.8 26.4C10 26.3 10.2 26.3 10.4 26.4C10.6 26.1 10.8 26.3 11 26.4C11.2 26.4 11.4 26.5 11.6 26.4C11.7 26.4 11.8 26.4 11.8 26.4L11.9 26.5C11.9 26.5 11.9 26.5 11.9 26.4C11.8 26.3 11.8 26.3 11.9 26.3C12 26.3 12 26.3 12 26.3V26.2C12 26.1 11.9 26 11.9 25.9C11.9 25.8 11.9 25.7 11.9 25.7C11.9 25.7 11.8 25.7 11.9 25.6C11.7 25.8 11.8 25.7 11.8 25.7C11.8 25.6 11.8 25.5 11.8 25.6C11.8 25.5 11.8 25.5 11.7 25.5C11.6 25.5 11.5 25.6 11.4 25.5C11.2 25.6 11.1 25.3 10.9 25.5C10.7 25.5 10.6 25.6 10.4 25.5C10.2 25.7 10.1 25.3 9.9 25.5C9.7 25.5 9.6 25.5 9.4 25.5C9.3 25.2 9.1 25.4 9 25.5C8.9 25.5 8.7 25.7 8.6 25.5C8.5 25.5 8.3 25.3 8.2 25.5C8.1 25.5 8 25.1 7.8 25.5C7.7 25.6 7.6 25.2 7.5 25.5C7.4 25.7 7.3 25.5 7.2 25.5C7.1 25.5 7 25.5 6.9 25.5C6.3 24.9 5.8 24.7 5.8 24.6C5.8 24.4 6.4 24.3 7.4 24.1C7.5 24.1 7.6 23.9 7.7 24.1C7.8 24.1 7.9 23.9 8 24.1C8.1 23.8 8.2 24.1 8.4 24.1C8.5 24.1 8.7 24.2 8.8 24.1C8.9 23.9 9.1 24.2 9.2 24.1C9.3 24.3 9.5 24.2 9.6 24.1C9.7 24.3 9.9 24.1 10.1 24.1C10.3 24.4 10.4 24.2 10.6 24.1C10.8 24 10.9 24.1 11.1 24.1C11.3 24.1 11.4 24 11.6 24.1C11.7 24 11.8 24 11.9 24C12.1 24 12.2 24 12.4 24.1C12.8 24 13 24.2 13.3 24.4C13.5 24.5 13.6 24.6 13.6 24.7C13.6 24.8 13.7 24.9 13.7 24.9C13.7 25 13.7 25.1 13.8 25.1C13.8 25.3 13.8 25.5 13.8 25.6C13.8 25.8 13.8 25.9 13.9 26C13.9 26.1 13.9 26.2 13.9 26.3V26.4C13.9 26.5 13.9 26.6 13.9 26.7V27C13.9 27.1 13.9 27.2 13.9 27.3V27.5C13.9 27.6 13.8 27.7 13.8 27.7C13.6 27.8 13.5 27.8 13.3 27.9C13.2 28 13.1 28.1 12.9 28.2C12.6 28.3 12.1 28.3 12 28.2C11.8 28.2 11.6 28.2 11.4 28.2C11.2 28.3 11 28.1 10.8 28.2C10.6 28.3 10.4 28.1 10.2 28.2C10 28.3 9.8 28.3 9.6 28.2C9.4 28.2 9.2 27.9 9.1 28.2C8.9 28.3 8.7 28.6 8.6 28.2C8.4 28.3 8.3 28 8.1 28.2C7.9 27.9 7.8 28.2 7.6 28.2C7.4 28.1 7.3 28.1 7.1 28.2C6.9 28.3 6.8 28.1 6.6 28.2C6.5 28.3 6.5 28.2 6.4 28.2C6.4 28.2 6.4 28.2 6.3 28.2H6.2C6.1 28.2 6.1 28.2 6 28.2C5.9 28.2 5.8 28.2 5.7 28.2C5.6 28.2 5.6 28.2 5.5 28.2L5.4 28.1C5.3 28.2 5.2 28.2 5.2 28.1C5.1 28.1 5.1 28 5.1 28C5 27.9 5.1 27.7 5 27.7C5 27.7 5 27.6 4.9 27.6L4.7 27.4V27.3C4.7 27.3 4.7 27.2 4.8 27.2C4.7 27.2 4.6 27 4.7 26.9C4.7 26.8 4.8 26.7 4.8 26.6C4.9 26.5 4.7 26.4 4.8 26.3C4.6 26.2 4.9 26.1 4.8 26C4.9 25.9 4.8 25.8 4.8 25.7V25.6C4.8 25.6 4.8 25.6 4.8 25.5V25.3C5 24.8 5 24.8 5 24.7C5.2 24.5 5.4 24.4 5.6 24.4C5.7 24.5 5.8 24.5 5.8 24.6Z" fill="#67B02C"/>
<path d="M8 24.6C7.9 24.6 7.8 24.5 7.7 24.2C7.7 24.2 7.7 24.1 7.6 24.1C7.6 24.1 7.5 24 7.5 23.9C7.6 23.8 7.2 23.8 7.4 23.7C7.5 23.6 7.4 23.6 7.3 23.5C7.2 23.4 7.4 23.4 7.2 23.3C6.9 23.3 7.5 23.1 7.1 23.1C7 23 7 22.9 7 22.9C7.2 22.8 7 22.7 6.9 22.6C7.1 22.5 7 22.4 6.8 22.3C7.1 22.2 7.1 22.1 6.7 22C6.7 21.9 6.8 21.8 6.6 21.7C6.6 21.6 6.5 21.5 6.5 21.4C6.3 21.3 6.3 21.2 6.4 21.1C6.1 21 6.2 20.9 6.3 20.8C6.4 20.7 6.1 20.6 6.2 20.5C6.2 20.4 6.1 20.3 6.1 20.2C6.2 20.1 6.3 19.9 6 19.8C5.9 19.7 5.8 19.6 5.9 19.4C5.6 19.3 5.7 19.2 5.8 19C5.7 18.9 5.9 18.7 5.7 18.6C5.7 18.5 5.6 18.4 5.6 18.2C5.7 18.1 5.7 17.9 5.6 17.8C5.4 17.7 5.6 17.5 5.6 17.4C5.8 17.2 5.5 17.2 5.6 17C5.6 16.9 5.7 16.7 5.6 16.6C5.5 16.5 5.5 16.4 5.6 16.2C5.2 16.1 5.7 16 5.6 15.8C5.7 15.7 5.5 15.6 5.6 15.5C5.5 15.4 5.7 15.3 5.6 15.2C5.6 15.1 5.5 15 5.6 14.9C5.4 14.8 5.7 14.7 5.6 14.6C5.6 14.5 5.6 14.4 5.6 14.3C5.9 14.2 5.6 14.1 5.6 14C5.6 13.9 5.4 13.8 5.6 13.7C5.6 13.6 5.7 13.5 5.6 13.4C5.5 13.3 6 13.2 5.6 13.2C5.5 13.1 5.9 13 5.6 13C5.4 13 5.6 12.9 5.6 12.8C5.6 12.7 5.6 12.7 5.6 12.6C5.7 12 5.8 11.7 5.9 11.7C6.1 11.7 6.3 12 6.5 12.7C6.5 12.8 6.7 12.8 6.6 12.9C6.6 13 6.8 13 6.7 13.1C7 13.1 6.8 13.3 6.8 13.3C6.8 13.4 6.7 13.5 6.9 13.6C7.1 13.7 6.8 13.8 7 13.9C6.8 14 6.9 14.1 7.1 14.2C6.9 14.3 7.2 14.4 7.2 14.5C7 14.6 7.2 14.7 7.3 14.8C7.4 14.9 7.3 15 7.4 15.1C7.4 15.2 7.5 15.3 7.5 15.4C7.6 15.5 7.7 15.6 7.6 15.7C7.7 15.8 7.6 15.9 7.7 16C7.8 16.1 7.7 16.2 7.8 16.4C7.9 16.5 7.6 16.7 7.9 16.8C8 16.9 7.9 17.1 8 17.2C8 17.3 8 17.5 8.1 17.6C7.8 17.8 8 17.9 8.2 18C8.3 18.1 8.3 18.3 8.2 18.4C8.2 18.5 8.2 18.7 8.2 18.8C8.3 18.9 8.1 19.1 8.2 19.2C8.3 19.3 8.1 19.5 8.2 19.6C8.3 19.7 8.4 19.8 8.2 20C8.2 20.1 8 20.3 8.2 20.4C8.3 20.5 8.6 20.6 8.2 20.7C8.3 20.8 8 20.9 8.2 21C7.9 21.1 8.2 21.2 8.2 21.3C8.2 21.4 8.1 21.5 8.2 21.6C8.3 21.7 8.2 21.8 8.2 21.9C8.4 22 8 22.1 8.2 22.2C8.2 22.3 8.2 22.4 8.2 22.5C8.6 22.5 8.2 22.7 8.2 22.8C8.2 22.9 8.5 22.9 8.2 23C8.5 23 8.3 23.1 8.2 23.2C8.1 23.3 8.3 23.3 8.2 23.4C8.4 23.4 8.1 23.5 8.2 23.6C8.1 23.7 8.2 23.7 8.2 23.8C8.3 23.8 8.2 23.9 8.2 24C8.2 24.1 8.2 24.1 8.2 24.1C8.2 24.4 8.1 24.6 8 24.6Z" fill="#67B02C"/>
<path d="M10.1 24.6C10 24.6 9.9 24.4 9.9 24.2V24.1C9.9 24 9.9 24 9.9 23.9C10 23.9 9.7 23.8 9.9 23.7C10 23.6 9.9 23.6 9.9 23.5C9.9 23.4 10 23.4 9.9 23.3C9.6 23.2 10.2 23.2 9.9 23.1C9.8 23 9.9 22.9 9.9 22.9C10.1 22.8 9.9 22.7 9.9 22.6C10.2 22.5 10.1 22.4 9.9 22.3C10.3 22.3 10.2 22.2 9.9 22C9.9 21.9 10 21.8 9.9 21.7C9.9 21.6 9.8 21.5 9.9 21.4C9.7 21.3 9.7 21.2 9.9 21.1C9.7 21 9.8 20.9 9.9 20.8C10 20.7 9.7 20.5 9.9 20.5C9.9 20.4 9.9 20.3 9.9 20.1C10 20 10.1 19.9 9.9 19.7C9.9 19.6 9.8 19.4 9.9 19.3C9.7 19.1 9.8 19 9.9 18.9C9.9 18.8 10.1 18.7 9.9 18.5C10 18.4 9.8 18.2 9.9 18.1C10 18 10.1 17.9 10 17.7C9.9 17.6 10.1 17.5 10.1 17.3C10.4 17.2 10.1 17 10.2 16.9C10.2 16.8 10.4 16.7 10.3 16.5C10.3 16.4 10.2 16.2 10.4 16.1C10 15.9 10.5 15.9 10.5 15.8C10.7 15.7 10.5 15.6 10.6 15.5C10.5 15.4 10.8 15.3 10.7 15.2C10.7 15.1 10.6 15 10.8 14.9C10.6 14.8 11 14.7 10.9 14.6C10.9 14.5 10.9 14.4 11 14.3C11.3 14.2 11.1 14.1 11.1 14C11.1 13.9 11 13.8 11.2 13.7C11.2 13.6 11.4 13.5 11.3 13.4C11.3 13.3 11.7 13.3 11.4 13.2C11.3 13.1 11.7 13.1 11.5 13C11.3 12.9 11.5 12.9 11.6 12.8C11.6 12.7 11.6 12.7 11.7 12.6C11.9 12.1 12.1 11.8 12.2 11.8C12.4 11.8 12.5 12.2 12.5 12.9C12.5 13 12.7 13.1 12.5 13.1C12.5 13.2 12.6 13.3 12.5 13.3C12.8 13.4 12.5 13.5 12.5 13.5C12.5 13.6 12.4 13.7 12.5 13.8C12.6 13.9 12.4 14 12.5 14.1C12.3 14.2 12.4 14.3 12.5 14.4C12.3 14.5 12.5 14.6 12.5 14.7C12.2 14.8 12.4 14.9 12.5 15C12.6 15.1 12.4 15.2 12.5 15.3C12.4 15.4 12.5 15.5 12.5 15.6C12.6 15.7 12.6 15.8 12.5 15.9C12.6 16 12.5 16.1 12.5 16.3C12.6 16.4 12.5 16.5 12.5 16.7C12.5 16.8 12.2 16.9 12.5 17.1C12.5 17.2 12.4 17.3 12.5 17.5C12.5 17.6 12.4 17.7 12.5 17.9C12.2 18 12.4 18.1 12.5 18.3C12.6 18.4 12.5 18.6 12.4 18.7C12.4 18.8 12.4 19 12.3 19.1C12.4 19.2 12.2 19.3 12.2 19.5C12.3 19.6 12 19.7 12.1 19.9C12.2 20 12.2 20.2 12 20.3C12 20.4 11.7 20.5 11.9 20.6C11.9 20.7 12.2 20.9 11.8 20.9C11.9 21 11.6 21.1 11.7 21.2C11.4 21.3 11.7 21.4 11.6 21.5C11.5 21.6 11.4 21.7 11.5 21.8C11.6 21.9 11.4 22 11.4 22.1C11.5 22.2 11.2 22.3 11.3 22.4C11.3 22.5 11.3 22.6 11.2 22.7C11.6 22.8 11.2 22.9 11.1 23C11 23.1 11.3 23.2 11 23.2C11.3 23.3 11 23.4 10.9 23.4C10.8 23.5 11 23.6 10.8 23.6C11 23.7 10.7 23.7 10.7 23.8C10.6 23.8 10.7 23.9 10.6 24C10.6 24.1 10.6 24.1 10.5 24.2C10.5 24.2 10.5 24.3 10.4 24.3C10.3 24.5 10.2 24.6 10.1 24.6Z" fill="#67B02C"/>
</svg>
