<svg width="62" height="64" viewBox="0 0 62 64" fill="none" xmlns="http://www.w3.org/2000/svg">
<path d="M6.06317 24.3163C6.06317 24.3163 5.98831 24.3911 5.76375 24.3911C5.6889 24.3911 5.6889 24.3911 5.61404 24.3911C5.53919 24.3911 5.46434 24.3911 5.38948 24.3911C5.23977 24.3911 5.09007 24.466 4.8655 24.466C4.79065 24.466 4.64094 24.5408 4.56609 24.5408C4.56609 24.6904 4.41638 24.6904 4.34153 24.7652C4.26667 24.7652 4.11697 24.8401 4.04211 24.9149C3.96726 24.9149 3.8924 24.9897 3.8924 24.9897C3.81755 24.9897 3.7427 25.0645 3.7427 25.0645C3.29357 25.3638 2.76959 25.7379 2.32047 26.3365C2.02106 26.7106 1.79649 27.1595 1.64679 27.6832C1.49708 27.8328 1.49708 27.9825 1.49708 28.0573C1.49708 28.2069 1.42222 28.3566 1.42222 28.5062V28.6559C1.42222 28.7307 1.42222 28.8055 1.42222 28.8803C1.42222 29.03 1.42222 29.1796 1.42222 29.3292C1.19766 30.0026 1.49708 30.676 1.34737 31.4242C1.27252 32.0976 1.27252 32.8457 1.34737 33.6688C1.34737 34.417 1.27252 35.24 1.34737 36.063C1.49708 36.886 1.04795 37.7838 1.27252 38.6817C1.27252 39.5795 1.27252 40.4773 1.19766 41.45C1.04795 42.4226 1.12281 43.3953 1.12281 44.3679C0.898247 45.3406 0.973101 46.3881 1.04795 47.4355C0.898247 47.9593 0.823393 48.483 0.823393 49.0068C0.823393 49.5305 0.973101 50.0542 1.27252 50.4283C1.42222 50.8772 1.64679 51.3262 1.9462 51.7751C2.24562 52.1492 2.69474 52.5233 3.14386 52.7477C3.59299 53.047 4.11696 53.1966 4.56609 53.2715C4.7158 53.2715 4.79065 53.3463 4.94036 53.3463H5.16492C5.23977 53.3463 5.31463 53.3463 5.38948 53.3463C5.6889 53.3463 5.98831 53.3463 6.28773 53.4211C7.48539 53.2715 8.75791 53.3463 9.95557 53.4959C11.2281 53.3463 12.5006 53.4211 13.7731 53.5707C15.0456 53.7204 16.393 53.4959 17.6655 53.6456C19.0129 53.7204 20.3603 53.6456 21.7076 53.7204C23.055 53.7952 24.4772 53.9448 25.8246 53.7952C27.2468 53.7952 28.5942 53.7952 30.0164 53.87C31.4386 53.7204 32.8609 53.87 34.3579 53.9448C35.7802 53.9448 37.2772 54.0945 38.7743 54.0945C39.5229 54.0945 40.2714 54.0945 41.0199 54.1693C41.2445 54.1693 41.5439 54.1693 41.7685 54.1693V53.87C41.7685 53.7952 41.7685 53.6456 41.7685 53.5707L41.8433 52.9722C41.8433 52.8974 41.8433 52.7477 41.8433 52.6729L41.993 52.0743C41.993 51.9995 42.0679 51.8499 42.0679 51.7751L42.3673 50.578C42.4422 50.3535 42.517 50.2039 42.517 49.9794C42.5919 49.8298 42.5919 49.6053 42.7416 49.4557C42.8164 49.306 42.8913 49.0816 42.9661 48.9319C43.041 48.7823 43.1159 48.5578 43.2656 48.4082C43.3404 48.3334 43.3404 48.2586 43.4153 48.1837L43.7147 47.7348C43.7895 47.66 43.8644 47.5852 43.8644 47.5104L44.2387 47.0614C44.3884 46.9118 44.5381 46.7622 44.6129 46.6125L45.0621 46.1636C45.2118 46.014 45.3615 45.8643 45.5112 45.7895C46.1849 45.3406 46.7837 44.9665 47.4574 44.5924L47.9814 44.3679C48.0562 44.2931 48.1311 44.2931 48.2059 44.2183C48.2808 44.2183 48.4305 44.1435 48.4305 44.1435H48.5053C48.5053 44.1435 48.5053 44.1435 48.5053 44.0687V43.919C48.5053 42.4975 48.655 41.0759 48.655 39.7291C48.655 38.3076 48.655 36.9608 48.8047 35.6141C48.5802 34.2673 48.9545 32.9206 48.9545 31.5738C49.0293 31.2745 49.0293 30.9004 49.0293 30.6012V29.7781C48.9545 29.1796 48.7299 28.6559 48.5053 28.1321C48.2059 27.6832 47.9065 27.1595 47.4574 26.7854C47.0083 26.4113 46.5591 26.112 45.9603 26.0372C45.8106 25.9624 45.6609 25.9624 45.586 25.9624C45.4363 25.9624 45.2866 25.8875 45.2118 25.8875H44.7626C44.6129 25.8875 44.4632 25.8875 44.3135 25.8875C43.7147 25.8875 43.1159 25.8875 42.517 25.8127C41.3194 25.8875 40.1217 25.6631 38.9989 25.6631C37.8761 25.6631 36.6784 25.5883 35.5556 25.5134C34.4328 25.289 33.3848 25.4386 32.262 25.4386C31.2141 25.3638 30.1661 25.5134 29.193 25.3638C28.2199 25.289 27.172 25.2142 26.2737 25.289C25.3006 25.289 24.4024 24.9149 23.5041 25.2142C22.6059 25.2142 21.7825 24.9149 20.8842 25.1393C20.0608 25.289 19.2375 25.0645 18.4889 25.0645C17.7404 25.0645 16.9918 24.9897 16.2433 24.9897C13.0994 24.8401 10.5544 24.7652 8.83276 24.6156C6.96141 24.466 6.06317 24.3911 6.06317 24.3163C6.06317 24.2415 7.18598 24.2415 9.28188 24.2415C11.3778 24.2415 14.4468 24.2415 18.2644 24.3163C19.0129 24.3163 19.8363 24.1667 20.6597 24.3163C21.4831 24.3163 22.3813 24.2415 23.2796 24.3911C24.1778 24.2415 25.0761 24.3911 26.0492 24.466C27.0223 24.466 27.9954 24.5408 28.9685 24.5408C30.0164 24.466 30.9895 24.6904 32.0375 24.6156C33.0854 24.7652 34.2082 24.7652 35.331 24.6904C36.4539 24.8401 37.5767 24.6904 38.7743 24.7652C39.8971 24.9897 41.0948 24.9149 42.2925 24.8401C42.8913 24.8401 43.4901 24.8401 44.089 24.8401C44.2387 24.8401 44.3884 24.8401 44.5381 24.8401H45.0621C45.2118 24.8401 45.4363 24.9149 45.586 24.9149C45.7357 24.9149 45.9603 24.9897 46.11 25.0645C46.7837 25.289 47.3825 25.5883 47.9814 26.0372C48.5053 26.4861 49.0293 27.0098 49.3287 27.6832C49.703 28.2818 50.0024 29.03 50.0773 29.7781V30.9004C50.0773 31.1997 50.0024 31.5738 50.0024 31.8731C50.0024 33.2198 49.9276 34.5666 49.9276 35.9133C50.0024 37.2601 49.8527 38.6817 49.8527 40.0284C49.8527 41.45 49.5533 42.7967 49.7779 44.2183V45.3406L49.1042 45.5651H48.655C48.5802 45.5651 48.5053 45.6399 48.4305 45.6399L47.9814 45.8643C47.3825 46.1636 46.7837 46.5377 46.3346 46.9866C46.1849 47.0614 46.11 47.2111 45.9603 47.2859L45.7357 47.4355L45.586 47.5852C45.4363 47.7348 45.3615 47.8096 45.2118 47.9593L44.9123 48.3334C44.8375 48.4082 44.8375 48.483 44.7626 48.5578L44.4632 49.0068C44.3884 49.0816 44.3884 49.1564 44.3135 49.2312C44.2387 49.3809 44.1638 49.5305 44.089 49.6801L43.8644 50.129C43.7895 50.2787 43.7147 50.4283 43.6398 50.578C43.4901 50.8772 43.4153 51.0269 43.4153 51.1765C43.3404 51.3262 43.3404 51.4758 43.2656 51.7003C43.1907 51.8499 43.1907 52.0744 43.1907 52.224C43.1907 52.2988 43.1907 52.3736 43.1159 52.4484V53.047C43.1159 53.1218 43.1159 53.1966 43.1159 53.3463V53.87C43.1159 53.9448 43.1159 54.0197 43.1159 54.0945V54.9923L43.1907 55.516V55.8153H42.4422C41.9182 55.8153 41.4691 55.8153 40.9451 55.8153C40.1965 55.8153 39.448 55.7405 38.6995 55.7405C37.2024 55.7405 35.7802 55.6657 34.2831 55.5909C32.8609 55.5909 31.3638 55.4412 29.9416 55.4412C28.5193 55.516 27.0971 55.2916 25.7497 55.2916C24.3275 55.2916 22.9802 55.2916 21.6328 55.1419C20.2854 55.1419 18.938 54.9175 17.5907 54.9923C16.2433 54.9923 14.9708 55.2168 13.6983 54.8427C12.4257 54.8427 11.1532 54.6182 9.88072 54.693C8.68305 54.4686 7.48539 54.6182 6.21287 54.6182C5.91346 54.6182 5.61404 54.5434 5.31463 54.5434C5.23977 54.5434 5.16492 54.5434 5.09007 54.5434H4.8655C4.7158 54.5434 4.56609 54.4686 4.41638 54.4686C3.7427 54.3189 3.14386 54.0945 2.61989 53.7952C2.02106 53.4959 1.57193 53.047 1.19766 52.5233C0.823393 51.9995 0.523977 51.4758 0.37427 50.8772C0 50.2787 0 49.6053 0 49.0068C0.0748539 48.483 0.0748539 47.9593 0.0748539 47.3607C0.149708 46.3133 0.149708 45.2658 0.149708 44.2931C-0.0748539 43.2457 0.224562 42.273 0.224562 41.3752C0.299416 40.4025 0.0748539 39.5047 0.299416 38.6068C0.0748539 37.709 0.299416 36.8112 0.37427 35.9882C0.449123 35.1651 0.299416 34.3421 0.449123 33.5939C0.299416 32.8457 0.598831 32.0976 0.523977 31.3494C0.748539 30.676 0.673685 30.0026 0.748539 29.4041C0.748539 29.2544 0.748539 29.1048 0.748539 28.9551C0.748539 28.8803 0.748539 28.8055 0.748539 28.7307V28.4314C0.748539 28.2818 0.823393 28.1321 0.823393 27.9825C0.898247 27.8328 0.898247 27.6832 0.973101 27.5336C1.19766 26.935 1.49708 26.4861 1.79649 26.112C2.39533 25.4386 2.99416 25.0645 3.51813 24.7652C3.59299 24.7652 3.66784 24.6904 3.7427 24.6904C3.81755 24.6904 3.8924 24.6156 3.96726 24.6156C4.11697 24.5408 4.19182 24.5408 4.34153 24.466C4.49123 24.466 4.56609 24.3911 4.7158 24.3911C4.79065 24.3911 4.94036 24.3163 5.01521 24.3163C5.23977 24.2415 5.38948 24.2415 5.53919 24.2415C5.61404 24.2415 5.6889 24.2415 5.76375 24.2415C5.8386 24.2415 5.91346 24.2415 5.91346 24.2415C5.98831 24.2415 6.06317 24.3163 6.06317 24.3163Z" fill="#67B02C"/>
<path d="M49.2539 37.9335C49.2539 38.0083 48.7299 38.0831 47.7568 38.0831C47.6071 38.0831 47.3825 38.0831 47.2328 38.0831C47.0083 38.0831 46.8585 38.0831 46.634 38.0831C46.4094 38.0083 46.1849 38.2327 45.9603 38.0831C45.7357 38.0083 45.5112 38.0831 45.2118 38.0831C44.9872 38.0831 44.6878 38.0083 44.3884 38.0831C44.089 38.3076 43.8644 37.8587 43.565 38.0831C43.2656 38.1579 42.9661 38.0831 42.6667 38.0831C42.3673 37.9335 41.993 38.0831 41.6936 38.0831C41.3942 37.8587 41.0199 37.9335 40.6457 38.0831C40.2714 37.7838 39.972 37.8587 39.5977 38.0831C39.2234 38.0831 38.8492 38.0083 38.4749 38.0831C38.1006 38.0831 37.7264 38.1579 37.2772 38.0831C36.903 38.2327 36.4539 38.2327 36.0796 38.0831C35.6305 38.2327 35.2562 38.1579 34.8071 38.0831C34.3579 37.9335 33.9088 38.2327 33.5345 38.0831C33.0854 38.0831 32.6363 38.0831 32.1872 38.0831C31.7381 38.0083 31.2889 37.9335 30.8398 38.0831C30.3907 38.0831 29.9416 38.1579 29.4176 38.0831C28.9685 38.2327 28.4445 38.1579 27.9954 38.0831C27.5462 38.0831 27.0223 37.9335 26.5731 38.0831C26.0492 38.0083 25.6 38.1579 25.0761 38.0083C24.5521 37.9335 24.103 37.8587 23.579 37.9335C23.055 38.0831 22.6059 37.8587 22.1568 37.8587C21.7076 37.6342 21.1837 37.8587 20.7345 37.7838C20.2854 37.7838 19.8363 37.6342 19.3123 37.709C18.8632 37.709 18.4141 37.7838 17.9649 37.6342C17.5158 37.9335 17.0667 37.5594 16.6176 37.5594C16.1684 37.4097 15.7193 37.5594 15.3451 37.4846C14.8959 37.5594 14.5217 37.3349 14.0725 37.4097C13.6234 37.4097 13.2491 37.4846 12.8749 37.3349C12.5006 37.4846 12.0515 37.1853 11.6772 37.2601C11.3029 37.2601 10.9287 37.2601 10.5544 37.1853C10.1801 36.9608 9.80586 37.1105 9.50645 37.1105C9.13218 37.1105 8.83276 37.1853 8.45849 37.0356C8.15908 37.0356 7.78481 36.886 7.48539 36.9608C7.18598 36.9608 6.88656 36.5867 6.58714 36.886C6.28773 36.9608 5.98831 36.6615 5.76375 36.8112C5.46434 36.9608 5.23977 36.8112 4.94036 36.7364C4.7158 36.7364 4.41638 36.7364 4.19182 36.6615C2.09591 36.5119 0.898247 36.3623 0.898247 36.2126C0.898247 36.063 2.39532 35.9882 4.94036 35.9882C5.16492 35.9882 5.46434 35.8385 5.76375 35.9882C6.06317 35.9882 6.36258 35.9133 6.58714 35.9882C6.88656 35.7637 7.18598 35.9882 7.48539 35.9882C7.78481 35.9882 8.15908 36.063 8.45849 35.9882C8.83276 35.9133 9.13218 36.063 9.50645 35.9882C9.88072 36.1378 10.1801 36.1378 10.5544 35.9882C10.9287 36.1378 11.3029 35.9882 11.6772 35.9882C12.0515 36.2126 12.4257 36.063 12.8749 35.9882C13.2491 35.9133 13.6983 36.063 14.0725 35.9882C14.4468 36.063 14.8959 35.9882 15.3451 35.9882C15.7942 35.9133 16.2433 35.9133 16.6176 35.9882C17.0667 35.9133 17.5158 35.9882 17.9649 35.9882C18.4141 35.9133 18.8632 35.9882 19.3123 35.9882C19.7614 35.9882 20.2106 36.2126 20.7345 35.9882C21.1837 35.9882 21.7076 36.063 22.1568 35.9882C22.6059 36.063 23.1299 36.063 23.579 35.9882C24.0281 36.2126 24.5521 36.063 25.0761 36.063C25.6 35.9882 26.0492 36.063 26.5731 36.1378C27.0971 36.1378 27.5462 36.1378 27.9954 36.2126C28.4445 36.1378 28.9685 36.3623 29.4176 36.2874C29.8667 36.2126 30.3158 36.4371 30.8398 36.3623C31.2889 36.2874 31.7381 36.2874 32.1872 36.4371C32.6363 36.4371 33.0854 36.6615 33.5345 36.5119C33.9837 36.5119 34.4328 36.2874 34.8071 36.5867C35.2562 36.5119 35.6305 36.7364 36.0796 36.6615C36.4539 36.886 36.903 36.6615 37.2772 36.7364C37.6515 36.8112 38.1006 36.886 38.4749 36.8112C38.8492 36.7364 39.2234 36.886 39.5977 36.886C39.972 36.8112 40.3463 37.0356 40.6457 36.9608C41.0199 36.9608 41.3194 36.9608 41.6936 37.0356C42.0679 36.7364 42.3673 37.0356 42.6667 37.1105C42.9661 37.1853 43.2656 36.9608 43.565 37.1853C43.8644 36.9608 44.1638 37.1853 44.3884 37.2601C44.6878 37.3349 44.9123 37.1853 45.2118 37.3349C45.4363 37.1853 45.7357 37.4097 45.9603 37.4097C46.1849 37.4846 46.4094 37.4097 46.634 37.4846C46.8585 37.4846 47.0083 37.4846 47.2328 37.5594C47.3825 37.5594 47.6071 37.5594 47.7568 37.6342C48.7299 37.7838 49.2539 37.8587 49.2539 37.9335Z" fill="#67B02C"/>
<path d="M48.1311 45.1161C48.1311 45.191 47.6071 45.2658 46.634 45.2658C46.4843 45.2658 46.3346 45.2658 46.11 45.2658C45.9603 45.2658 45.7357 45.2658 45.5112 45.2658C45.2866 45.191 45.0621 45.4154 44.8375 45.2658C44.6129 45.191 44.3884 45.2658 44.089 45.2658C43.8644 45.2658 43.565 45.191 43.3404 45.2658C43.041 45.4902 42.8164 45.0413 42.517 45.2658C42.2176 45.3406 41.9182 45.2658 41.6188 45.2658C41.3194 45.1161 41.0199 45.2658 40.6457 45.2658C40.3463 45.0413 39.972 45.1161 39.6726 45.2658C39.2983 44.9665 38.9989 45.0413 38.6246 45.2658C38.2503 45.2658 37.8761 45.191 37.5018 45.2658C37.1275 45.2658 36.7533 45.3406 36.379 45.2658C36.0047 45.4154 35.5556 45.4154 35.1813 45.2658C34.8071 45.4154 34.3579 45.3406 33.9837 45.2658C33.5346 45.1161 33.1603 45.4154 32.7112 45.2658C32.262 45.2658 31.8129 45.2658 31.4386 45.2658C30.9895 45.191 30.5404 45.1161 30.0913 45.2658C29.6421 45.2658 29.193 45.3406 28.7439 45.2658C28.2948 45.4154 27.8457 45.3406 27.3217 45.2658C26.8726 45.2658 26.3486 45.1161 25.8995 45.2658C25.4503 45.191 24.9264 45.3406 24.4772 45.191C24.0281 45.1161 23.5041 45.0413 23.055 45.1161C22.6059 45.2658 22.0819 45.0413 21.6328 45.0413C21.1837 44.8169 20.6597 45.0413 20.2106 44.9665C19.7614 44.9665 19.3123 44.8169 18.8632 44.8917C18.4141 44.8917 17.9649 44.9665 17.5158 44.8169C17.0667 45.1161 16.6176 44.742 16.2433 44.742C15.7942 44.5924 15.4199 44.742 14.9708 44.6672C14.5217 44.742 14.1474 44.5176 13.7731 44.5924C13.3988 44.5924 12.9497 44.6672 12.5755 44.5176C12.2012 44.6672 11.8269 44.3679 11.4526 44.4428C11.0784 44.4428 10.7041 44.4428 10.3298 44.3679C9.95557 44.1435 9.5813 44.2931 9.28188 44.2931C8.90761 44.2931 8.6082 44.3679 8.30878 44.2183C8.00937 44.2183 7.6351 44.0687 7.33568 44.1435C7.03627 44.1435 6.73685 43.7694 6.43744 44.0687C6.13802 44.1435 5.8386 43.8442 5.61404 43.9938C5.31463 44.1435 5.09007 43.9938 4.8655 43.919C4.64094 43.919 4.34153 43.919 4.11696 43.8442C2.02106 43.6946 0.898247 43.5449 0.898247 43.3953C0.898247 43.2457 2.39533 43.1708 4.8655 43.1708C5.09007 43.1708 5.38948 43.0212 5.61404 43.1708C5.91346 43.1708 6.13802 43.096 6.43744 43.1708C6.73685 42.9464 7.03627 43.1708 7.33568 43.1708C7.6351 43.1708 7.93451 43.2457 8.30878 43.1708C8.6082 43.096 8.98247 43.2457 9.28188 43.1708C9.65615 43.3205 9.95557 43.2457 10.3298 43.1708C10.7041 43.3205 11.0784 43.1708 11.4526 43.1708C11.8269 43.3953 12.2012 43.2457 12.5755 43.1708C12.9497 43.096 13.3988 43.2457 13.7731 43.1708C14.1474 43.2457 14.5965 43.1708 14.9708 43.1708C15.4199 43.096 15.7942 43.096 16.2433 43.1708C16.6924 43.096 17.1415 43.1708 17.5158 43.1708C17.9649 43.096 18.4141 43.1708 18.8632 43.1708C19.3123 43.1708 19.7614 43.3953 20.2106 43.1708C20.6597 43.1708 21.1088 43.2457 21.6328 43.1708C22.0819 43.2457 22.6059 43.2457 23.055 43.1708C23.5041 43.3953 24.0281 43.2457 24.4772 43.2457C25.0012 43.1708 25.4503 43.2457 25.8995 43.3205C26.3486 43.3205 26.8726 43.3205 27.3217 43.3953C27.7708 43.3205 28.2199 43.5449 28.7439 43.4701C29.193 43.3953 29.6421 43.6198 30.0913 43.5449C30.5404 43.4701 30.9895 43.4701 31.4386 43.6198C31.8878 43.6198 32.3369 43.8442 32.7112 43.6946C33.1603 43.6946 33.6094 43.4701 33.9837 43.7694C34.4328 43.6946 34.8071 43.919 35.1813 43.8442C35.5556 44.0687 36.0047 43.8442 36.379 43.919C36.7533 43.9938 37.1275 44.0687 37.5018 43.9938C37.8761 43.919 38.2503 44.0687 38.6246 44.0687C38.9989 43.9939 39.2983 44.2183 39.6726 44.1435C40.0468 44.1435 40.3463 44.1435 40.6457 44.2183C40.9451 43.919 41.3194 44.2183 41.6188 44.2931C41.9182 44.3679 42.2176 44.1435 42.517 44.3679C42.8164 44.1435 43.1159 44.3679 43.3404 44.4428C43.6398 44.5176 43.8644 44.3679 44.089 44.5176C44.3135 44.3679 44.6129 44.5924 44.8375 44.5924C45.0621 44.6672 45.2866 44.5924 45.5112 44.6672C45.7357 44.6672 45.8854 44.6672 46.11 44.742C46.2597 44.742 46.4843 44.742 46.634 44.8169C47.6071 44.9665 48.1311 45.0413 48.1311 45.1161Z" fill="#67B02C"/>
<path d="M36.1544 47.9593C36.1544 48.0341 35.9299 48.1089 35.7053 48.2586C35.6305 48.2586 35.6305 48.3334 35.5556 48.3334L35.4808 48.4082C35.4808 48.4082 35.4059 48.4082 35.4059 48.483C35.331 48.483 35.331 48.483 35.331 48.5578C35.331 48.6327 35.331 48.6327 35.2562 48.6327C35.1813 48.6327 35.1065 48.7075 35.1065 48.7823C35.1065 48.8571 34.9568 48.8571 34.9568 48.9319C35.0316 49.0068 34.9568 49.0068 34.8819 49.0068C34.8071 49.0068 34.7322 49.0068 34.8071 49.1564C34.8071 49.2312 34.8071 49.2312 34.8071 49.306L34.7322 49.3809C34.6574 49.3809 34.6574 49.4557 34.6574 49.4557C34.6574 49.5305 34.6574 49.5305 34.6574 49.6053C34.4328 49.6053 34.5077 49.7549 34.6574 49.9046C34.5077 49.9046 34.4328 49.9794 34.5077 50.0542C34.5077 50.129 34.5825 50.129 34.7322 50.2039C34.7322 50.2787 34.7322 50.2787 34.7322 50.3535C34.7322 50.4283 34.7322 50.4283 34.8071 50.5031C34.8071 50.578 34.8819 50.578 34.8819 50.6528C34.8819 50.7276 34.9568 50.7276 34.9568 50.8024C35.0316 50.8024 35.1065 50.8024 35.1065 50.8772C35.1065 50.8772 35.1065 50.9521 35.1065 51.0269C35.1813 51.0269 35.2562 51.0269 35.2562 51.0269C35.2562 51.1017 35.2562 51.1017 35.331 51.1765C35.331 51.2513 35.4059 51.2513 35.4808 51.2513C35.5556 51.2513 35.6305 51.2513 35.6305 51.3262C35.7053 51.3262 35.7053 51.3262 35.7802 51.401C35.855 51.401 35.855 51.401 35.9299 51.4758C36.0047 51.5506 36.1544 51.7003 36.2293 51.4758C36.379 51.401 36.4539 51.3262 36.6036 51.401C36.6036 51.3262 36.6036 51.3262 36.6784 51.2513H36.8281C36.903 51.2513 36.9778 51.1765 37.0527 51.1765C37.1275 51.1765 37.1275 51.1765 37.1275 51.1765H37.2024L37.2772 51.2513C37.3521 51.2513 37.427 51.3262 37.5018 51.3262L37.5767 51.401H37.6515C37.6515 51.401 37.7264 51.4758 37.7264 51.401C37.8012 51.401 37.8012 51.4758 37.8761 51.401C37.9509 51.401 38.0258 51.401 38.0258 51.401C38.1006 51.401 38.1755 51.401 38.1755 51.401C38.3252 51.4758 38.4749 51.4758 38.5498 51.401C38.6246 51.3262 38.6246 51.3262 38.6995 51.3262C38.7743 51.3262 38.8492 51.3262 38.8492 51.2513C38.924 51.3262 38.9989 51.2513 38.9989 51.1765C38.9989 51.1765 38.9989 51.1017 39.0737 51.1017C39.0737 51.1017 39.0737 51.0269 39.1486 51.0269C39.2234 50.9521 39.2234 50.9521 39.2983 50.9521C39.3732 50.9521 39.3732 50.8772 39.3732 50.8024C39.3732 50.7276 39.3732 50.7276 39.448 50.6528C39.448 50.6528 39.448 50.578 39.5229 50.578L39.5977 50.5031C39.5229 50.4283 39.5229 50.3535 39.5977 50.3535C39.6726 50.3535 39.7474 50.2787 39.7474 50.2039C39.8223 50.129 39.8223 50.129 39.8223 50.0542C39.8223 49.9794 39.7474 49.9794 39.8223 49.9046C39.8223 49.8298 39.8223 49.8298 39.8223 49.7549C39.8223 49.6801 39.8223 49.6053 39.7474 49.6053C39.7474 49.5305 39.6726 49.5305 39.6726 49.4557C39.6726 49.3808 39.5977 49.3809 39.6726 49.306C39.5977 49.306 39.5977 49.306 39.5977 49.2312V49.0816C39.5977 49.0816 39.5977 49.0068 39.5229 49.0068C39.5229 48.9319 39.448 48.9319 39.448 48.9319L39.3732 48.8571C39.3732 48.7075 39.3732 48.7075 39.2983 48.7075C39.2234 48.7075 39.1486 48.7075 39.1486 48.7075C39.1486 48.7075 39.0737 48.7075 38.9989 48.7075C38.924 48.7075 38.924 48.7075 38.924 48.6327C38.8492 48.6327 38.8492 48.5578 38.7743 48.5578C38.6995 48.5578 38.6995 48.5578 38.6246 48.5578C38.5498 48.5578 38.5498 48.483 38.4749 48.4082C38.4001 48.3334 38.4001 48.3334 38.3252 48.483C38.2503 48.483 38.2503 48.483 38.1755 48.4082C38.1006 48.4082 38.1006 48.3334 38.0258 48.483C38.0258 48.5578 37.9509 48.5578 37.9509 48.5578C37.8761 48.5578 37.8761 48.483 37.8012 48.483H37.6515C37.5767 48.483 37.5018 48.5578 37.5018 48.5578H37.3521C37.3521 48.5578 37.3521 48.5578 37.2772 48.5578C37.2024 48.5578 37.2024 48.483 37.1275 48.483C37.1275 48.483 37.0527 48.483 37.0527 48.4082H36.9778C36.9778 48.4082 36.903 48.4082 36.903 48.3334C36.8281 48.2586 36.6784 48.1837 36.6036 48.1837C36.2293 48.1089 36.1544 48.0341 36.1544 47.9593C36.1544 47.9593 36.1544 47.8845 36.2293 47.8845C36.3041 47.8845 36.379 47.8096 36.5287 47.8096C36.6036 47.8096 36.6784 47.8096 36.7533 47.8096C36.8281 47.8096 36.8281 47.8096 36.903 47.8096H37.1275C37.1275 47.8096 37.2024 47.8096 37.2024 47.7348C37.2024 47.7348 37.2772 47.7348 37.2772 47.66C37.3521 47.66 37.3521 47.5852 37.427 47.5104C37.5018 47.5104 37.5018 47.4355 37.5767 47.5104C37.6515 47.5104 37.6515 47.4355 37.7264 47.4355C37.8012 47.4355 37.8761 47.4355 37.8761 47.4355C38.0258 47.2111 38.1755 47.4355 38.2503 47.4355C38.4001 47.4355 38.4749 47.5104 38.6995 47.5104C38.7743 47.4355 38.8492 47.5104 38.924 47.5852C38.9989 47.66 39.0737 47.66 39.1486 47.66C39.2234 47.7348 39.2234 47.8096 39.2983 47.8096C39.3732 47.8096 39.448 47.8845 39.5229 47.8845C39.5229 47.9593 39.5977 48.0341 39.6726 48.0341C39.7474 48.1089 39.8223 48.1089 39.8971 48.1837C39.8971 48.2586 39.8971 48.2586 39.8971 48.3334C39.8971 48.4082 39.972 48.4082 39.972 48.4082L40.0468 48.483C40.1217 48.483 40.1217 48.5578 40.1965 48.5578C40.2714 48.6327 40.2714 48.7075 40.3463 48.7823C40.3463 48.8571 40.4211 48.9319 40.4211 49.0068C40.4211 49.1564 40.5708 49.3808 40.5708 49.5305C40.6457 49.6053 40.6457 49.7549 40.6457 49.8298C40.6457 49.9046 40.6457 50.0542 40.5708 50.129C40.5708 50.3535 40.496 50.5031 40.4211 50.7276C40.4211 50.8024 40.4211 50.8024 40.4211 50.8772C40.4211 50.9521 40.3463 50.9521 40.3463 51.0269C40.2714 51.1017 40.1965 51.1765 40.1965 51.3262C40.1217 51.401 40.0468 51.4758 39.972 51.5506C39.8971 51.6254 39.8223 51.7003 39.8223 51.8499C39.8223 51.9247 39.7474 51.9247 39.6726 51.9247C39.5977 51.9247 39.5977 51.9995 39.5229 51.9995C39.448 52.0744 39.2983 52.0743 39.2234 52.1492C38.9989 52.224 38.7743 52.2988 38.6246 52.3736C38.4749 52.2988 38.4001 52.2988 38.2503 52.2988C38.1755 52.2988 38.0258 52.3736 37.9509 52.4484C37.8012 52.4484 37.7264 52.4484 37.5767 52.4484C37.5018 52.4484 37.3521 52.3736 37.2772 52.3736C37.2024 52.3736 37.0527 52.2988 36.9778 52.2988H36.903C36.8281 52.2988 36.8281 52.2988 36.7533 52.3736C36.6784 52.4484 36.5287 52.4484 36.4539 52.4484C36.379 52.4484 36.2293 52.4484 36.1544 52.4484C35.9299 52.5233 35.7053 52.5233 35.5556 52.3736C35.4808 52.3736 35.331 52.2988 35.2562 52.224C35.1065 52.3736 35.0316 52.3736 34.9568 52.3736C34.8819 52.3736 34.7322 52.3736 34.6574 52.2988C34.5825 52.2988 34.5077 52.224 34.5077 51.9995C34.4328 51.9995 34.3579 51.8499 34.2831 51.7751C34.2082 51.7003 34.2082 51.6254 34.0585 51.5506C34.0585 51.401 34.0585 51.3262 33.9837 51.2513C33.9088 51.1765 33.834 51.1017 33.7591 51.0269C33.7591 50.9521 33.7591 50.8772 33.6843 50.7276C33.6843 50.6528 33.6094 50.578 33.5345 50.5031C33.4597 50.4283 33.4597 50.3535 33.4597 50.2787C33.4597 50.2039 33.4597 50.129 33.4597 50.0542C33.3848 49.9794 33.4597 49.9046 33.4597 49.8298C33.5346 49.7549 33.5346 49.6801 33.4597 49.6053C33.5346 49.4557 33.4597 49.306 33.6094 49.1564C33.4597 49.0816 33.5346 49.0068 33.6094 48.9319C33.6843 48.8571 33.7591 48.8571 33.834 48.7823C33.9088 48.7075 33.834 48.6327 33.9088 48.5578C33.9088 48.483 33.9837 48.4082 34.0585 48.4082C33.9837 48.1837 34.2082 48.1837 34.2831 48.1837C34.4328 48.1089 34.3579 47.9593 34.5825 47.9593C34.5825 47.8845 34.6574 47.8845 34.7322 47.8845C34.8071 47.8845 34.8819 47.8845 34.8819 47.8845C35.0316 47.9593 35.0316 47.8096 35.1065 47.8096L35.1813 47.7348C35.2562 47.7348 35.2562 47.7348 35.331 47.7348C35.4059 47.7348 35.4808 47.7348 35.5556 47.7348C35.6305 47.7348 35.6305 47.7348 35.7053 47.7348C35.7802 47.7348 35.7802 47.7348 35.855 47.7348C35.9299 47.7348 36.0047 47.7348 36.0047 47.8096C36.0796 47.8845 36.1544 47.9593 36.1544 47.9593Z" fill="#67B02C"/>
<path d="M11.1532 49.306C11.1532 49.3809 11.0784 49.4557 11.0784 49.5305C11.0784 49.5305 11.0784 49.5305 11.0035 49.5305C11.0035 49.5305 11.0035 49.6053 10.9287 49.5305C10.9287 49.4557 10.9287 49.7549 10.8538 49.5305C10.8538 49.4557 10.8538 49.5305 10.779 49.5305C10.779 49.5305 10.779 49.4557 10.7041 49.5305C10.7041 49.7549 10.7041 49.306 10.6293 49.5305C10.6293 49.6053 10.5544 49.6053 10.5544 49.5305C10.5544 49.3808 10.4795 49.5305 10.4795 49.5305C10.4795 49.306 10.4047 49.4557 10.4047 49.5305C10.4047 49.306 10.3298 49.306 10.3298 49.5305C10.3298 49.5305 10.255 49.4557 10.255 49.5305C10.255 49.5305 10.1801 49.6053 10.1801 49.5305C10.1801 49.6801 10.1053 49.6801 10.1053 49.5305C10.1053 49.6801 10.0304 49.6053 10.0304 49.5305C10.0304 49.4557 9.95557 49.6801 9.95557 49.5305C9.95557 49.5305 9.88072 49.6053 9.88072 49.5305C9.88072 49.4557 9.80586 49.3808 9.80586 49.5305C9.80586 49.6053 9.73101 49.6053 9.73101 49.5305C9.65615 49.7549 9.65615 49.6053 9.65615 49.5305C9.65615 49.5305 9.5813 49.4557 9.5813 49.5305C9.5813 49.5305 9.50645 49.6053 9.50645 49.5305C9.50645 49.4557 9.43159 49.3808 9.43159 49.5305C9.35674 49.6801 9.35674 49.4557 9.35674 49.5305C9.35674 49.3808 9.28188 49.6053 9.28188 49.5305C9.28188 49.5305 9.20703 49.4557 9.20703 49.5305C9.20703 49.5305 9.13218 49.6053 9.13218 49.5305C9.05732 49.8298 9.05732 49.4557 9.05732 49.5305C9.05732 49.3808 8.98247 49.5305 8.98247 49.5305C8.98247 49.6053 8.90761 49.3808 8.90761 49.5305C8.90761 49.5305 8.83276 49.6053 8.83276 49.5305C8.83276 49.6801 8.75791 49.3808 8.75791 49.5305H8.68305C8.68305 49.306 8.6082 49.4557 8.6082 49.5305C8.6082 49.5305 8.53335 49.6801 8.53335 49.5305C8.53335 49.5305 8.45849 49.3808 8.45849 49.5305C8.45849 49.5305 8.45849 49.2312 8.38364 49.5305C8.38364 49.6053 8.38364 49.306 8.30878 49.5305C8.30878 49.6801 8.30878 49.5305 8.23393 49.5305C8.23393 49.5305 8.23393 49.5305 8.15908 49.5305C8.00937 49.4557 7.93451 49.306 7.93451 49.2312C7.93451 49.0816 8.00937 49.0068 8.23393 48.8571C8.23393 48.8571 8.30878 48.7075 8.30878 48.8571C8.30878 48.8571 8.38364 48.7075 8.38364 48.8571C8.38364 48.6327 8.45849 48.8571 8.45849 48.8571C8.45849 48.8571 8.53335 48.9319 8.53335 48.8571C8.53335 48.7075 8.6082 48.9319 8.6082 48.8571C8.6082 49.0068 8.68305 48.9319 8.68305 48.8571C8.68305 49.0068 8.75791 48.8571 8.75791 48.8571C8.75791 49.0816 8.83276 48.9319 8.83276 48.8571C8.83276 48.7823 8.90761 48.8571 8.90761 48.8571C8.90761 48.8571 8.98247 48.7823 8.98247 48.8571C8.98247 48.7823 9.05732 48.7075 9.05732 48.8571C9.05732 48.7823 9.13218 48.8571 9.13218 48.8571C9.13218 48.7823 9.20703 48.8571 9.20703 48.8571C9.20703 48.7823 9.28188 49.0816 9.28188 48.8571H9.35674C9.35674 48.8571 9.43159 48.9319 9.43159 48.8571C9.43159 49.0816 9.50645 48.9319 9.50645 48.8571C9.50645 48.7823 9.5813 48.8571 9.5813 48.8571H9.65615C9.65615 48.7823 9.73101 48.9319 9.73101 48.8571C9.73101 48.7823 9.80586 48.9319 9.80586 48.8571C9.80586 48.7823 9.88072 48.7823 9.88072 48.8571C9.88072 48.8571 9.95557 49.0816 9.95557 48.8571C9.95557 48.7823 10.0304 48.5578 10.0304 48.8571C10.0304 48.7823 10.1053 49.0068 10.1053 48.8571C10.1053 49.0816 10.1801 48.8571 10.1801 48.8571C10.1801 48.9319 10.255 49.0068 10.255 48.8571C10.255 48.7823 10.3298 48.9319 10.3298 48.8571C10.3298 48.7075 10.4047 49.0068 10.4047 48.8571H10.4795C10.4795 48.5578 10.5544 48.8571 10.5544 48.8571C10.5544 48.9319 10.6293 48.7075 10.6293 48.8571C10.6293 48.6327 10.7041 48.8571 10.7041 48.8571C10.7041 48.9319 10.779 48.7823 10.779 48.8571C10.779 48.7075 10.779 48.9319 10.8538 48.8571C10.8538 48.9319 10.8538 48.8571 10.9287 48.8571C10.9287 48.8571 10.9287 48.8571 11.0035 48.8571C11.1532 49.1564 11.1532 49.2312 11.1532 49.306Z" fill="#67B02C"/>
<path d="M19.5369 49.5305C19.5369 49.6053 19.462 49.6801 19.462 49.7549C19.462 49.7549 19.462 49.8298 19.3872 49.7549C19.3872 49.6801 19.3872 49.9794 19.3123 49.7549C19.3123 49.6801 19.3123 49.7549 19.2375 49.7549C19.2375 49.7549 19.2375 49.6801 19.1626 49.7549C19.1626 49.9794 19.1626 49.5305 19.0877 49.7549C19.0877 49.8298 19.0129 49.8298 19.0129 49.7549C19.0129 49.6053 18.938 49.7549 18.938 49.7549C18.938 49.5305 18.8632 49.6801 18.8632 49.7549C18.8632 49.5305 18.7883 49.5305 18.7883 49.7549C18.7883 49.7549 18.7135 49.6801 18.7135 49.7549C18.7135 49.7549 18.6386 49.8298 18.6386 49.7549C18.6386 49.9046 18.5638 49.9046 18.5638 49.7549C18.5638 49.9046 18.4889 49.8298 18.4889 49.7549C18.4889 49.6801 18.4141 49.9046 18.4141 49.7549C18.4141 49.7549 18.3392 49.8298 18.3392 49.7549C18.3392 49.6801 18.2644 49.6053 18.2644 49.7549C18.2644 49.8298 18.1895 49.8298 18.1895 49.7549C18.1146 49.9794 18.1146 49.8298 18.1146 49.7549C18.1146 49.7549 18.0398 49.6801 18.0398 49.7549C18.0398 49.7549 17.9649 49.8298 17.9649 49.7549C17.9649 49.6801 17.8901 49.6053 17.8901 49.7549C17.8152 49.9046 17.8152 49.6801 17.8152 49.7549C17.8152 49.6053 17.7404 49.8298 17.7404 49.7549C17.7404 49.7549 17.6655 49.6801 17.6655 49.7549C17.6655 49.7549 17.5907 49.8298 17.5907 49.7549C17.5158 50.0542 17.5158 49.6801 17.5158 49.7549C17.5158 49.6053 17.441 49.7549 17.441 49.7549C17.441 49.8298 17.3661 49.6053 17.3661 49.7549C17.3661 49.7549 17.2913 49.8298 17.2913 49.7549C17.2913 49.9046 17.2164 49.6053 17.2164 49.7549H17.1415C17.1415 49.5305 17.0667 49.6801 17.0667 49.7549C17.0667 49.7549 16.9918 49.9046 16.9918 49.7549C16.9918 49.7549 16.917 49.6053 16.917 49.7549C16.917 49.7549 16.917 49.4557 16.8421 49.7549C16.8421 49.8298 16.8421 49.5305 16.7673 49.7549C16.7673 49.9046 16.7673 49.7549 16.6924 49.7549C16.6924 49.7549 16.6924 49.7549 16.6176 49.7549C16.4679 49.6801 16.393 49.5305 16.393 49.4557C16.393 49.306 16.4679 49.2312 16.6924 49.0816C16.6924 49.0816 16.7673 48.9319 16.7673 49.0816C16.7673 49.0816 16.8421 48.9319 16.8421 49.0816C16.8421 48.8571 16.917 49.0816 16.917 49.0816C16.917 49.0816 16.9918 49.1564 16.9918 49.0816C16.9918 48.9319 17.0667 49.1564 17.0667 49.0816C17.0667 49.2312 17.1415 49.1564 17.1415 49.0816C17.1415 49.2312 17.2164 49.0816 17.2164 49.0816C17.2164 49.306 17.2913 49.1564 17.2913 49.0816C17.2913 49.0068 17.3661 49.0816 17.3661 49.0816C17.3661 49.0816 17.441 49.0068 17.441 49.0816C17.441 49.0068 17.5158 48.9319 17.5158 49.0816C17.5158 49.0068 17.5907 49.0816 17.5907 49.0816C17.5907 49.0068 17.6655 49.0816 17.6655 49.0816C17.6655 49.0068 17.7404 49.306 17.7404 49.0816H17.8152C17.8152 49.0816 17.8901 49.1564 17.8901 49.0816C17.8901 49.306 17.9649 49.1564 17.9649 49.0816C17.9649 49.0068 18.0398 49.0816 18.0398 49.0816H18.1146C18.1146 49.0068 18.1895 49.1564 18.1895 49.0816C18.1895 49.0068 18.2644 49.1564 18.2644 49.0816C18.2644 49.0068 18.3392 49.0068 18.3392 49.0816C18.3392 49.0816 18.4141 49.306 18.4141 49.0816C18.4141 49.0068 18.4889 48.7823 18.4889 49.0816C18.4889 49.0068 18.5638 49.2312 18.5638 49.0816C18.5638 49.306 18.6386 49.0816 18.6386 49.0816C18.6386 49.1564 18.7135 49.1564 18.7135 49.0816C18.7135 49.0068 18.7883 49.1564 18.7883 49.0816C18.7883 48.9319 18.8632 49.2312 18.8632 49.0816H18.938C18.938 48.7823 19.0129 49.0816 19.0129 49.0816C19.0129 49.1564 19.0877 48.9319 19.0877 49.0816C19.0877 48.8571 19.1626 49.0816 19.1626 49.0816C19.1626 49.1564 19.2375 49.0068 19.2375 49.0816C19.2375 48.9319 19.2375 49.1564 19.3123 49.0816C19.3123 49.1564 19.3123 49.0816 19.3872 49.0816C19.3872 49.0816 19.3872 49.0816 19.462 49.0816C19.462 49.3808 19.5369 49.4557 19.5369 49.5305Z" fill="#67B02C"/>
<path d="M27.8457 49.7549C27.8457 49.8298 27.7708 49.9046 27.7708 49.9794C27.7708 49.9794 27.7708 50.0542 27.6959 49.9794C27.6959 49.9046 27.6959 50.2039 27.6211 49.9794C27.6211 49.9046 27.6211 49.9794 27.5462 49.9794C27.5462 49.9794 27.5462 49.9046 27.4714 49.9794C27.4714 50.2039 27.4714 49.7549 27.3965 49.9794C27.3965 50.0542 27.3217 50.0542 27.3217 49.9794C27.3217 49.8298 27.2468 49.9794 27.2468 49.9794C27.2468 49.7549 27.172 49.9046 27.172 49.9794C27.172 49.7549 27.0971 49.7549 27.0971 49.9794C27.0971 49.9794 27.0223 49.9046 27.0223 49.9794C27.0223 49.9794 26.9474 50.0542 26.9474 49.9794C26.9474 50.129 26.8726 50.129 26.8726 49.9794C26.8726 50.129 26.7977 50.0542 26.7977 49.9794C26.7977 49.9046 26.7228 50.129 26.7228 49.9794C26.7228 49.9794 26.648 50.0542 26.648 49.9794C26.648 49.9046 26.5731 49.8298 26.5731 49.9794C26.5731 50.0542 26.4983 50.0542 26.4983 49.9794C26.4234 50.2039 26.4234 50.0542 26.4234 49.9794C26.4234 49.9794 26.3486 49.9046 26.3486 49.9794C26.3486 49.9794 26.2737 50.0542 26.2737 49.9794C26.2737 49.9046 26.1989 49.8298 26.1989 49.9794C26.1989 50.129 26.124 49.9046 26.124 49.9794C26.124 49.8298 26.0492 50.0542 26.0492 49.9794C26.0492 49.9794 25.9743 49.9046 25.9743 49.9794C25.9743 49.9794 25.8995 50.0542 25.8995 49.9794C25.8246 50.2787 25.8246 49.9046 25.8246 49.9794C25.8246 49.8298 25.7497 49.9794 25.7497 49.9794C25.7497 50.0542 25.6749 49.8298 25.6749 49.9794C25.6749 49.9794 25.6 50.0542 25.6 49.9794C25.6 50.129 25.5252 49.8298 25.5252 49.9794H25.4503C25.4503 49.7549 25.3755 49.9046 25.3755 49.9794C25.3755 49.9794 25.3006 50.129 25.3006 49.9794C25.3006 49.9794 25.2258 49.8298 25.2258 49.9794C25.2258 49.9794 25.2258 49.6801 25.1509 49.9794C25.1509 50.0542 25.1509 49.7549 25.0761 49.9794C25.0761 50.129 25.0012 49.9794 25.0012 49.9794C25.0012 49.9794 25.0012 49.9794 24.9264 49.9794C24.7766 49.9046 24.7018 49.7549 24.7018 49.6801C24.7018 49.5305 24.7766 49.4557 25.0012 49.306C25.0012 49.306 25.0761 49.1564 25.0761 49.306C25.0761 49.306 25.1509 49.1564 25.1509 49.306C25.1509 49.0816 25.2258 49.306 25.2258 49.306C25.2258 49.306 25.3006 49.3809 25.3006 49.306C25.3006 49.1564 25.3755 49.3809 25.3755 49.306C25.3755 49.4557 25.4503 49.3809 25.4503 49.306C25.4503 49.4557 25.5252 49.306 25.5252 49.306C25.5252 49.5305 25.6 49.3809 25.6 49.306C25.6 49.2312 25.6749 49.306 25.6749 49.306C25.6749 49.306 25.7497 49.2312 25.7497 49.306C25.7497 49.2312 25.8246 49.1564 25.8246 49.306C25.8246 49.2312 25.8995 49.306 25.8995 49.306C25.8995 49.2312 25.9743 49.306 25.9743 49.306C25.9743 49.2312 26.0492 49.5305 26.0492 49.306H26.124C26.124 49.306 26.1989 49.3809 26.1989 49.306C26.1989 49.5305 26.2737 49.3809 26.2737 49.306C26.2737 49.2312 26.3486 49.306 26.3486 49.306H26.4234C26.4234 49.2312 26.4983 49.3809 26.4983 49.306C26.4983 49.2312 26.5731 49.3809 26.5731 49.306C26.5731 49.2312 26.648 49.2312 26.648 49.306C26.648 49.306 26.7228 49.5305 26.7228 49.306C26.7228 49.2312 26.7977 49.0068 26.7977 49.306C26.7977 49.2312 26.8726 49.4557 26.8726 49.306C26.8726 49.5305 26.9474 49.306 26.9474 49.306C26.9474 49.3809 27.0223 49.4557 27.0223 49.306C27.0223 49.2312 27.0971 49.3809 27.0971 49.306C27.0971 49.1564 27.172 49.4557 27.172 49.306H27.2468C27.2468 49.0068 27.3217 49.306 27.3217 49.306C27.3217 49.3809 27.3965 49.1564 27.3965 49.306C27.3965 49.0816 27.4714 49.306 27.4714 49.306C27.4714 49.3809 27.5462 49.2312 27.5462 49.306C27.5462 49.1564 27.5462 49.3809 27.6211 49.306C27.6211 49.3809 27.6211 49.306 27.6959 49.306C27.6959 49.306 27.6959 49.306 27.7708 49.306C27.7708 49.6053 27.8457 49.6801 27.8457 49.7549Z" fill="#67B02C"/>
<path d="M9.43159 29.03C9.50645 29.03 9.5813 29.1796 9.65615 29.5537C9.65615 29.6285 9.65615 29.6285 9.65615 29.7033C9.65615 29.7781 9.73101 29.853 9.65615 29.9278C9.5813 30.0026 9.88072 30.0774 9.65615 30.1522C9.5813 30.2271 9.65615 30.3019 9.65615 30.3767C9.65615 30.4515 9.5813 30.5263 9.65615 30.676C9.88072 30.7508 9.43159 30.8256 9.65615 30.9753V31.1249C9.5813 31.1997 9.5813 31.1997 9.5813 31.1997H9.65615C9.73101 31.3494 9.73101 31.4242 9.73101 31.4242C9.80586 31.4242 9.80586 31.3494 9.88072 31.3494C9.73101 31.5738 9.88072 31.5738 10.0304 31.3494C10.0304 31.3494 10.0304 31.3494 10.1053 31.3494C10.1053 31.3494 10.1801 31.3494 10.1801 31.2745C10.3298 31.2745 10.4047 31.1997 10.5544 31.2745C10.7041 31.1249 10.8538 31.1249 10.9287 31.2745C11.0784 31.1249 11.2281 31.1997 11.3778 31.2745C11.5275 31.3494 11.6772 31.1249 11.8269 31.2745C11.9766 31.2745 12.1263 31.2745 12.276 31.2745C12.4257 31.3494 12.5755 31.4242 12.7252 31.2745C12.8749 31.1997 13.0246 31.1997 13.1743 31.2745C13.324 31.0501 13.4737 31.1997 13.6234 31.2745C13.6983 31.2745 13.6983 31.2745 13.7731 31.2745H13.848C13.848 31.2745 13.848 31.2745 13.9228 31.2745H13.9977C13.9977 31.2745 13.9977 31.1997 13.9228 31.1997C13.848 31.1997 13.848 31.1997 13.9228 31.1997C13.9228 31.1997 13.9228 31.1997 13.9228 31.1249V31.0501C13.9228 30.9753 13.9228 30.9753 13.9228 30.9004C14.1474 30.7508 13.848 30.6012 13.9228 30.4515C13.9228 30.3019 14.0725 30.1522 13.9228 30.0026C13.9228 29.9278 13.9228 29.9278 13.9228 29.9278C13.9228 29.9278 13.9228 29.9278 13.9977 29.853C13.848 29.9278 13.848 29.9278 13.9228 29.853C13.9228 29.853 13.9977 29.7781 14.0725 29.7033C14.1474 29.6285 14.0725 29.6285 14.0725 29.6285C14.0725 29.6285 13.9977 29.7033 13.9977 29.6285C13.9977 29.6285 13.9977 29.6285 13.9228 29.6285C13.9228 29.6285 13.9228 29.6285 13.848 29.6285H13.7731C13.6234 29.6285 13.4737 29.7033 13.3988 29.6285C13.2491 29.7781 13.1743 29.4789 13.0246 29.6285C12.8749 29.6285 12.8 29.6285 12.6503 29.6285C12.5006 29.4041 12.4257 29.5537 12.276 29.6285C12.1263 29.6285 12.0515 29.7781 11.9018 29.6285C11.8269 29.6285 11.6772 29.4789 11.6024 29.6285C11.5275 29.6285 11.3778 29.3292 11.3029 29.6285C11.2281 29.7033 11.1532 29.4041 11.0035 29.6285C10.9287 29.7781 10.8538 29.6285 10.7041 29.6285C10.6293 29.6285 10.5544 29.6285 10.4795 29.5537C9.88072 29.2544 9.43159 29.1796 9.43159 29.03C9.43159 28.8803 9.95557 28.8055 10.779 28.7307C10.8538 28.7307 10.9287 28.581 11.0784 28.7307C11.1532 28.7307 11.3029 28.581 11.3778 28.7307C11.4526 28.5062 11.6024 28.7307 11.6772 28.7307C11.7521 28.7307 11.9018 28.8055 11.9766 28.7307C12.0515 28.581 12.2012 28.8055 12.3509 28.7307C12.4257 28.8803 12.5755 28.8055 12.7252 28.7307C12.8749 28.8803 12.9497 28.7307 13.0994 28.7307C13.2491 28.9551 13.324 28.8055 13.4737 28.7307C13.6234 28.6559 13.7731 28.7307 13.848 28.7307H13.9228C13.9228 28.7307 13.9228 28.7307 13.9977 28.7307H14.0725C14.2222 28.7307 14.2971 28.7307 14.4468 28.7307C14.7462 28.6559 15.0456 28.6559 15.1953 28.7307C15.2702 28.7307 15.2702 28.7307 15.3451 28.7307C15.3451 28.9551 15.3451 29.1796 15.3451 29.4041C15.3451 29.5537 15.3451 29.7033 15.3451 29.7781C15.3451 29.9278 15.3451 30.0774 15.3451 30.1522C15.3451 30.3019 15.1205 30.4515 15.3451 30.6012C15.3451 30.7508 15.2702 30.9004 15.3451 31.0501V31.2745C15.3451 31.2745 15.3451 31.2745 15.3451 31.3494C15.3451 31.499 15.3451 31.6486 15.3451 31.7983C15.2702 31.8731 15.1953 32.0227 15.1953 32.1724C15.1953 32.322 15.2702 32.4716 15.2702 32.6961C15.0456 32.7709 14.6714 32.6961 14.372 32.6961C14.2222 32.6961 14.0725 32.6961 13.9228 32.6961H13.6234C13.4737 32.7709 13.324 32.6213 13.1743 32.6961C13.0246 32.7709 12.8749 32.6213 12.7252 32.6961C12.5755 32.7709 12.4257 32.7709 12.276 32.6961C12.1263 32.6961 11.9766 32.4716 11.8269 32.6961C11.6772 32.6961 11.5275 32.9954 11.3778 32.6961C11.2281 32.7709 11.0784 32.5465 10.9287 32.6961C10.779 32.4716 10.6293 32.6961 10.5544 32.6961C10.4047 32.6213 10.3298 32.5465 10.1801 32.6961H9.95557C9.88072 32.6961 9.73101 32.6213 9.65615 32.6213C9.50645 32.6961 9.43159 32.6213 9.35674 32.6213C9.28189 32.5465 9.20703 32.5465 9.05732 32.6213C8.98247 32.6213 8.90762 32.6213 8.83276 32.6213C8.83276 32.4716 8.83276 32.3968 8.83276 32.2472C8.68305 32.2472 8.68305 32.1724 8.75791 32.0227C8.83276 31.8731 8.90761 31.7983 8.90761 31.7235C8.90761 31.6486 8.90762 31.5738 8.83276 31.499V31.3494C8.83276 31.3494 8.83276 31.2745 8.90761 31.2745C8.68305 31.1997 8.90761 31.0501 8.90761 30.9753C8.98247 30.9004 8.83276 30.8256 8.90761 30.7508C8.75791 30.676 8.98247 30.6012 8.98247 30.5263C9.05732 30.4515 8.98247 30.3767 9.05732 30.3019C9.05732 30.2271 9.05732 30.1522 9.13218 30.0774C9.13218 30.0026 9.13218 29.9278 9.20703 29.9278C9.28189 29.1796 9.35674 29.03 9.43159 29.03Z" fill="#67B02C"/>
<path d="M22.6059 29.4041C22.6807 29.4041 22.7556 29.5537 22.8304 29.9278C22.8304 30.0026 22.8304 30.0026 22.8304 30.0774C22.8304 30.1522 22.9053 30.2271 22.8304 30.3019C22.7556 30.3767 23.055 30.4515 22.8304 30.5263C22.7556 30.6012 22.8304 30.676 22.8304 30.7508C22.8304 30.8256 22.7556 30.9004 22.8304 31.0501C23.055 31.1249 22.6059 31.1997 22.8304 31.3494V31.499C22.7556 31.5738 22.7556 31.5738 22.7556 31.5738H22.8304C22.6807 31.6486 22.6807 31.7235 22.7556 31.7235C22.8304 31.7235 22.8304 31.6486 22.9053 31.6486C22.7556 31.8731 22.9053 31.8731 23.055 31.6486C23.1299 31.6486 23.055 31.7235 23.2796 31.6486C23.4293 31.6486 23.5041 31.5738 23.6538 31.6486C23.8035 31.499 23.9532 31.499 24.0281 31.6486C24.1778 31.499 24.3275 31.5738 24.4772 31.6486C24.6269 31.7235 24.7766 31.499 24.9264 31.6486C25.0761 31.6486 25.2258 31.6486 25.3755 31.6486C25.5252 31.7235 25.6749 31.7983 25.8246 31.6486C25.9743 31.5738 26.124 31.5738 26.2737 31.6486C26.4234 31.4242 26.5731 31.5738 26.7228 31.6486C26.7977 31.6486 26.7977 31.6486 26.8726 31.6486H26.9474C26.9474 31.6486 26.9474 31.6486 27.0223 31.6486H27.0971C27.0971 31.6486 27.0971 31.5738 27.0223 31.5738C26.9474 31.5738 26.9474 31.5738 27.0223 31.5738V31.499C27.0223 31.4242 27.0223 31.4242 27.0223 31.3494C27.2468 31.1997 26.9474 31.0501 27.0223 30.9004C27.0223 30.7508 27.172 30.6012 27.0223 30.4515V30.3767C27.0223 30.3767 27.0223 30.3767 27.0971 30.3019C26.9474 30.3767 26.9474 30.3767 27.0223 30.3767C27.0223 30.3767 27.0971 30.3019 27.172 30.2271C27.2468 30.1522 27.172 30.1522 27.172 30.1522C27.172 30.1522 27.0971 30.2271 27.0971 30.1522C27.0971 30.1522 27.0971 30.1522 27.0223 30.1522C27.0223 30.1522 27.0223 30.1522 26.9474 30.1522H26.8726C26.7228 30.1522 26.5731 30.2271 26.4983 30.1522C26.3486 30.3019 26.2737 30.0026 26.124 30.1522C25.9743 30.1522 25.8995 30.1522 25.7497 30.1522C25.6 29.9278 25.5252 30.0774 25.3755 30.1522C25.2258 30.1522 25.1509 30.3019 25.0012 30.1522C24.9264 30.1522 24.7766 30.0026 24.7018 30.1522C24.6269 30.1522 24.4772 29.853 24.4024 30.1522C24.3275 30.2271 24.2527 29.9278 24.103 30.1522C24.0281 30.3019 23.9533 30.1522 23.8784 30.1522C23.8035 30.1522 23.7287 30.1522 23.6538 30.0774C23.055 29.6285 22.6059 29.4789 22.6059 29.4041C22.6059 29.2544 23.1299 29.1796 23.9533 29.1048C24.0281 29.1048 24.103 28.9551 24.2527 29.1048C24.3275 29.1048 24.4772 28.9551 24.5521 29.1048C24.6269 28.8803 24.7766 29.1048 24.8515 29.1048C24.9264 29.1048 25.0761 29.1796 25.1509 29.1048C25.3006 28.9551 25.3755 29.1796 25.5252 29.1048C25.6749 29.2544 25.7497 29.1796 25.8995 29.1048C26.0492 29.2544 26.124 29.1048 26.2737 29.1048C26.4234 29.3292 26.4983 29.1796 26.648 29.1048C26.7977 29.03 26.9474 29.1048 27.0223 29.1048H27.0971C27.0971 29.1048 27.0971 29.1048 27.172 29.1048H27.2468C27.3965 29.1048 27.4714 29.1048 27.6211 29.1048C27.9205 29.03 28.2199 29.03 28.4445 29.1048C28.5193 29.1048 28.5193 29.1048 28.5942 29.1048C28.5942 29.3292 28.5942 29.5537 28.5942 29.7781C28.5942 29.9278 28.5942 30.0774 28.5942 30.1522C28.5942 30.2271 28.5942 30.3019 28.5942 30.3767V30.4515C28.5942 30.4515 28.5942 30.4515 28.5942 30.5263C28.5942 30.676 28.3696 30.8256 28.5942 30.9753C28.5942 31.1249 28.5193 31.2745 28.5942 31.4242V31.7235C28.5942 31.8731 28.5942 32.0227 28.5942 32.1724C28.5193 32.2472 28.4445 32.3968 28.4445 32.5465C28.4445 32.6961 28.5193 32.9206 28.5193 33.0702C28.2948 33.145 27.9205 33.0702 27.6211 33.0702C27.4714 33.0702 27.3217 33.0702 27.172 33.0702H27.0971L26.9474 32.9206H26.7977C26.648 32.9954 26.4983 32.8457 26.3486 32.9206C26.1989 32.9954 26.0492 32.8457 25.8995 32.9206C25.7497 32.9954 25.6 32.9954 25.4503 32.9206C25.3006 32.9206 25.1509 32.6961 25.0012 32.9206C24.8515 32.9206 24.7018 33.2198 24.5521 32.9206C24.4024 32.9954 24.2527 32.7709 24.103 32.9206C23.9533 32.6961 23.8035 32.9206 23.7287 32.9206C23.579 32.8457 23.5041 32.7709 23.3544 32.9206H23.1299C23.055 32.9206 22.9053 32.8457 22.8304 32.8457C22.6807 32.9206 22.6059 32.8457 22.531 32.8457C22.4562 32.7709 22.3813 32.7709 22.2316 32.8457C22.1568 32.8457 22.0819 32.8457 22.007 32.8457C22.007 32.6961 22.007 32.6213 22.007 32.4716C21.8573 32.4716 21.8573 32.3968 21.9322 32.2472C22.007 32.0975 22.0819 32.0227 22.0819 31.9479C22.0819 31.8731 22.0819 31.7983 22.007 31.7235V31.5738C22.007 31.5738 22.007 31.499 22.0819 31.499C21.8573 31.4242 22.0819 31.2745 22.0819 31.1997C22.1568 31.1249 22.007 31.0501 22.0819 30.9004C21.9322 30.8256 22.1568 30.7508 22.1568 30.676C22.2316 30.6012 22.1568 30.5263 22.2316 30.4515C22.2316 30.3767 22.2316 30.3019 22.3065 30.2271C22.3065 30.1522 22.3065 30.0774 22.3813 30.0774C22.4562 29.5537 22.531 29.4041 22.6059 29.4041Z" fill="#67B02C"/>
<path d="M35.7802 29.7781C35.855 29.7781 35.9299 29.9278 36.0047 30.3019C36.0047 30.3767 36.0047 30.3767 36.0047 30.4515C36.0047 30.5263 36.0796 30.6012 36.0047 30.676C35.9299 30.7508 36.2293 30.8256 36.0047 30.9004C35.9299 30.9753 36.0047 31.0501 36.0047 31.1249C36.0047 31.1997 35.9299 31.2745 36.0047 31.4242C36.2293 31.499 35.7802 31.5738 36.0047 31.7235V31.8731C35.9299 31.9479 35.9299 31.9479 35.9299 31.9479H36.0047C35.855 32.0227 35.855 32.0976 35.9299 32.0976C36.0047 32.0976 36.0047 32.0227 36.0796 32.0227C35.9299 32.2472 36.0796 32.2472 36.2293 32.0227C36.2293 32.0227 36.2293 32.0227 36.3041 32.0227C36.3041 32.0227 36.379 32.0227 36.379 31.9479C36.5287 31.9479 36.6036 31.8731 36.7533 31.9479C36.903 31.7983 37.0527 31.7983 37.1275 31.9479C37.2772 31.7983 37.427 31.8731 37.5767 31.9479C37.7264 32.0227 37.8761 31.7983 38.0258 31.9479C38.1755 31.9479 38.3252 31.9479 38.4749 31.9479C38.6246 32.0227 38.7743 32.0976 38.924 31.9479C39.0737 31.8731 39.2234 31.8731 39.3732 31.9479C39.5229 31.7235 39.6726 31.8731 39.8223 31.9479C39.8971 31.9479 39.8971 31.9479 39.972 31.9479H40.0468C40.0468 31.9479 40.0468 31.9479 40.1217 31.9479H40.1965C40.1965 31.9479 40.1965 31.8731 40.1217 31.8731C40.0468 31.8731 40.0468 31.8731 40.1217 31.8731V31.7983C40.1217 31.7235 40.1217 31.7235 40.1217 31.6486C40.3463 31.499 40.0468 31.3494 40.1217 31.1997C40.1217 31.0501 40.2714 30.9004 40.1217 30.7508V30.676C40.1217 30.676 40.1217 30.676 40.1965 30.6012C40.0468 30.676 40.0468 30.676 40.1217 30.676C40.1217 30.676 40.1965 30.6012 40.1965 30.5263C40.2714 30.4515 40.1965 30.4515 40.1965 30.4515C40.1965 30.4515 40.1217 30.5263 40.1217 30.4515C40.1217 30.4515 40.1217 30.4515 40.0468 30.4515C40.0468 30.4515 40.0468 30.4515 39.972 30.4515H39.8971C39.7474 30.4515 39.5977 30.5263 39.5229 30.4515C39.3732 30.6012 39.2983 30.3019 39.1486 30.4515C38.9989 30.4515 38.924 30.4515 38.7743 30.4515C38.6246 30.2271 38.5498 30.3767 38.4001 30.4515C38.2503 30.4515 38.1755 30.6012 38.0258 30.4515C37.9509 30.4515 37.8012 30.3019 37.7264 30.4515C37.6515 30.4515 37.5018 30.1522 37.427 30.4515C37.3521 30.5263 37.2772 30.2271 37.1275 30.4515C37.0527 30.6012 36.9778 30.4515 36.903 30.4515C36.8281 30.4515 36.7533 30.4515 36.6784 30.3767C36.2293 30.0026 35.7802 29.853 35.7802 29.7781C35.7802 29.6285 36.3041 29.5537 37.1275 29.4789C37.2024 29.4789 37.2772 29.3292 37.427 29.4789C37.5018 29.4789 37.6515 29.3292 37.7264 29.4789C37.8012 29.2544 37.9509 29.4789 38.0258 29.4789C38.1006 29.4789 38.2503 29.5537 38.3252 29.4789C38.4749 29.3292 38.5498 29.5537 38.6995 29.4789C38.7743 29.6285 38.924 29.5537 39.0737 29.4789C39.2234 29.6285 39.2983 29.4789 39.448 29.4789C39.5977 29.7033 39.6726 29.5537 39.8223 29.4789C39.972 29.4041 40.1217 29.4789 40.1965 29.4789H40.2714C40.2714 29.4789 40.2714 29.4789 40.3463 29.4789H40.4211C40.5708 29.4789 40.6457 29.4789 40.7954 29.4789C41.0948 29.4041 41.3942 29.4041 41.5439 29.4789C41.6188 29.4789 41.6936 29.4789 41.6936 29.4789C41.6936 29.7033 41.6936 29.9278 41.6936 30.1522C41.6936 30.3019 41.6936 30.4515 41.6936 30.5263C41.6936 30.6012 41.6936 30.676 41.6936 30.7508V30.9004C41.6936 31.0501 41.4691 31.1997 41.6936 31.3494C41.6936 31.499 41.6188 31.6486 41.6936 31.7983V32.0976C41.6936 32.2472 41.6936 32.3968 41.6936 32.5465C41.6188 32.6213 41.5439 32.7709 41.5439 32.9206C41.5439 33.0702 41.6188 33.2947 41.6188 33.4443C41.3942 33.5191 41.0199 33.4443 40.7205 33.4443C40.5708 33.4443 40.4211 33.4443 40.2714 33.4443H39.972C39.8223 33.5191 39.6726 33.3695 39.5229 33.4443C39.3732 33.5191 39.2234 33.3695 39.0737 33.4443C38.924 33.5191 38.7743 33.5191 38.6246 33.4443C38.4749 33.4443 38.3252 33.2198 38.1755 33.4443C38.0258 33.4443 37.8761 33.7436 37.7264 33.4443C37.5767 33.5191 37.427 33.2947 37.2772 33.4443C37.1275 33.2198 36.9778 33.4443 36.903 33.4443C36.7533 33.3695 36.6784 33.2947 36.5287 33.4443H36.3041C36.2293 33.4443 36.0796 33.3695 36.0047 33.3695C35.855 33.4443 35.7802 33.3695 35.7053 33.3695C35.6305 33.2947 35.5556 33.2947 35.4059 33.3695C35.331 33.3695 35.2562 33.3695 35.1813 33.3695C35.1813 33.2198 35.1813 33.145 35.1813 32.9954C35.0316 32.9954 35.0316 32.9206 35.1065 32.7709C35.1813 32.6213 35.2562 32.5465 35.2562 32.4716C35.2562 32.3968 35.2562 32.322 35.1813 32.2472V32.1724C35.1813 32.1724 35.1813 32.0976 35.2562 32.0976C35.0316 32.0227 35.2562 31.8731 35.2562 31.7983C35.331 31.7235 35.1813 31.6486 35.2562 31.5738C35.1065 31.499 35.331 31.4242 35.331 31.3494C35.4059 31.2745 35.331 31.1997 35.4059 31.1249C35.4059 31.0501 35.4059 30.9753 35.4808 30.9004C35.4808 30.8256 35.4808 30.7508 35.5556 30.7508C35.6305 29.9278 35.7053 29.7781 35.7802 29.7781Z" fill="#67B02C"/>
<path d="M51.9486 44.2931C51.9486 44.3679 51.2749 44.4428 50.1521 44.6672C50.0773 44.6672 49.9276 44.742 49.8527 44.742C49.7778 44.742 49.6281 44.8169 49.5533 44.8169C49.4784 44.8917 49.3287 44.8917 49.2539 44.9665C49.179 45.0413 49.0293 45.0413 48.8796 45.1161C48.7299 45.1161 48.655 45.191 48.5053 45.2658C48.4305 45.3406 48.2808 45.4154 48.1311 45.4154C47.9814 45.4154 47.8316 45.4902 47.7568 45.5651C47.6071 45.6399 47.5322 45.7147 47.3825 45.7895C47.2328 45.8643 47.0831 45.9392 47.0083 46.014C46.8585 46.0888 46.7088 46.1636 46.634 46.3133C46.5591 46.4629 46.4094 46.5377 46.2597 46.6125C46.11 46.6873 45.9603 46.7622 45.8854 46.9866C45.6609 47.2859 45.4363 47.5104 45.1369 47.8096C44.7626 47.9593 44.6878 48.4082 44.4632 48.7075C44.089 48.9319 43.9392 49.306 43.8644 49.7549C43.4901 49.9794 43.3404 50.4283 43.4153 50.9521C43.2656 51.3262 43.1159 51.7751 43.1159 52.224C43.041 52.6729 43.041 53.1218 43.041 53.5707C43.1907 54.0197 43.1907 54.4686 43.1159 54.9923C43.3404 55.4412 43.4153 55.8901 43.4901 56.4139C43.4901 56.5635 43.565 56.6383 43.565 56.788C43.6398 56.9376 43.7147 57.0124 43.7147 57.0873C43.8644 57.3117 43.9392 57.5362 44.0141 57.7606C44.2387 58.2095 44.5381 58.6585 44.8375 59.0326C45.0621 59.4815 45.3615 59.9304 45.8854 60.2297C46.3346 60.5289 46.7837 60.8282 47.158 61.2023C47.7568 61.352 48.1311 61.6512 48.655 61.9505C49.179 62.1002 49.703 62.3994 50.227 62.3994C50.7509 62.5491 51.3498 62.4743 51.9486 62.5491C52.5474 62.6239 53.1463 62.6239 53.6702 62.3994C53.9697 62.2498 54.1942 62.2498 54.4936 62.175C54.6434 62.175 54.7931 62.1002 54.8679 62.1002C55.0176 62.1002 55.1673 62.0253 55.2422 61.9505C55.3919 61.9505 55.5416 61.8757 55.6165 61.8757C55.6913 61.8757 55.7662 61.8009 55.841 61.8009C55.9159 61.8009 55.9907 61.7261 55.9907 61.7261L56.2901 61.4268C56.4398 61.352 56.5147 61.2771 56.6644 61.2023C57.1135 60.903 57.6375 60.6786 57.9369 60.2297C58.3112 59.8556 58.6106 59.4067 58.9849 59.0326C59.0597 58.7333 59.2094 58.5088 59.3592 58.3592C59.434 58.2844 59.5089 58.1347 59.5837 58.0599C59.6586 57.9851 59.6586 57.9851 59.7334 57.9103C59.7334 57.8354 59.8083 57.8354 59.8083 57.7606C60.1825 57.3865 60.1825 56.8628 60.4071 56.4139C60.482 56.1894 60.5568 55.965 60.6317 55.7405L60.7065 55.5909C60.7065 55.516 60.7065 55.4412 60.7814 55.4412C60.7814 55.2916 60.8562 55.2168 60.7814 55.0671C60.8562 54.6182 60.7814 54.0945 60.8562 53.6456C60.7814 53.4959 60.7814 53.4211 60.7814 53.2715C60.7814 53.1218 60.7814 53.047 60.7814 52.8974C60.7814 52.7477 60.7814 52.6729 60.7814 52.5233C60.7814 52.3736 60.7814 52.2988 60.7065 52.224C60.6317 51.7751 60.482 51.3262 60.4071 50.9521C60.4071 50.8024 60.4071 50.7276 60.4071 50.578C60.4071 50.5031 60.3323 50.3535 60.2574 50.2787C60.1825 50.2039 60.1825 50.129 60.1077 49.9794C60.0328 49.9046 60.0328 49.8298 59.958 49.6801C59.8831 49.4557 59.7334 49.306 59.6586 49.1564C59.5837 49.0068 59.434 48.8571 59.3592 48.6327C59.1346 48.3334 58.9849 47.9593 58.6855 47.7348C58.5358 47.5852 58.4609 47.4355 58.386 47.2859C58.3112 47.1363 58.1615 46.9866 57.9369 46.9866C57.7872 46.9118 57.7124 46.7622 57.5627 46.6125C57.4878 46.4629 57.3381 46.3133 57.1135 46.3133C56.9638 46.3133 56.8141 46.1636 56.6644 46.0888C56.5147 46.014 56.4398 45.8643 56.2901 45.7895C56.1404 45.7147 56.0656 45.6399 55.9159 45.5651C55.7662 45.4902 55.6913 45.4154 55.5416 45.3406C54.9428 45.0413 54.4188 44.8917 53.9697 44.742C53.5205 44.5924 53.0714 44.5176 52.772 44.4428C52.3977 44.3679 52.1732 44.3679 52.0235 44.2931C52.0235 44.3679 51.9486 44.3679 51.9486 44.2931C51.9486 44.2183 52.3977 44.1435 53.296 44.2183C53.7451 44.2183 54.2691 44.2931 54.8679 44.5176C55.4667 44.6672 56.1404 44.9665 56.889 45.3406C57.0387 45.4154 57.1884 45.4902 57.3381 45.5651C57.4878 45.6399 57.6375 45.7147 57.7124 45.8643C57.8621 45.9392 58.0118 46.0888 58.1615 46.1636C58.3112 46.2384 58.4609 46.3881 58.6106 46.5377C59.0597 46.6874 59.2094 47.0614 59.434 47.3607C59.7334 47.66 59.8831 48.0341 60.2574 48.3334C60.4071 48.483 60.5568 48.7075 60.6317 48.8571C60.7065 49.0816 60.7814 49.306 60.9311 49.4557C61.0059 49.9046 61.2305 50.3535 61.4551 50.7276C61.4551 51.2513 61.7545 51.6254 61.8293 52.1492C61.7545 52.6729 61.9042 53.1218 61.979 53.6456C62.0539 54.1693 61.9042 54.693 61.9042 55.2168C61.7545 55.7405 61.7545 56.3391 61.5299 56.8628C61.4551 57.3865 61.2305 57.9851 60.8562 58.434C60.6317 58.9577 60.2574 59.4815 59.958 59.9304C59.6586 60.4541 59.2094 60.8282 58.7603 61.2771C58.5358 61.5016 58.3112 61.6512 58.0118 61.8009C57.8621 61.8757 57.7872 61.9505 57.6375 62.0253C57.4878 62.1002 57.4129 62.2498 57.2632 62.3246C56.7393 62.6987 56.1404 62.9232 55.6165 63.2225C55.0176 63.4469 54.4188 63.5965 53.7451 63.7462C53.0714 63.6714 52.4726 63.821 51.7989 63.9706C51.1252 64.0455 50.4515 63.9706 49.8527 63.821C49.179 63.7462 48.5802 63.5217 47.9814 63.2973C47.3825 63.1476 46.8585 62.6987 46.3346 62.3994C46.1849 62.3246 46.0352 62.2498 45.9603 62.175C45.8106 62.1002 45.7357 61.9505 45.586 61.8757C45.3615 61.6512 45.1369 61.4268 44.9123 61.2771C44.3884 60.903 44.0141 60.4541 43.7147 59.9304C43.565 59.7059 43.4153 59.4067 43.2656 59.1822C43.1907 59.0326 43.1159 58.9577 43.041 58.8081C42.9661 58.7333 42.9661 58.6585 42.8913 58.6585C42.8164 58.5836 42.8164 58.5088 42.7416 58.5088C42.5919 58.2844 42.4422 58.0599 42.2925 57.7606C42.2176 57.611 42.1427 57.5362 42.1427 57.3865C42.1427 57.2369 42.0679 57.0873 42.1427 56.9376C41.993 56.7132 41.993 56.4139 41.9182 56.1146C41.9182 56.0398 41.9182 55.965 41.9182 55.8901C41.9182 55.8153 41.9182 55.7405 41.9182 55.6657C41.9182 55.516 41.8433 55.3664 41.8433 55.2916C41.8433 55.1419 41.9182 54.9923 41.9182 54.9175C41.9182 54.7679 41.9182 54.6182 41.9182 54.5434C41.9182 54.3938 41.8433 54.3189 41.8433 54.1693C41.8433 54.0197 41.8433 53.87 41.8433 53.7952C41.9182 53.2715 41.993 52.7477 41.993 52.2988C41.993 51.7751 42.2176 51.3262 42.3673 50.8772C42.3673 50.7276 42.4422 50.6528 42.4422 50.5031C42.517 50.4283 42.517 50.2787 42.5919 50.2039C42.6667 50.129 42.7416 49.9794 42.7416 49.9046C42.8164 49.8298 42.8164 49.6801 42.8164 49.6053C43.041 49.2312 43.1907 48.7823 43.4901 48.483C43.4901 48.2586 43.6398 48.0341 43.7895 47.8845C43.9392 47.7348 44.1638 47.66 44.3135 47.5104C44.6129 47.2111 44.7626 46.7622 45.1369 46.6874C45.2118 46.4629 45.3615 46.3133 45.5112 46.2384C45.6609 46.1636 45.8854 46.0888 46.0352 46.014C46.1849 45.9392 46.3346 45.7895 46.4843 45.7147C46.634 45.6399 46.7837 45.4902 46.9334 45.4902C47.0083 45.3406 47.158 45.2658 47.3825 45.2658C47.5322 45.191 47.6819 45.191 47.8316 45.1161C48.1311 45.1161 48.3556 44.8917 48.655 44.8169C48.8047 44.742 48.8796 44.742 49.0293 44.6672C49.179 44.6672 49.2539 44.5924 49.4036 44.5924C49.5533 44.5924 49.6281 44.5176 49.7779 44.5176C49.8527 44.5176 50.0024 44.4428 50.0773 44.4428C51.2749 44.1435 51.9486 44.2183 51.9486 44.2931Z" fill="#67B02C"/>
<path d="M51.9486 47.5104C51.9486 47.5852 51.8738 47.5852 51.6492 47.66C51.5743 47.66 51.4246 47.7348 51.2749 47.7348C51.1252 47.8096 50.9755 47.8096 50.751 47.8845C50.6012 47.8845 50.5264 47.9593 50.3767 48.0341C50.3018 48.0341 50.227 48.1089 50.1521 48.1089C50.0773 48.1089 50.0024 48.1837 49.9276 48.1837C49.703 48.1837 49.703 48.483 49.4784 48.4082C49.4036 48.4082 49.3287 48.483 49.2539 48.483C49.179 48.483 49.179 48.5578 49.1042 48.5578C49.1042 48.5578 49.0293 48.6327 48.9545 48.6327C48.8047 48.7823 48.5802 48.7823 48.4305 49.0068C48.4305 49.1564 48.2808 49.1564 48.1311 49.2312C47.9814 49.2312 47.9065 49.306 47.9065 49.4557C47.8316 49.5305 47.7568 49.6053 47.6819 49.7549C47.6071 49.8298 47.5322 49.9046 47.4574 49.9794C47.3077 49.9794 47.2328 50.129 47.158 50.2039C47.0831 50.3535 47.0831 50.4283 47.0083 50.578C46.7088 50.7276 46.634 50.9521 46.634 51.2513C46.5591 51.2513 46.4843 51.3262 46.4094 51.401C46.3346 51.4758 46.3346 51.4758 46.2597 51.5506C46.1849 51.7003 46.2597 51.8499 46.3346 51.9995C46.2597 52.1492 46.2597 52.2988 46.1849 52.3736C46.1849 52.4484 46.11 52.5233 46.11 52.5981C46.11 52.6729 46.11 52.7477 46.11 52.8225C46.11 52.9722 46.11 53.1218 46.11 53.2715C46.11 53.4211 46.11 53.5707 46.11 53.7204C46.11 53.7952 46.1849 53.87 46.1849 53.9448C46.1849 54.0197 46.2597 54.0945 46.2597 54.1693C46.2597 54.2441 46.2597 54.3189 46.2597 54.3938C46.2597 54.4686 46.2597 54.5434 46.1849 54.6182C46.2597 54.693 46.2597 54.7679 46.3346 54.8427V54.9923C46.3346 55.1419 46.3346 55.2916 46.3346 55.4412C46.3346 55.5909 46.4094 55.7405 46.4843 55.8901C46.5591 56.0398 46.7088 56.1894 46.7088 56.3391L46.8585 56.4887C46.9334 56.5635 46.9334 56.6383 47.0083 56.7132C47.0831 56.8628 47.2328 57.0124 47.3077 57.0873C47.3077 57.1621 47.3825 57.2369 47.3825 57.3117C47.4574 57.3865 47.4574 57.4614 47.5322 57.5362C47.6071 57.611 47.6819 57.6858 47.6819 57.6858C47.7568 57.7606 47.8316 57.7606 47.9065 57.8355C48.0562 57.9103 48.2059 58.0599 48.3556 58.1347C48.5053 58.2095 48.655 58.3592 48.7299 58.5088C49.1042 58.5088 49.4036 58.7333 49.703 58.9577C49.7779 58.9577 49.8527 59.0326 49.9276 59.0326C50.0024 59.0326 50.0773 59.1074 50.1521 59.1074C50.3018 59.1822 50.5264 59.257 50.6761 59.1822C50.8258 59.257 51.0504 59.257 51.2001 59.257C51.3498 59.257 51.5743 59.257 51.724 59.3318C51.8738 59.3318 52.0983 59.4067 52.248 59.4067C52.3977 59.4067 52.6223 59.3318 52.772 59.257C52.9217 59.1822 53.0714 59.1074 53.296 59.1074C53.3708 59.1074 53.4457 59.1074 53.5954 59.0326C53.6702 59.0326 53.7451 58.9577 53.82 58.9577C53.8948 58.9577 54.0445 58.9577 54.1194 58.8829C54.1942 58.8829 54.2691 58.8081 54.3439 58.7333L54.4936 58.5836C54.5685 58.5088 54.6434 58.5088 54.7182 58.434C54.8679 58.3592 55.0176 58.2844 55.1673 58.1347C55.317 58.0599 55.4667 57.9103 55.5416 57.7606C55.6165 57.6858 55.6913 57.611 55.6913 57.5362C55.7662 57.4614 55.7662 57.3865 55.841 57.3117C55.9159 57.2369 55.9907 57.1621 55.9907 57.1621C56.0656 57.0873 56.1404 57.0124 56.1404 57.0124C56.1404 56.9376 56.1404 56.788 56.2153 56.7132C56.2901 56.6383 56.2901 56.5635 56.365 56.4887C56.4398 56.4139 56.5147 56.4139 56.5896 56.3391L56.6644 56.2642C56.6644 56.2642 56.7393 56.1894 56.7393 56.1146C56.889 55.965 56.9638 55.8153 56.9638 55.6657C57.0387 55.516 57.0387 55.3664 57.1135 55.2168C57.1135 55.0671 57.1884 54.9175 57.2632 54.7678C57.2632 54.7678 57.2632 54.693 57.3381 54.693C57.3381 54.6182 57.3381 54.6182 57.3381 54.5434C57.3381 54.4686 57.3381 54.3938 57.3381 54.3189C57.3381 54.2441 57.3381 54.1693 57.3381 54.0945C57.3381 54.0197 57.3381 53.9448 57.3381 53.87C57.3381 53.7952 57.3381 53.7204 57.3381 53.6456C57.3381 53.5707 57.3381 53.4959 57.4129 53.4211C57.3381 53.2715 57.3381 53.1218 57.4129 52.9722C57.4129 52.8225 57.4129 52.6729 57.4129 52.5233C57.4129 52.4484 57.4129 52.3736 57.4129 52.2988C57.4129 52.224 57.4129 52.1492 57.3381 52.0743C57.3381 51.9247 57.2632 51.7751 57.2632 51.6254C57.3381 51.4758 57.2632 51.3262 57.1884 51.1765C57.1884 51.1017 57.1135 51.0269 57.0387 51.0269C56.9638 50.9521 56.9638 50.9521 56.889 50.8772C57.1135 51.0269 56.889 50.8772 56.889 50.578C56.8141 50.4283 56.7393 50.3535 56.7393 50.2787C56.6644 50.2039 56.5896 50.0542 56.5147 49.9794C56.4398 49.9046 56.365 49.7549 56.365 49.6053C56.2901 49.4557 56.2153 49.3808 56.0656 49.4557C55.9907 49.3808 55.9159 49.306 55.841 49.1564C55.7662 49.0816 55.6913 49.0068 55.5416 49.0068C55.2422 49.0068 55.2422 48.7823 55.0176 48.6327C54.9428 48.6327 54.9428 48.5578 54.8679 48.5578C54.7931 48.5578 54.7931 48.483 54.7182 48.483C54.6434 48.4082 54.5685 48.4082 54.4936 48.3334C53.7451 47.9593 53.1463 47.8096 52.6972 47.66C52.1732 47.5852 51.9486 47.5852 51.9486 47.5104C51.9486 47.5104 52.0235 47.4355 52.1732 47.4355C52.248 47.4355 52.3229 47.4355 52.4726 47.4355C52.5474 47.4355 52.6223 47.4355 52.6223 47.4355C52.6972 47.4355 52.772 47.4355 52.8469 47.4355C53.4457 47.4355 54.3439 47.5852 55.317 48.1089C55.5416 48.1837 55.841 48.1837 55.9159 48.483C55.9907 48.5578 56.1404 48.6327 56.2153 48.6327C56.2901 48.7075 56.4398 48.7823 56.5147 48.9319C56.6644 48.9319 56.8141 49.0068 56.889 49.1564C56.9638 49.306 57.0387 49.3808 57.1135 49.5305C57.1884 49.6053 57.2632 49.7549 57.3381 49.9046C57.4129 50.0542 57.4878 50.129 57.6375 50.2039C57.7872 50.2787 57.8621 50.4283 57.8621 50.578C57.9369 50.7276 57.9369 50.8772 58.0866 50.9521C58.0866 51.0269 58.0866 51.1017 58.1615 51.1765C58.1615 51.2513 58.2363 51.3262 58.2363 51.401C58.3112 51.5506 58.386 51.7003 58.4609 51.8499C58.4609 51.9995 58.4609 52.1492 58.5358 52.3736C58.5358 52.4484 58.6106 52.5233 58.6106 52.5981C58.6106 52.6729 58.6855 52.7477 58.6855 52.8225C58.6106 52.9722 58.6106 53.1966 58.6855 53.3463C58.6855 53.4959 58.7603 53.7204 58.8352 53.87C58.8352 53.9448 58.8352 54.0197 58.8352 54.1693C58.8352 54.2441 58.8352 54.3189 58.8352 54.4686C58.8352 54.5434 58.8352 54.6182 58.8352 54.7678C58.8352 54.8427 58.8352 54.9175 58.8352 55.0671C58.8352 55.1419 58.7603 55.2168 58.7603 55.3664V55.6657C58.7603 55.8153 58.6855 56.0398 58.6106 56.1894C58.6106 56.4139 58.5358 56.5635 58.4609 56.788C58.386 56.9376 58.3112 57.1621 58.1615 57.3117C58.1615 57.3865 58.1615 57.3865 58.0866 57.4614C58.0866 57.5362 58.0118 57.5362 58.0118 57.611C57.9369 57.6858 57.9369 57.7606 57.8621 57.8355C57.7872 57.9103 57.7872 57.9851 57.7124 58.0599C57.6375 58.1347 57.5627 58.2095 57.4878 58.2844C57.4129 58.3592 57.4129 58.434 57.3381 58.5836C57.2632 58.6585 57.1884 58.7333 57.1135 58.8081C57.0387 58.8829 56.9638 58.9577 56.889 59.0326C56.8141 59.1074 56.7393 59.1822 56.6644 59.257C56.5147 59.4067 56.365 59.5563 56.1404 59.6311C55.9159 59.7059 55.7662 59.8556 55.6913 60.08C55.317 60.3045 54.9428 60.4541 54.5685 60.6786L54.2691 60.7534C54.1942 60.7534 54.0445 60.8282 53.9697 60.8282C53.7451 60.903 53.5205 60.9779 53.3708 61.0527C53.1463 60.9779 52.9217 60.9779 52.6972 61.0527C52.4726 61.0527 52.248 61.1275 52.0235 61.2023C51.7989 61.2023 51.5743 61.2023 51.3498 61.2023C51.1252 61.2023 50.9007 61.1275 50.6761 61.0527C50.4515 61.0527 50.227 60.9779 50.0024 60.903C49.9276 60.903 49.7779 60.8282 49.703 60.8282C49.6281 60.7534 49.4784 60.7534 49.4036 60.6786C49.3287 60.6786 49.3287 60.6786 49.2539 60.6038C49.179 60.6038 49.179 60.529 49.1042 60.529C49.0293 60.4541 48.8796 60.4541 48.8047 60.3793L48.655 60.0052L48.5053 59.9304C48.4305 59.8556 48.3556 59.8556 48.2059 59.7808C47.9814 59.7059 47.8316 59.5563 47.6819 59.4067C47.5322 59.257 47.3825 59.1074 47.2328 59.0326C47.158 58.9577 47.0831 58.8829 47.0083 58.8829C46.9334 58.8081 46.8585 58.7333 46.7837 58.6585C46.7088 58.5836 46.634 58.5088 46.5591 58.434C46.4843 58.3592 46.4843 58.2844 46.4094 58.1347C46.2597 57.9851 46.1849 57.7606 46.11 57.611C46.0352 57.5362 46.0352 57.4613 45.9603 57.3865C45.9603 57.3117 45.8854 57.3117 45.8854 57.2369C45.8854 57.1621 45.8106 57.1621 45.8106 57.1621C45.7357 57.0124 45.586 56.8628 45.4363 56.6383C45.3615 56.4887 45.2866 56.2642 45.3615 56.0398C45.2866 55.8901 45.2866 55.6657 45.2118 55.516C45.2118 55.4412 45.2118 55.4412 45.2118 55.3664C45.2118 55.2916 45.2118 55.2916 45.2118 55.2168C45.2118 55.142 45.2118 55.0671 45.1369 54.9175C45.2118 54.8427 45.2118 54.693 45.2118 54.6182C45.2118 54.5434 45.2118 54.4686 45.2118 54.3189C45.2118 54.2441 45.1369 54.1693 45.1369 54.0197C45.1369 53.9448 45.1369 53.87 45.1369 53.7204C45.1369 53.5707 45.2118 53.3463 45.2118 53.1966C45.2118 53.047 45.2866 52.8225 45.2118 52.6729C45.2118 52.5981 45.2118 52.5233 45.2118 52.4484C45.2118 52.3736 45.2866 52.2988 45.2866 52.224C45.3615 52.0744 45.4363 51.9247 45.4363 51.7751C45.4363 51.6254 45.5112 51.4758 45.586 51.3262C45.6609 51.2513 45.6609 51.1765 45.7357 51.1017C45.8106 51.0269 45.8106 50.9521 45.8106 50.8772C45.9603 50.578 46.11 50.3535 46.2597 50.129C46.2597 49.9046 46.3346 49.8298 46.4094 49.6801C46.5591 49.6053 46.634 49.5305 46.7837 49.4557C46.8585 49.3808 46.9334 49.2312 47.0083 49.0816C47.0831 48.9319 47.158 48.8571 47.3825 48.8571C47.3825 48.7075 47.5322 48.5578 47.6071 48.5578C47.7568 48.483 47.8316 48.483 47.9814 48.4082C48.2059 48.3334 48.3556 48.0341 48.5802 48.0341C48.5802 47.9593 48.655 47.9593 48.7299 47.8845C48.8047 47.8845 48.8048 47.8845 48.8796 47.8096C48.9545 47.8096 49.1042 47.8096 49.179 47.7348C49.4036 47.7348 49.5533 47.5852 49.703 47.5852C49.7779 47.5104 49.8527 47.5104 49.9276 47.5104C50.0024 47.5104 50.0773 47.5104 50.1521 47.5104C50.3018 47.5104 50.4515 47.4355 50.6012 47.4355C50.8258 47.4355 50.9755 47.4355 51.1252 47.4355C51.2749 47.4355 51.4246 47.4355 51.4995 47.4355C51.8738 47.4355 51.9486 47.4355 51.9486 47.5104Z" fill="#67B02C"/>
<path d="M10.8538 24.466C10.8538 24.3911 11.9018 24.3163 13.7731 24.3163C14.0725 24.3163 14.4468 24.3163 14.8211 24.3163C15.1953 24.3163 15.5696 24.3163 16.0187 24.3163C16.393 24.466 16.8421 24.1667 17.2913 24.3163C17.7404 24.3911 18.1895 24.3163 18.7135 24.3163C19.2375 24.3163 19.7614 24.3911 20.2854 24.3163C20.8094 24.0919 21.4082 24.5408 21.9322 24.3163C22.531 24.2415 23.1299 24.3163 23.7287 24.3163C24.3275 24.466 25.0012 24.3163 25.6 24.3163C26.2737 24.5408 26.9474 24.466 27.6211 24.3163C28.2948 24.6156 28.9685 24.5408 29.717 24.3163C30.4655 24.3163 31.1392 24.466 31.8878 24.3911C32.0375 24.3911 32.262 24.3911 32.4117 24.3911H32.786L32.8609 24.3163C32.9357 24.2415 33.0106 24.2415 33.1603 24.1667C33.31 24.0919 33.5345 23.9422 33.6843 23.8674C34.2831 23.3437 34.9568 22.9696 35.7053 22.6703C36.3041 22.1466 37.0527 21.7725 37.8012 21.3984C38.5498 21.0991 39.1486 20.4257 39.972 20.1264C40.2714 19.9768 40.5708 19.7523 40.8702 19.6027L41.0948 19.4531H41.1697C41.1697 19.4531 41.2445 19.4531 41.2445 19.3782V19.3034C41.2445 19.3034 41.2445 19.3034 41.2445 19.2286L41.1697 19.0041C41.0948 18.7797 40.9451 18.63 40.8702 18.4056C40.6457 18.0315 40.4211 17.6574 40.1217 17.2833C39.5977 16.5351 39.1486 15.7869 38.7743 14.9639C38.1755 14.2905 37.7264 13.3927 37.3521 12.5697C36.8281 11.7467 36.5287 10.9236 35.9299 10.1006C35.4808 9.27761 34.8819 8.4546 34.5077 7.63159C34.1334 6.73375 33.6843 5.91074 33.0854 5.16254C32.4866 4.41435 32.1872 3.51652 31.6632 2.6935C31.5883 2.39422 31.4386 2.16976 31.2889 1.94531L31.2141 1.87049C31.2141 1.87049 31.1392 1.87049 31.1392 1.79567L31.0644 1.87049H30.9895C30.9147 1.94531 30.8398 1.94531 30.765 2.02013C30.0164 2.46904 29.1182 2.84314 28.3696 3.36688C27.6211 3.81579 26.8726 4.33953 26.0492 4.71363C25.4503 5.387 24.4772 5.53664 23.8035 5.98556C22.9802 6.28484 22.3065 6.88339 21.6328 7.25749C20.9591 7.70641 20.1357 7.93086 19.5369 8.4546C18.8632 8.8287 18.1895 9.35243 17.441 9.65171C16.8421 10.1754 16.0187 10.3251 15.4199 10.774C14.7462 11.1481 14.1474 11.5222 13.4737 11.8215C12.7252 11.9711 12.2012 12.4949 11.6772 12.8689C11.0784 13.1682 10.5544 13.6171 9.95557 13.8416C9.35674 14.1409 8.75791 14.3653 8.30878 14.7394C7.78481 15.0387 7.11112 15.0387 6.73685 15.6373L6.58714 15.7869C6.58714 15.7869 6.51229 15.7869 6.51229 15.8617C6.43744 15.8617 6.36258 15.9365 6.21287 15.9365C6.21287 16.0114 6.28773 16.2358 6.43744 16.2358C6.88656 16.6099 6.96141 17.1337 7.18598 17.5826C7.41054 18.0315 7.6351 18.4056 7.85966 18.8545C8.83276 20.6502 9.5813 22.0717 10.1053 23.0444C10.6293 23.8674 10.8538 24.3911 10.8538 24.466C10.779 24.466 10.4047 23.8674 9.65615 22.7451C8.90761 21.6228 7.93451 19.902 6.58714 17.807C6.36258 17.3581 5.91346 16.984 5.76375 16.4603C5.61404 16.161 5.38948 15.8617 5.16492 15.4876C5.38948 15.338 5.53919 15.2632 5.76375 15.1135C5.91346 15.0387 5.98831 14.9639 6.13802 14.9639C6.21287 14.9639 6.21287 14.8891 6.28773 14.8891C6.28773 14.8891 6.36258 14.8891 6.36258 14.8143C6.73685 14.3653 7.33568 14.2157 7.85966 13.9164C8.38364 13.6171 8.98247 13.3179 9.50645 12.9438C10.0304 12.4949 10.7041 12.3452 11.2281 11.8963C11.9018 11.6718 12.5006 11.2977 13.0246 10.8488C13.6983 10.6244 14.2971 10.1006 14.8959 9.72653C15.6445 9.50207 16.2433 9.05316 16.8421 8.60424C17.5158 8.15532 18.1895 7.85604 18.8632 7.40713C19.6117 7.03303 20.2106 6.58411 20.9591 6.1352C21.7076 5.61146 22.4562 5.16254 23.2796 4.86327C23.9533 4.41435 24.7766 3.96543 25.5252 3.59133C26.2737 3.0676 27.0223 2.6935 27.8457 2.24458C28.5942 1.79567 29.4924 1.49639 30.1661 0.897834L30.3907 0.748195L30.765 0.523736C31.0644 0.374097 31.3638 0.224458 31.5884 0C31.8129 0.448917 32.1123 0.897834 32.3369 1.34675C32.4866 1.57121 32.6363 1.87049 32.786 2.09495C33.2351 2.84314 33.6843 3.66615 34.2082 4.48917C34.5077 5.387 35.1065 6.21002 35.6305 6.95821C36.1544 7.78123 36.6036 8.60424 37.0527 9.42725C37.5767 10.2503 38.0258 11.0733 38.4749 11.8963C38.9989 12.6445 39.2983 13.5423 39.8223 14.2905C40.3463 15.0387 40.6457 15.9365 41.1697 16.6847C41.3942 17.0588 41.6936 17.4329 41.9182 17.807C41.993 18.0315 42.1428 18.1811 42.2176 18.4056C42.3673 18.7049 42.517 18.9293 42.5919 19.2286C42.7416 19.4531 42.8913 19.6775 42.9661 19.902C41.5439 20.6502 41.1697 20.7998 40.5708 21.2487C39.8223 21.6976 39.2234 22.2962 38.4001 22.5207C37.7264 22.9696 36.903 23.194 36.3041 23.7178C35.4808 23.9422 34.8819 24.5408 34.2082 24.9149C34.0585 24.9897 33.834 25.0645 33.6843 25.2142C33.6094 25.289 33.5345 25.289 33.3848 25.3638H33.31V25.4386L33.0854 25.5883C32.9357 25.5883 32.786 25.5883 32.7112 25.5883C32.6363 25.5883 32.5615 25.5883 32.4117 25.5883C32.262 25.5883 32.0375 25.5883 31.8878 25.5883C31.1392 25.6631 30.3907 25.5134 29.717 25.5134C28.9685 25.5883 28.2948 25.289 27.6211 25.4386C26.9474 25.3638 26.2737 25.4386 25.6 25.3638C24.9264 25.6631 24.3275 25.3638 23.7287 25.289C23.1299 25.2142 22.531 25.4386 21.9322 25.2142C21.3334 25.4386 20.8094 25.2142 20.2854 25.1393C19.7614 25.0645 19.2375 25.2142 18.7135 25.0645C18.1895 25.2142 17.7404 24.9897 17.2913 24.9897C16.8421 24.9149 16.393 24.9897 16.0187 24.9149C15.5696 24.9149 15.1953 24.9149 14.8211 24.8401C14.4468 24.8401 14.1474 24.7652 13.7731 24.7652C11.8269 24.6156 10.8538 24.5408 10.8538 24.466Z" fill="#67B02C"/>
<path d="M16.1684 24.6156C16.1684 24.5408 16.917 24.466 18.1895 24.466C18.4141 24.466 18.6386 24.466 18.8632 24.466C19.0877 24.466 19.3872 24.466 19.6866 24.466C19.986 24.5408 20.2854 24.3163 20.5848 24.466C20.8842 24.5408 21.2585 24.466 21.5579 24.466C21.9322 24.466 22.2316 24.5408 22.6059 24.466C22.9802 24.2415 23.3544 24.6904 23.7287 24.466C24.103 24.3911 24.5521 24.466 24.9264 24.466C25.3755 24.6156 25.7497 24.466 26.1989 24.466C26.648 24.6904 27.0971 24.6156 27.5462 24.466C27.5462 24.466 27.6211 24.466 27.6211 24.5408C27.6211 24.5408 27.6211 24.5408 27.6959 24.5408L27.7708 24.6156H27.8457C27.8457 24.6156 27.8457 24.6156 27.9205 24.6156H27.9954C28.0702 24.5408 28.1451 24.5408 28.2199 24.466C28.3696 24.3163 28.5193 24.1667 28.5942 24.017C29.0433 23.7926 29.4924 23.5681 29.8667 23.2689C30.3158 22.9696 30.6901 22.6703 31.2141 22.4458C31.3638 22.2214 31.5884 22.0717 31.8129 21.9221C31.9626 21.8473 32.0375 21.7725 32.1872 21.7725C32.262 21.7725 32.3369 21.6976 32.4117 21.6976C32.4117 21.6976 32.4117 21.6976 32.4866 21.6976C32.4866 21.6228 32.4866 21.6228 32.4866 21.6228V21.548C32.4866 21.4732 32.4117 21.3984 32.4117 21.3235C32.4117 21.2487 32.4117 21.1739 32.4117 21.0991C32.4117 21.0243 32.4117 20.9495 32.3369 20.8746C32.3369 20.7998 32.3369 20.725 32.262 20.6502C32.262 20.5754 32.1872 20.5005 32.1872 20.4257C32.1872 20.3509 32.1872 20.2761 32.1123 20.2013C32.1123 20.1264 32.1123 20.0516 32.0375 19.9768C32.0375 19.902 32.0375 19.8272 32.0375 19.7523C32.0375 19.6775 32.0375 19.6027 32.0375 19.5279C32.0375 19.4531 32.1123 19.3782 32.1123 19.3034C32.1872 18.63 32.3369 17.9567 32.7112 17.4329C32.9357 17.1337 33.1603 16.9092 33.3848 16.6847L33.5345 16.5351C33.6094 16.4603 33.6843 16.3855 33.6843 16.3106C33.7591 16.2358 33.834 16.161 33.834 16.0862L33.9088 16.0114V15.8617L33.834 15.7869C33.7591 15.6373 33.6843 15.4876 33.6094 15.338C33.1603 14.8891 32.8609 14.2905 32.6363 13.692C32.262 13.1682 32.1123 12.4949 31.6632 12.0459C31.5135 11.7467 31.3638 11.4474 31.1392 11.2229C31.0644 11.0733 30.9895 10.9236 30.9147 10.774C30.8398 10.6992 30.8398 10.6244 30.765 10.5495C30.765 10.5495 30.765 10.5495 30.765 10.4747C30.765 10.4747 30.765 10.4747 30.765 10.3999H30.6152L30.4655 10.4747L30.6901 10.0258L30.5404 10.1006C30.3907 10.1754 30.1661 10.2503 30.0164 10.2503C29.9416 10.2503 29.8667 10.3251 29.717 10.3251C29.6421 10.3251 29.5673 10.3251 29.4176 10.3251C29.3427 10.3251 29.2679 10.3251 29.1182 10.3251C29.0433 10.3251 28.9685 10.3251 28.8188 10.3251C28.4445 10.3251 28.0702 10.1754 27.7708 10.1754C27.6211 10.1006 27.4714 10.0258 27.2468 9.95099C27.0971 9.87617 26.9474 9.80135 26.7228 9.72653L26.4983 9.65171C26.4234 9.65171 26.3486 9.57689 26.2737 9.50207C26.1989 9.42725 26.124 9.42725 26.0492 9.35243L25.8995 9.2028C25.7497 9.12798 25.6 8.97834 25.5252 8.8287C25.3755 8.67906 25.3006 8.52942 25.2258 8.4546L25.1509 8.37978C25.1509 8.37978 25.1509 8.37978 25.1509 8.30496C25.1509 8.30496 25.1509 8.30496 25.0761 8.37978L25.0012 8.4546H24.9264L24.8515 8.52942L24.6269 8.67906C24.4024 8.8287 24.103 8.97834 23.8035 9.05316C23.4293 9.57689 22.7556 9.57689 22.2316 9.95099C21.6328 10.1754 21.2585 10.5495 20.7345 10.774C20.2854 11.0733 19.6866 11.2229 19.2375 11.597C18.7135 11.8215 18.3392 12.1956 17.8152 12.42C17.441 12.7941 16.8421 12.8689 16.4679 13.1682C16.2433 13.3179 16.0187 13.3927 15.7942 13.5423H15.6445C15.6445 13.5423 15.5696 13.5423 15.4948 13.6171C15.4948 13.6171 15.4948 13.6171 15.4199 13.6171V13.8416C15.4199 13.9164 15.4948 13.9912 15.4948 13.9912C15.7193 14.1409 15.7193 14.2157 15.7193 14.2157C15.7942 14.3653 15.7942 14.4402 15.869 14.5898C15.869 14.7394 15.9439 14.8143 15.9439 14.9639C15.9439 15.1135 16.0187 15.1884 16.0187 15.338C16.0187 15.4876 16.0187 15.5624 16.0187 15.7121C16.0187 15.8617 16.0187 15.9365 15.9439 16.0862C15.9439 16.2358 15.869 16.3106 15.869 16.4603C15.869 16.6099 15.7942 16.6847 15.7942 16.8344C15.7942 16.984 15.7193 17.0588 15.7193 17.1337C15.7193 17.2085 15.7193 17.2085 15.6445 17.2833C15.6445 17.3581 15.6445 17.3581 15.5696 17.4329C15.4948 17.5078 15.4948 17.6574 15.4199 17.7322C15.3451 17.807 15.2702 17.8819 15.1953 17.9567C15.1205 18.0315 15.0456 18.1063 14.9708 18.1811C14.8959 18.256 14.8959 18.4056 14.8959 18.4804C14.7462 18.63 14.5965 18.7797 14.4468 18.9293C14.372 19.0041 14.2971 19.079 14.2222 19.079C14.1474 19.079 14.1474 19.1538 14.1474 19.1538C14.1474 19.1538 14.1474 19.2286 14.0725 19.2286C14.0725 19.2286 14.0725 19.2286 14.0725 19.3034C14.0725 19.4531 13.9977 19.4531 13.9228 19.4531C13.9228 19.4531 13.9228 19.4531 13.9228 19.5279C13.9228 19.5279 13.9228 19.6027 13.9228 19.6775V19.8272C13.9977 19.902 13.9977 19.9768 14.0725 20.0516C14.1474 20.2013 14.2222 20.3509 14.2971 20.5005C15.5696 23.1192 16.3182 24.5408 16.1684 24.6156C16.0936 24.6156 15.7942 24.2415 15.2702 23.4933C15.0456 23.1192 14.6714 22.6703 14.372 22.0717C14.2222 21.7725 13.9977 21.4732 13.7731 21.1739C13.6983 21.0243 13.5486 20.8746 13.4737 20.6502C13.3988 20.5754 13.3988 20.5005 13.324 20.4257C13.2491 20.2761 13.1743 20.2013 13.0994 20.0516C13.0246 19.9768 12.9497 19.8272 12.8749 19.7523C12.8 19.6775 12.8 19.6027 12.7252 19.6027V19.3782C12.9497 19.2286 13.1743 19.079 13.4737 18.9293L13.6983 18.7049C13.7731 18.63 13.7731 18.5552 13.848 18.4804C13.9977 18.3308 14.0725 18.1811 14.2222 18.1063C14.2222 18.0315 14.2971 17.8819 14.2971 17.807C14.372 17.7322 14.372 17.6574 14.4468 17.5826C14.5217 17.5078 14.5217 17.4329 14.5965 17.3581C14.6714 17.2833 14.6714 17.2085 14.7462 17.1337C14.8959 16.7596 15.0456 16.3855 14.9708 16.0114C14.9708 15.9365 14.9708 15.7869 14.9708 15.7121C14.9708 15.6373 14.9708 15.4876 14.9708 15.4128C14.9708 15.338 14.9708 15.1884 14.9708 15.1135C14.9708 15.0387 14.9708 14.8891 14.8959 14.8143C14.8959 14.7394 14.8959 14.5898 14.8959 14.515C14.8959 14.4402 14.8959 14.4402 14.8959 14.3653C14.8959 14.2905 14.8211 14.2905 14.8211 14.2157V14.1409L14.7462 13.9912C14.6714 13.9164 14.6714 13.8416 14.5965 13.692C14.5217 13.6171 14.5217 13.5423 14.4468 13.3927L14.372 13.243H14.2222C14.4468 13.1682 14.5965 13.0934 14.8211 12.9438C14.8959 12.8689 14.9708 12.8689 15.1205 12.7941L15.2702 12.7193L15.3451 12.6445C15.5696 12.4949 15.7193 12.3452 15.9439 12.1956C16.4679 12.1208 16.8421 11.7467 17.2913 11.3726C17.7404 11.0733 18.2644 10.8488 18.7135 10.5495C19.2375 10.3251 19.6866 9.95099 20.1357 9.72653C20.5848 9.35243 21.0339 9.05316 21.6328 8.8287C22.0819 8.4546 22.6807 8.23014 23.1299 7.93086C23.3544 7.78123 23.6538 7.63159 23.8784 7.48195C24.0281 7.40713 24.1778 7.33231 24.3275 7.25749C24.5521 7.10785 24.8515 6.95821 25.0761 6.80857L25.2258 6.73375L25.3006 6.65893H25.3755C25.3755 6.65893 25.3755 6.65893 25.3755 6.73375C25.4503 6.88339 25.5252 6.95821 25.6 7.10785C25.6749 7.25749 25.7497 7.33231 25.8246 7.48195L25.9743 7.78122C26.0492 7.93086 26.124 8.00568 26.2737 8.0805C26.3486 8.15532 26.4983 8.23014 26.648 8.30496L26.7977 8.4546C26.8726 8.4546 26.8726 8.52942 26.9474 8.60424C27.0223 8.67906 27.0971 8.67906 27.0971 8.67906L27.2468 8.75388C27.3965 8.8287 27.4714 8.90352 27.6211 8.90352C27.7708 8.97834 27.8457 8.97834 27.9954 8.97834C28.5193 9.12798 29.1182 9.2028 29.6421 9.05316C29.7919 9.05316 29.9416 9.05316 30.0913 9.05316H30.241L30.3158 8.97834H30.3907L30.4655 8.90352C30.6152 8.8287 30.6901 8.75388 30.8398 8.67906C30.9895 8.60424 31.1392 8.52942 31.2141 8.4546H31.2889L31.5135 8.67906L31.7381 9.05316C31.8878 9.27761 31.9626 9.42725 32.1123 9.65171C32.1872 9.80135 32.262 9.95099 32.3369 10.1006C32.4866 10.3999 32.6363 10.6992 32.786 10.9985C33.1603 11.5222 33.4597 12.1208 33.7591 12.6445C34.1334 13.1682 34.2831 13.7668 34.7322 14.2905C34.8071 14.4402 34.8819 14.515 34.9568 14.6646C35.0316 14.8891 35.1813 15.1135 35.2562 15.2632C35.331 15.4128 35.4059 15.4876 35.4808 15.6373L35.5556 15.7869V15.8617L35.4808 15.9365C35.2562 16.0862 35.0316 16.2358 34.8071 16.4603H35.0316L34.8819 16.6099C34.8071 16.6847 34.8071 16.6847 34.7322 16.7596C34.6574 16.8344 34.6574 16.8344 34.5825 16.9092L34.4328 17.0588C34.2831 17.2833 34.1334 17.4329 33.9088 17.6574C33.834 17.807 33.7591 17.8819 33.6843 17.9567C33.6094 18.0315 33.5345 18.1811 33.5345 18.3308C33.5345 18.4056 33.4597 18.4804 33.4597 18.4804C33.4597 18.5552 33.4597 18.63 33.3848 18.7049C33.3848 18.7797 33.3848 18.8545 33.3848 18.9293C33.3848 19.0041 33.3848 19.079 33.3848 19.1538C33.3848 19.2286 33.3848 19.3034 33.3848 19.3782C33.3848 19.4531 33.3848 19.5279 33.3848 19.6027V19.7523C33.3848 19.8272 33.3848 19.902 33.4597 19.902C33.4597 19.9768 33.4597 20.0516 33.4597 20.0516C33.4597 20.1264 33.4597 20.2013 33.4597 20.2013C33.4597 20.2761 33.4597 20.3509 33.4597 20.3509C33.4597 20.4257 33.4597 20.5005 33.4597 20.5754C33.4597 20.6502 33.5345 20.725 33.5345 20.725C33.5345 20.7998 33.6094 20.8746 33.6094 20.8746V20.9495L33.6843 21.0991C33.7591 21.2487 33.7591 21.3235 33.834 21.4732C33.9088 21.548 33.9088 21.6976 33.9837 21.7725V21.9221L33.834 21.9969C33.6094 22.1466 33.4597 22.2214 33.2351 22.371C33.1603 22.371 33.0854 22.4458 33.0854 22.4458H32.9357C32.8609 22.4458 32.786 22.5207 32.7112 22.5207C32.5615 22.5955 32.4866 22.6703 32.3369 22.7451C32.1123 22.8948 31.8878 23.0444 31.6632 23.194C31.2141 23.4185 30.6901 23.643 30.3158 23.9422C29.9416 24.3163 29.4176 24.3911 28.9685 24.6904C28.8188 24.8401 28.669 24.9149 28.4445 24.9897C28.3696 24.9897 28.2948 25.0645 28.1451 25.0645H28.0702L27.9954 25.1393C27.9205 25.1393 27.8457 25.2142 27.7708 25.2142C27.6959 25.2142 27.6211 25.2142 27.5462 25.2142C27.5462 25.2142 27.4714 25.2142 27.3965 25.2142H27.3217C26.8726 25.1393 26.4234 25.2142 25.9743 25.1393C25.5252 25.4386 25.0761 25.1393 24.7018 25.0645C24.2527 24.9897 23.8784 25.2142 23.5041 24.9897C23.1299 25.2142 22.7556 24.9897 22.3813 24.9149C22.007 24.8401 21.6328 24.9897 21.3334 24.8401C20.9591 24.9897 20.6597 24.7652 20.3603 24.7652C20.0608 24.6904 19.7614 24.7652 19.462 24.6904C19.1626 24.6904 18.938 24.6904 18.6386 24.6156C18.4141 24.6156 18.1895 24.6156 17.9649 24.5408C16.917 24.7652 16.1684 24.6904 16.1684 24.6156Z" fill="#67B02C"/>
<path d="M51.6492 52.0743C51.6492 51.6254 51.9486 51.3262 52.5474 51.2513V52.9722C51.8738 52.7477 51.6492 52.4484 51.6492 52.0743ZM54.3439 55.2168C54.3439 55.6657 53.9697 55.965 53.3708 56.0398V54.2441C54.1194 54.5434 54.3439 54.8427 54.3439 55.2168ZM52.5474 50.0542V50.2787C51.3498 50.3535 50.5264 51.1017 50.5264 52.1492C50.5264 53.2715 51.2001 53.7952 52.6223 54.1693V56.1146C52.0983 56.0398 51.6492 55.8153 51.2001 55.4412C51.1252 55.3664 50.9755 55.3664 50.9007 55.3664C50.6012 55.3664 50.3767 55.5909 50.3767 55.8901C50.3767 56.1146 50.4515 56.2642 50.6012 56.3391C51.2001 56.788 51.8738 57.0124 52.6223 57.0873V57.611C52.6223 57.8354 52.8469 58.0599 53.0714 58.0599C53.296 58.0599 53.5205 57.9103 53.5205 57.611V57.0124C54.7182 56.8628 55.6165 56.1894 55.6165 55.1419C55.6165 54.0945 55.0176 53.4959 53.5205 53.1218V51.2513C53.82 51.3262 54.1942 51.4758 54.4936 51.7003C54.5685 51.7751 54.7182 51.7751 54.7931 51.7751C55.0925 51.7751 55.317 51.5506 55.317 51.2513C55.317 51.0269 55.1673 50.8772 55.0176 50.8024C54.5685 50.5031 54.1194 50.3535 53.5205 50.2787V50.0542C53.5205 49.8298 53.3708 49.6053 53.0714 49.6053C52.772 49.6801 52.5474 49.8298 52.5474 50.0542Z" fill="#67B02C"/>
<path d="M23.3544 16.6847C23.1299 16.3106 23.2796 15.9365 23.7287 15.6373L24.5521 16.984C23.8035 17.1337 23.5041 17.0588 23.3544 16.6847ZM26.9474 18.0315C27.172 18.4056 27.0223 18.7797 26.5731 19.1538L25.7497 17.7322C26.4234 17.5826 26.7228 17.6574 26.9474 18.0315ZM23.1299 14.6646L23.2047 14.8143C22.3065 15.4876 21.9322 16.3855 22.4562 17.2085C22.9802 18.1063 23.7287 18.1811 25.0012 17.8819L25.8995 19.3782C25.4503 19.5279 25.0012 19.6027 24.4772 19.5279C24.4024 19.5279 24.2527 19.5279 24.1778 19.6027C23.9533 19.7523 23.8784 20.0516 24.0281 20.2761C24.103 20.4257 24.2527 20.5005 24.4772 20.5005C25.1509 20.5754 25.8246 20.4257 26.4234 20.2013L26.7228 20.6502C26.7977 20.7998 27.0971 20.8746 27.2468 20.7998C27.4714 20.725 27.4714 20.4257 27.3965 20.2761L27.0971 19.8272C27.9954 19.1538 28.3696 18.256 27.8457 17.3581C27.3965 16.5351 26.5731 16.3855 25.2258 16.7596L24.4024 15.2632C24.7018 15.1884 25.0012 15.1135 25.3755 15.1135C25.4503 15.1135 25.6 15.1135 25.6749 15.0387C25.8995 14.8891 25.9743 14.5898 25.8995 14.3653C25.8246 14.2157 25.6 14.1409 25.4503 14.1409C25.0012 14.1409 24.4772 14.2157 24.0281 14.4402L23.9533 14.2905C23.8784 14.0661 23.579 14.0661 23.4293 14.1409C23.055 14.2905 23.055 14.515 23.1299 14.6646Z" fill="#67B02C"/>
</svg>
