<svg width="86" height="55" viewBox="0 0 86 55" fill="none" xmlns="http://www.w3.org/2000/svg">
<path d="M12.1 38.8C12.2 38.8 12.3 39.3 12.4 40.2C12.4 40.3 12.4 40.5 12.4 40.7C12.4 40.9 12.5 41 12.4 41.2C12.3 41.4 12.7 41.6 12.4 41.8C12.3 42 12.4 42.2 12.4 42.5C12.4 42.7 12.3 43 12.4 43.2C12.7 43.4 12.1 43.7 12.4 44C12.5 44.3 12.5 44.5 12.4 44.8C12.2 45.1 12.4 45.4 12.4 45.7C12.2 46 12.3 46.3 12.4 46.6C12.1 46.9 12.1 47.2 12.4 47.6C12.4 47.9 12.3 48.3 12.4 48.6C12.4 48.9 12.5 49.3 12.4 49.7C12.6 50.1 12.6 50.4 12.4 50.8C12.6 51.2 12.5 51.6 12.4 51.9H12.5C12.5 51.9 12.5 51.9 12.5 52H12.7C12.8 52 12.9 52 13 52C13.4 52.1 13.8 52.2 14.2 52C14.6 51.9 15 51.9 15.5 52C15.9 51.7 16.4 51.9 16.8 52C17.2 52 17.7 52.1 18.1 52C18.2 52 18.3 52 18.4 52C18.4 52 18.4 52 18.5 52C18.5 52 18.6 52 18.6 51.9C18.6 51.9 18.6 51.9 18.6 51.8C18.6 51.7 18.6 51.6 18.5 51.5C18.3 51.1 18.6 50.6 18.5 50.2C18.7 49.8 18.4 49.3 18.5 48.9C18.5 48.5 18.6 48.1 18.5 47.6C18.5 47.2 18.4 46.8 18.5 46.4C18.1 46 18.6 45.6 18.5 45.2C18.7 44.8 18.5 44.4 18.5 44C18.4 43.6 18.7 43.2 18.5 42.9C18.5 42.5 18.4 42.2 18.5 41.8C18.3 41.4 18.7 41.1 18.5 40.7C18.5 40.5 18.5 40.4 18.5 40.2C18.5 40.1 18.5 40 18.5 39.9V39.7C18.6 39.6 18.7 39.5 18.6 39.5C18.6 39.4 18.5 39.4 18.5 39.4C18.5 39.4 18.4 39.4 18.3 39.4C18.2 39.4 18.2 39.4 18.2 39.3C18.1 39.3 17.9 39.3 17.8 39.2C17.7 39.2 17.5 39.2 17.4 39.2C17.1 39.2 16.8 38.8 16.6 39.2C16.3 39.3 16.1 38.9 15.8 39.2C15.6 39.4 15.3 39.2 15.1 39.2C14.9 39.2 14.6 39.2 14.4 39.2C13.2 39.1 12.1 38.9 12.1 38.8C12.1 38.6 13.5 38.4 15.8 38.3C16 38.3 16.3 38.1 16.5 38.3C16.7 38.3 17 38.1 17.3 38.3C17.6 38 17.8 38.2 18.1 38.3C18.2 38.3 18.4 38.3 18.5 38.3C18.6 38.3 18.6 38.3 18.7 38.3H19C19.3 38.2 19.5 38.2 19.8 38.3C20 38.3 20.3 38.4 20.6 38.3C20.4 39 20.5 39.4 20.6 39.9V40C20.6 40 20.6 40 20.6 40.1V40.2C20.6 40.3 20.6 40.4 20.6 40.5C20.6 40.7 20.7 40.8 20.7 41C20.4 41.3 20.6 41.7 20.7 42.1C20.8 42.5 20.7 42.8 20.7 43.2C20.7 43.6 20.8 44 20.7 44.3C20.8 44.7 20.9 45.1 20.7 45.5C20.8 45.9 20.7 46.3 20.7 46.7C20.8 47.1 20.7 47.5 20.7 47.9C20.8 48.3 20.4 48.7 20.7 49.2C20.7 49.6 20.7 50.1 20.7 50.5C20.7 50.9 20.6 51.4 20.7 51.8C20.6 51.9 20.6 52 20.6 52.1C20.6 52.3 20.6 52.5 20.6 52.7C20.6 53.1 20.7 53.5 20.7 54C20.3 54 19.9 54 19.5 54C19.3 54 19.1 54 18.9 54H18.6C18.2 54 17.7 54 17.3 54C16.9 54.1 16.4 53.9 16 54C15.6 54.1 15.2 53.9 14.7 54C14.3 54.1 13.9 54.1 13.5 54C13.4 54 13.3 54 13.2 54C13.2 54 13.2 54 13.1 54H13C12.9 54 12.8 54 12.7 54C12.4 54 12 54 11.6 54.1C11.5 54.1 11.4 54.1 11.3 54.1C11.3 53.8 11.2 53.5 11.2 53.2C11.2 53 11.2 52.9 11.2 52.7C11.2 52.6 11.2 52.5 11.3 52.4V52.3C11.3 52.3 11.3 52.3 11.3 52.2C11.2 51.8 11.5 51.4 11.3 51.1C11.6 50.7 11.3 50.4 11.3 50C11.4 49.6 11.4 49.3 11.3 48.9C11.2 48.6 11.4 48.2 11.3 47.9C11.1 47.6 11.5 47.2 11.3 46.9C11.3 46.6 11.3 46.3 11.3 46C10.9 45.7 11.3 45.4 11.3 45.1C11.4 44.8 11.1 44.5 11.3 44.3C11 44 11.3 43.8 11.3 43.5C11.4 43.3 11.2 43 11.3 42.8C11.1 42.6 11.4 42.3 11.3 42.1C11.4 41.9 11.3 41.7 11.3 41.5C11.3 41.3 11.3 41.1 11.3 41C11.3 40.8 11.3 40.7 11.3 40.5C11.9 39.2 12 38.8 12.1 38.8Z" fill="#67B02C"/>
<path d="M24.8 34C24.9 34 25 34.6 25.1 35.7C25.1 35.9 25.1 36.1 25.1 36.3C25.1 36.5 25.2 36.7 25.1 37C25 37.2 25.4 37.5 25.1 37.7C25 38 25.1 38.2 25.1 38.5C25.1 38.8 25 39.1 25.1 39.4C25.4 39.7 24.8 40 25.1 40.3C25.2 40.6 25.2 41 25.1 41.3C24.9 41.6 25.1 42 25.1 42.4C24.9 42.8 25 43.1 25.1 43.5C24.8 43.9 24.8 44.3 25.1 44.7C25.1 45.1 25 45.5 25.1 45.9C25.1 46.3 25.2 46.8 25.1 47.2C25.3 47.6 25.3 48.1 25.1 48.5C25.3 49 25.2 49.4 25.1 49.9C25 50.4 25.3 50.8 25.1 51.3C25.1 51.4 25.1 51.5 25.1 51.7V52C25.1 52 25.1 52.1 25.2 52.1C25.2 52.1 25.2 52.1 25.3 52.1H25.4C25.5 52.1 25.6 52 25.8 52C26.3 51.9 26.8 51.9 27.3 52C27.8 51.7 28.3 51.9 28.9 52C29.4 52 30 52.1 30.5 52C30.6 52 30.8 52 30.9 52H31.1C31.1 52 31.1 52 31.2 52C31.2 52 31.3 52 31.3 51.9C31.3 51.8 31.3 51.8 31.3 51.7C31.3 51.6 31.3 51.4 31.2 51.3C31 50.8 31.3 50.2 31.2 49.7C31.4 49.2 31.1 48.6 31.2 48.1C31.2 47.6 31.3 47.1 31.2 46.6C31.2 46.1 31.1 45.6 31.2 45.1C30.8 44.6 31.3 44.1 31.2 43.6C31.4 43.1 31.2 42.6 31.2 42.2C31.1 41.7 31.4 41.3 31.2 40.8C31.2 40.3 31.1 39.9 31.2 39.5C31 39.1 31.4 38.6 31.2 38.2C31.2 37.8 31.2 37.4 31.2 37C31.5 36.6 31.2 36.2 31.2 35.8C31.2 35.6 31.2 35.4 31.2 35.2V35.1C31.2 35.1 31.2 35 31.3 35C31.3 34.9 31.4 34.8 31.4 34.7C31.3 34.7 31.3 34.7 31.2 34.7C31.1 34.7 31.1 34.6 31 34.6C30.8 34.5 30.7 34.5 30.5 34.7C30.2 34.8 29.9 34.4 29.6 34.7C29.3 34.9 29 34.7 28.7 34.7C28.4 34.7 28.1 34.7 27.9 34.7C26.2 34.2 24.9 34.1 24.8 34C24.8 33.8 26.5 33.6 29.3 33.5C29.6 33.5 29.9 33.3 30.2 33.5C30.5 33.5 30.8 33.3 31.1 33.5C31.3 33.4 31.4 33.4 31.6 33.4C31.7 33.4 31.7 33.4 31.8 33.4C31.9 33.4 31.9 33.4 32 33.4C32.1 33.4 32.3 33.4 32.4 33.4C32.7 33.4 32.9 33.4 33.2 33.4C33.2 33.7 33.2 34 33.3 34.3C33.3 34.4 33.4 34.6 33.4 34.8C33.4 34.9 33.4 35 33.4 35V35.1C33.4 35.3 33.3 35.5 33.4 35.7C33.2 36.1 33.3 36.5 33.4 36.9C33.2 37.3 33.4 37.7 33.4 38.1C33.1 38.5 33.3 39 33.4 39.4C33.5 39.8 33.4 40.3 33.4 40.7C33.4 41.2 33.5 41.6 33.4 42.1C33.5 42.6 33.6 43 33.4 43.5C33.5 44 33.4 44.5 33.4 45C33.5 45.5 33.4 46 33.4 46.5C33.5 47 33.1 47.5 33.4 48C33.4 48.5 33.4 49 33.4 49.6C33.4 50.1 33.3 50.7 33.4 51.2C33.3 51.3 33.3 51.5 33.3 51.6C33.3 51.7 33.3 51.7 33.3 51.8V52.2C33.3 52.7 33.4 53.2 33.4 53.8C32.9 53.8 32.4 53.8 31.9 53.8H30.9C30.4 53.8 29.8 53.8 29.3 53.8C28.8 53.9 28.2 53.7 27.7 53.8C27.2 53.9 26.7 53.7 26.2 53.8C26.1 53.8 26 53.8 25.8 53.8H25.5C25.4 53.8 25.3 53.8 25.1 53.8C24.6 53.8 24.2 53.8 23.8 53.7V53.6C23.8 53.1 23.9 52.6 23.9 52.2C23.9 52.1 23.9 52 23.9 51.9C23.9 51.8 23.9 51.8 23.9 51.7C23.9 51.6 23.9 51.5 23.8 51.3C23.7 50.8 23.4 50.3 23.8 49.9C23.7 49.4 24 49 23.8 48.5C24.1 48 23.8 47.6 23.8 47.2C23.9 46.8 24 46.3 23.8 45.9C23.7 45.5 23.9 45.1 23.8 44.7C23.6 44.3 24 43.9 23.8 43.5C23.8 43.1 23.8 42.7 23.8 42.4C23.4 42 23.8 41.7 23.8 41.3C23.9 41 23.6 40.6 23.8 40.3C23.5 40 23.8 39.7 23.8 39.4C23.9 39.1 23.7 38.8 23.8 38.5C23.6 38.2 23.9 37.9 23.8 37.7C23.9 37.4 23.8 37.2 23.8 37C23.8 36.8 23.8 36.5 23.8 36.3C23.8 36.1 23.8 35.9 23.8 35.7C24.6 34.5 24.7 34 24.8 34Z" fill="#67B02C"/>
<path d="M37.6 27.5C37.7 27.5 37.8 28.2 37.9 29.6C37.9 29.8 37.9 30.1 37.9 30.3C37.9 30.6 38 30.8 37.9 31.1C37.8 31.4 38.2 31.7 37.9 32C37.8 32.3 37.9 32.7 37.9 33C37.9 33.4 37.8 33.7 37.9 34.1C38.2 34.5 37.6 34.9 37.9 35.3C38 35.7 38 36.1 37.9 36.6C37.7 37 37.9 37.5 37.9 37.9C37.6 38.4 37.8 38.8 37.9 39.3C37.6 39.8 37.6 40.3 37.9 40.8C37.9 41.3 37.8 41.8 37.9 42.3C37.9 42.8 38 43.4 37.9 43.9C38.1 44.4 38.1 45 37.9 45.6C38.1 46.2 38 46.7 37.9 47.3C37.8 47.9 38.1 48.5 37.9 49.1C37.9 49.7 38 50.3 37.9 50.9C37.9 51.2 37.8 51.5 37.8 51.8V51.9C37.8 51.9 37.8 51.9 37.8 52C37.8 52 37.9 52.1 37.9 52C38 52 38 51.9 38.1 51.9H38.2C38.3 51.9 38.4 51.9 38.4 51.9C38.6 51.9 38.7 51.9 38.9 52C39.5 51.7 40.2 51.9 40.9 52C41.6 52 42.2 52.1 42.9 52C43.2 52 43.6 52 43.9 52C43.9 52 43.9 52 44 52C44 52 44 52 44.1 52C44.1 51.7 44.1 51.3 44 51C43.8 50.3 44.1 49.7 44 49C44.2 48.3 43.9 47.7 44 47C44 46.4 44.1 45.7 44 45.1C44 44.5 43.9 43.8 44 43.2C43.6 42.6 44.1 42 44 41.4C44.2 40.8 44 40.2 44 39.6C43.9 39 44.2 38.4 44 37.9C44 37.3 43.9 36.8 44 36.2C43.8 35.7 44.2 35.1 44 34.6C44 34.1 44 33.6 44 33.1C44.3 32.6 44.1 32.1 44 31.6C44 31.1 43.8 30.7 44 30.2C44 29.7 44.2 29.3 44 28.9C44 28.8 44 28.8 44 28.7V28.6C44 28.6 44.1 28.5 44.1 28.4C44.2 28.3 44.2 28.1 44 28.2C43.9 28.2 43.9 28.2 43.8 28.1C43.8 28.1 43.7 28.1 43.6 28.1C43.6 28.1 43.6 28.1 43.5 28.1C43.5 28.1 43.4 28.1 43.4 28.2C43 28.4 42.7 28.2 42.3 28.2C42 28.2 41.6 28.2 41.3 28.2C39.3 27.8 37.6 27.6 37.6 27.5C37.6 27.3 39.6 27.1 43.1 27C43.4 27 43.8 26.8 44.2 27H44.3C44.4 27 44.4 27 44.5 27C44.7 27 44.8 27 45 27C45.3 27 45.7 27 45.9 27C46 27.2 46.1 27.6 46 27.9C46 28.1 46 28.3 45.9 28.4V28.6C45.9 28.7 45.9 28.7 45.9 28.8C45.9 29.2 45.8 29.7 45.9 30.1C46.1 30.6 45.8 31 45.9 31.5C45.7 32 45.8 32.5 45.9 33C45.7 33.5 45.9 34 45.9 34.5C45.6 35 45.8 35.6 45.9 36.1C46 36.6 45.9 37.2 45.9 37.8C45.9 38.4 46 38.9 45.9 39.5C46 40.1 46.1 40.7 45.9 41.3C46 41.9 45.9 42.5 45.9 43.1C46 43.7 45.9 44.3 45.9 45C46 45.6 45.6 46.3 45.9 46.9C45.9 47.5 45.9 48.2 45.9 48.9C45.9 49.6 45.8 50.2 45.9 50.9C45.8 51.2 45.7 51.6 45.8 51.9C45.8 52 45.8 52.2 45.8 52.3C45.8 52.5 45.8 52.6 45.8 52.8C45.8 53.1 45.9 53.5 45.9 53.8C45.6 53.8 45.3 53.8 45 53.8H44C43.7 53.8 43.3 53.8 43 53.8C42.3 53.8 41.7 53.8 41 53.8C40.3 53.9 39.7 53.7 39 53.8C38.8 53.8 38.7 53.8 38.5 53.8C38.4 53.8 38.3 53.8 38.3 53.8H38C37.4 53.8 36.9 53.7 36.3 53.8V53.7C36.3 53.4 36.3 53.1 36.2 52.8C36.2 52.7 36.2 52.5 36.2 52.4C36.2 52.3 36.2 52.1 36.2 52C36.2 51.7 36.2 51.4 36.3 51.1C36.3 50.5 36.6 49.9 36.3 49.3C36.2 48.7 35.9 48.1 36.3 47.5C36.2 46.9 36.5 46.3 36.3 45.8C36.6 45.2 36.3 44.7 36.3 44.1C36.4 43.6 36.4 43 36.3 42.5C36.2 42 36.4 41.5 36.3 41C36.1 40.5 36.5 40 36.3 39.5C36.3 39 36.3 38.5 36.3 38.1C35.9 37.6 36.3 37.2 36.3 36.8C36.4 36.4 36.1 35.9 36.3 35.5C36 35.1 36.3 34.7 36.3 34.3C36.4 33.9 36.2 33.6 36.3 33.2C36.1 32.9 36.4 32.5 36.3 32.2C36.4 31.9 36.3 31.6 36.3 31.3C36.3 31 36.3 30.7 36.3 30.5C36.3 30.2 36.3 30 36.3 29.8C37.4 28.2 37.5 27.5 37.6 27.5Z" fill="#67B02C"/>
<path d="M50.4 18.8C50.5 18.8 50.6 19.7 50.7 21.4C50.7 21.7 50.7 22 50.7 22.3C50.7 22.6 50.8 23 50.7 23.3C50.6 23.7 51 24 50.7 24.5C50.6 24.9 50.7 25.3 50.7 25.8C50.7 26.2 50.6 26.7 50.7 27.2C51 27.7 50.4 28.2 50.7 28.7C50.8 29.2 50.8 29.7 50.7 30.3C50.5 30.8 50.7 31.4 50.7 32C50.5 32.6 50.6 33.2 50.7 33.8C50.4 34.4 50.4 35 50.7 35.7C50.7 36.3 50.6 37 50.7 37.6C50.7 38.3 50.8 38.9 50.7 39.6C50.9 40.3 50.9 41 50.7 41.7C50.9 42.4 50.8 43.1 50.7 43.9C50.6 44.6 50.9 45.4 50.7 46.1C50.7 46.9 50.8 47.6 50.7 48.4C50.6 49.2 50.5 50 50.7 50.8C50.7 51.2 50.8 51.5 50.8 51.9C50.8 52 50.8 52 50.8 52C50.8 52 50.8 52 50.8 52.1C50.9 52 50.9 52 50.9 52H51.1C51.2 52 51.3 52 51.4 52C51.8 52 52.2 52.1 52.6 52.1C53.4 52.1 54.3 52.2 55.1 52.1C55.5 52.1 55.9 52.1 56.4 52.1H56.7C56.7 52.1 56.7 52.1 56.8 52.1C56.8 52.1 56.8 52.1 56.9 52C56.9 52 56.9 52 56.9 51.9C56.9 51.9 56.9 51.9 56.9 51.8V51.5C56.9 51.1 56.9 50.7 56.8 50.2C56.6 49.4 56.9 48.5 56.8 47.7C57 46.9 56.7 46.1 56.8 45.2C56.8 44.4 56.9 43.6 56.8 42.8C56.8 42 56.7 41.2 56.8 40.4C56.4 39.6 56.9 38.9 56.8 38.1C57 37.3 56.8 36.6 56.8 35.9C56.7 35.2 57 34.4 56.8 33.7C56.8 33 56.7 32.3 56.8 31.6C56.6 30.9 57 30.2 56.8 29.6C56.8 28.9 56.8 28.3 56.8 27.7C57.1 27.1 56.9 26.4 56.8 25.8C56.8 25.2 56.6 24.6 56.8 24C56.8 23.4 57 22.9 56.8 22.3C56.8 21.8 57.2 21.2 56.8 20.7C56.8 20.4 56.8 20.2 56.9 19.9C56.9 19.8 56.9 19.8 56.9 19.7C56.9 19.6 56.9 19.6 56.9 19.5C56.9 19.4 56.9 19.4 56.8 19.3C56.7 19.2 56.7 19.2 56.7 19.1C56.7 19.1 56.6 19.1 56.6 19C56.6 19 56.5 18.9 56.4 18.9H56.1C56 18.9 55.9 18.9 55.8 18.9C55.6 18.9 55.4 18.9 55.2 18.9C52.5 19.1 50.4 19 50.4 18.8C50.4 18.7 51.1 18.6 52.2 18.5C52.8 18.5 53.5 18.4 54.4 18.4C54.8 18.4 55.3 18.4 55.8 18.3C56 18.3 56.3 18.3 56.6 18.3C56.7 18.3 56.9 18.3 57 18.3C57.2 18.3 57.3 18.3 57.5 18.3C57.9 18.3 58.3 18.2 58.8 18.2C58.8 18.5 58.8 18.8 58.7 19.2C58.7 19.4 58.7 19.6 58.7 19.8C58.7 19.9 58.7 19.9 58.7 20V20.2C58.7 20.4 58.7 20.7 58.7 21C59 21.5 58.8 22 58.7 22.6C58.7 23.1 58.6 23.7 58.7 24.3C58.9 24.9 58.6 25.5 58.7 26.1C58.5 26.7 58.6 27.3 58.7 28C58.5 28.6 58.7 29.3 58.7 29.9C58.4 30.6 58.6 31.2 58.7 31.9C58.8 32.6 58.7 33.3 58.7 34C58.7 34.7 58.8 35.4 58.7 36.2C58.8 36.9 58.9 37.7 58.7 38.4C58.8 39.2 58.7 39.9 58.7 40.7C58.8 41.5 58.7 42.3 58.7 43.1C58.8 43.9 58.4 44.7 58.7 45.5C58.7 46.3 58.7 47.1 58.7 48C58.7 48.8 58.6 49.7 58.7 50.5C58.6 50.9 58.5 51.3 58.6 51.8C58.6 52.5 58.7 53.2 58.7 54C58.3 54 57.9 54 57.5 54H56.6C56.2 54 55.8 54 55.3 54C54.5 54 53.6 54 52.8 54C52.4 54 52 54 51.6 54H50.8C50.4 54 50.1 54 49.7 54C49.5 54 49.4 54 49.2 54C49.2 53.7 49.2 53.3 49.2 53V52.5C49.2 52.3 49.2 52.1 49.2 52.1C49.2 51.7 49.2 51.4 49.2 51C49.1 50.2 49.1 49.4 49.2 48.6C49.2 47.8 49.4 47.1 49.2 46.3C49.1 45.5 48.8 44.8 49.2 44.1C49.1 43.4 49.4 42.6 49.2 41.9C49.5 41.2 49.2 40.5 49.2 39.8C49.3 39.1 49.3 38.4 49.2 37.8C49.1 37.1 49.3 36.5 49.2 35.9C49 35.3 49.4 34.6 49.2 34C49.2 33.4 49.2 32.8 49.2 32.2C48.8 31.6 49.2 31.1 49.2 30.5C49.3 30 49 29.4 49.2 28.9C48.9 28.4 49.2 27.9 49.2 27.4C49.3 26.9 49.1 26.5 49.2 26C49 25.6 49.3 25.1 49.2 24.7C49.3 24.3 49.2 23.9 49.2 23.5C49.2 23.1 49.2 22.8 49.2 22.5C49.2 22.2 49.2 21.9 49.2 21.6C50.2 19.7 50.3 18.8 50.4 18.8Z" fill="#67B02C"/>
<path d="M73.7 20.1C73.6 20.2 73.4 19.9 73 19.4C72.9 19.3 72.9 19.3 72.8 19.2C72.7 19.1 72.6 19.1 72.5 19C72.5 18.9 72.4 18.9 72.3 18.9C72.2 18.9 72.2 18.9 72.2 18.8C72.2 18.7 72.1 18.7 72 18.7C71.9 18.7 71.9 18.7 71.8 18.7C71.7 18.7 71.5 18.6 71.4 18.7C71.3 18.8 71.3 18.8 71.2 18.7C71.1 18.6 71 18.6 71 18.8C70.9 19 70.9 19 70.8 19H70.6C70.5 18.9 70.4 19 70.4 19.1C70.4 19.2 70.3 19.3 70.3 19.3C70 19.2 70 19.5 70 19.7C69.6 19.7 69.6 19.9 69.8 20.2C69.8 20.4 69.6 20.5 69.8 20.7C69.8 20.8 69.8 20.9 69.9 21C69.9 21.1 69.9 21.2 69.9 21.3C70.2 21.5 70.2 21.6 70.1 21.9C70.2 21.9 70.2 22 70.3 22L70.4 22.1C70.4 22.2 70.4 22.3 70.4 22.5C70.4 22.6 70.5 22.7 70.6 22.8C70.7 22.9 70.8 23 70.8 23.1C70.9 23.2 71 23.3 71 23.4C71.1 23.5 71.2 23.6 71.2 23.7C71.3 24 71.4 24.3 71.7 24.3C71.9 24.5 72.2 24.6 72.3 24.9C72.7 24.9 72.8 25.2 72.9 25.5C73 25.6 73.1 25.7 73.2 25.9C73.2 26 73.3 26 73.4 26.1C73.4 26.1 73.5 26.1 73.5 26.2C73.5 26.2 73.5 26.2 73.6 26.2C73.6 26.2 73.6 26.2 73.7 26.2C73.7 26.2 73.7 26.2 73.7 26.3C73.7 26.3 73.7 26.4 73.8 26.3C73.8 26.3 73.9 26.2 73.8 26.2C73.8 26.2 73.8 26.2 73.8 26.1C73.8 26.1 73.8 26 73.9 26C74 25.9 74 25.9 74.1 25.9C74.2 25.8 74.4 25.7 74.4 25.6C74.8 25.6 74.8 25.1 75 25C75.2 24.8 75.5 24.7 75.6 24.4C75.7 24.2 75.9 23.9 76.1 23.8C76 23.6 76.1 23.5 76.3 23.4C76.4 23.3 76.6 23.3 76.6 23.1C76.7 23 76.8 22.9 76.9 22.8C76.9 22.7 77 22.6 77.1 22.5C77.1 22.4 77.2 22.3 77.3 22.2L77.4 22.1C77.4 22 77.4 22 77.4 21.9C77.5 21.7 77.4 21.4 77.6 21.3C77.5 21.2 77.6 21.1 77.6 21C77.7 20.9 77.7 20.8 77.7 20.7C77.7 20.5 77.7 20.4 77.7 20.2C77.8 20.1 77.8 20.1 77.8 20V19.9C77.7 19.8 77.6 19.8 77.6 19.7C77.6 19.6 77.5 19.6 77.4 19.5C77.3 19.5 77.3 19.4 77.3 19.3C77.3 19.2 77.2 19.2 77.2 19.1C77.1 19 77.1 19 77 19C77 19 76.9 19 76.9 18.9C76.9 18.9 76.9 18.8 76.8 18.8C76.7 18.7 76.7 18.7 76.6 18.8C76.5 18.8 76.5 18.7 76.4 18.7C76.3 18.6 76.3 18.6 76.2 18.7C76 19 75.9 19 75.8 18.9C75.7 18.9 75.7 18.8 75.6 18.8C75.5 18.8 75.5 18.8 75.4 18.8C75.3 18.8 75.3 18.8 75.2 18.8C75 18.9 74.7 19 74.6 19.2C74.4 19.4 74.3 19.5 74.2 19.6C73.9 20 73.8 20.1 73.7 20.1C73.6 20.1 73.6 19.8 73.8 19.4C73.9 19.2 74 18.9 74.3 18.6C74.4 18.5 74.6 18.3 74.8 18.2C75 18.1 75.2 18 75.5 17.9C75.6 17.9 75.7 17.8 75.8 17.8C75.9 17.8 76 17.7 76.1 17.8C76.2 17.8 76.3 17.8 76.4 17.7C76.5 17.7 76.6 17.7 76.7 17.8C76.8 17.7 77 17.7 77.1 17.8C77.2 17.8 77.2 17.9 77.3 17.9C77.3 17.9 77.4 18 77.5 18C77.6 18 77.7 18.1 77.8 18.2C77.9 18.3 78 18.4 78.1 18.4C78.3 18.4 78.3 18.5 78.4 18.7C78.5 18.8 78.5 19 78.6 19C78.6 19.3 78.8 19.5 79 19.8C79 20 79 20.1 79 20.3C79 20.4 79 20.5 79.1 20.5V20.7C79 20.9 79 21.1 79 21.2C79 21.3 79 21.5 79.1 21.7C79.1 22 78.9 22.3 78.9 22.6C78.9 22.7 78.8 22.7 78.8 22.8C78.8 22.9 78.7 22.9 78.7 23C78.6 23.1 78.6 23.3 78.5 23.4C78.5 23.6 78.4 23.7 78.4 23.8C78.3 23.9 78.2 24 78.1 24.1C78.1 24.3 78 24.4 77.9 24.5C77.8 24.6 77.7 24.7 77.6 24.9C77.5 25.2 77.2 25.4 77 25.6C76.8 25.9 76.4 25.9 76.4 26.3C76.2 26.6 75.9 26.7 75.8 27C75.7 27.1 75.6 27.2 75.4 27.3C75.3 27.4 75.3 27.4 75.2 27.5C75.2 27.5 75.2 27.6 75.1 27.6L75 27.7C74.7 27.8 74.5 28 74.3 28.2C74.1 28.4 73.9 28.7 73.7 29L73.6 28.9C73.5 28.9 73.5 28.8 73.4 28.8C73.3 28.7 73.2 28.6 73.1 28.5C72.9 28.3 72.7 28 72.5 27.8C72.4 27.7 72.4 27.7 72.3 27.6C72.2 27.5 72.2 27.5 72.1 27.4C72 27.3 71.9 27.2 71.8 27.1C71.5 26.9 71.5 26.6 71.2 26.4C70.9 26.3 70.9 25.9 70.6 25.7C70.3 25.5 70.1 25.3 70 25C69.9 24.9 69.9 24.7 69.8 24.6C69.7 24.5 69.7 24.3 69.5 24.3C69.4 24.2 69.2 24.1 69.1 24C69 23.9 68.9 23.7 69 23.5C68.9 23.4 68.9 23.2 68.8 23.1C68.8 23 68.8 23 68.7 22.9C68.7 22.8 68.6 22.8 68.6 22.7C68.7 22.5 68.6 22.4 68.6 22.2C68.5 22.1 68.4 21.9 68.4 21.8C68.4 21.6 68.4 21.5 68.4 21.3C68.4 21.2 68.4 21 68.3 20.9C68.3 20.8 68.2 20.8 68.3 20.7C68.3 20.6 68.3 20.5 68.3 20.5C68.3 20.3 68.4 20.2 68.4 20.1C68.4 20 68.4 19.9 68.4 19.9C68.4 19.8 68.5 19.8 68.5 19.7C68.6 19.6 68.7 19.5 68.7 19.3C68.9 19.1 69 18.8 69.3 18.7C69.3 18.5 69.4 18.4 69.5 18.3C69.6 18.3 69.8 18.3 69.9 18.2C70 18.2 70 18.1 70.1 18.1C70.2 18.1 70.2 18 70.3 18C70.4 17.9 70.5 17.9 70.7 18C70.8 17.8 70.9 17.8 71 17.8C71.1 17.8 71.2 17.9 71.3 17.9C71.4 17.9 71.5 17.9 71.6 17.9C71.7 17.9 71.8 17.9 71.9 18C72 17.9 72.1 18 72.2 18C72.3 18.1 72.3 18.2 72.4 18.2C72.5 18.3 72.5 18.3 72.6 18.4C72.7 18.4 72.8 18.5 72.8 18.5C73 18.6 73.1 18.7 73.1 18.8C73.2 18.9 73.2 19 73.3 19.1C73.5 19.4 73.5 19.6 73.6 19.8C73.8 20 73.8 20.1 73.7 20.1Z" fill="#67B02C"/>
<path d="M73.7 11.3C73.7 11.4 72.9 11.5 71.4 11.8C71.3 11.8 71.2 11.9 71 11.9C70.9 11.9 70.7 12 70.6 12C70.5 12 70.3 12.1 70.2 12.2C70.1 12.3 69.9 12.3 69.8 12.4C69.6 12.4 69.5 12.5 69.4 12.6C69.3 12.7 69.1 12.8 68.9 12.8C68.6 12.9 68.3 13.1 68 13.4C67.9 13.5 67.7 13.6 67.5 13.7C67.3 13.8 67.2 13.9 67.1 14.1C67 14.3 66.8 14.4 66.6 14.5C66.4 14.6 66.2 14.7 66.2 15C66 15.4 65.6 15.7 65.4 16C65 16.2 64.9 16.8 64.7 17.2C64.2 17.5 64.1 18 64.1 18.6C63.6 19 63.5 19.5 63.7 20.1C63.6 20.6 63.4 21.1 63.5 21.7C63.5 22.3 63.6 22.8 63.6 23.4C63.7 23.5 63.7 23.7 63.8 23.8C63.8 23.9 63.9 24.1 63.9 24.2C63.9 24.3 64 24.5 64 24.6C64 24.7 64 24.9 64 25.1C64.1 25.2 64.2 25.4 64.3 25.5C64.4 25.6 64.4 25.8 64.5 25.9C64.6 26 64.6 26.2 64.6 26.3C64.6 26.4 64.6 26.5 64.6 26.5C64.6 26.6 64.6 26.6 64.7 26.7C64.7 26.9 64.8 27 64.9 27.1C64.9 27.2 65 27.2 65 27.3L65.2 27.5C65.4 27.7 65.6 28 65.7 28.3L65.9 28.6L66.2 29V29.8C66.2 30.1 66.2 30.5 66.1 30.8C66 31.5 65.8 32.2 66 32.9V33C66 33 66 33 66 33.1C66.2 32.9 66.1 32.9 66.1 32.9C66.1 32.9 66.1 32.9 66.2 32.9H66.3C66.5 32.8 66.7 32.8 66.8 32.7C67.4 32.3 68.2 32.2 68.8 31.7L69.6 31.3C69.8 31.4 70.1 31.5 70.3 31.6H70.6L70.8 31.7L71.2 31.8C71.3 31.8 71.5 31.9 71.6 31.9C72.3 32.1 73 32.3 73.7 32.2C73.9 32.2 74 32.2 74.2 32.1C74.4 32.1 74.5 32.1 74.7 32.1C75 32.1 75.4 32.1 75.7 32C76.1 32.1 76.4 32 76.7 31.8C76.9 31.7 77 31.7 77.2 31.6C77.4 31.5 77.5 31.5 77.7 31.4C78.3 31.1 79 31 79.5 30.5C80 30.1 80.5 29.7 81 29.3C81.1 28.9 81.3 28.7 81.6 28.5C81.9 28.3 82.1 28.1 82.3 27.8C82.8 27.4 83 26.7 83.3 26.2C83.3 26.1 83.4 25.9 83.5 25.8C83.6 25.7 83.6 25.5 83.7 25.4C83.8 25.1 84 24.9 84 24.5C84.2 23.9 84.1 23.3 84.4 22.8C84.3 22.5 84.4 22.2 84.4 22C84.4 21.9 84.5 21.7 84.5 21.6C84.5 21.5 84.5 21.3 84.5 21.2C84.5 20.6 84.4 20.1 84.3 19.6C84.3 19.5 84.4 19.3 84.3 19.2C84.3 19.1 84.2 18.9 84.2 18.8C84.2 18.7 84.1 18.6 84 18.4C83.9 18.3 83.9 18.2 83.8 18.1C83.6 17.6 83.3 17.3 83.2 16.7C83 16.3 82.8 15.8 82.5 15.5C82.3 15.3 82.3 15.1 82.2 14.9C82.1 14.7 82 14.5 81.7 14.5C81.5 14.4 81.4 14.2 81.3 14C81.2 13.8 81 13.7 80.8 13.6C80.6 13.6 80.4 13.4 80.3 13.3C80.2 13.2 80.2 13.1 80.1 13.1C80 13 80 13 79.9 12.9C79.6 12.7 79.3 12.5 79 12.3C77.6 11.5 76.4 11.2 75.6 11.1C74.2 11.4 73.7 11.4 73.7 11.3C73.7 11.2 74.3 11.1 75.4 11.2C75.9 11.2 76.6 11.3 77.4 11.6C78.2 11.8 79 12.2 79.9 12.7C80 12.8 80.1 12.8 80.2 12.8C80.3 12.8 80.4 12.9 80.5 12.9C80.7 13 80.9 13.1 81 13.3C81.2 13.4 81.4 13.6 81.6 13.7C81.8 13.8 82 14 82.1 14.2C82.4 14.3 82.5 14.4 82.7 14.7C82.8 14.9 83 15.1 83.1 15.3C83.4 15.7 83.6 16.2 84 16.6C84.4 17 84.4 17.6 84.7 18.1C84.7 18.7 85 19.2 85.2 19.8C85.2 20.4 85.5 21 85.5 21.6C85.3 22.2 85.4 22.9 85.5 23.5C85.5 24.2 85.3 24.8 85.1 25.5C84.9 26.1 84.7 26.8 84.4 27.4C84.2 28.1 83.9 28.7 83.3 29.2C82.9 29.8 82.4 30.4 81.9 30.9C81.4 31.5 80.8 31.9 80.1 32.3C79.9 32.4 79.8 32.5 79.6 32.6C79.4 32.7 79.2 32.7 79.1 32.8C78.9 32.9 78.7 32.9 78.6 33C78.4 33.1 78.3 33.2 78.1 33.3C77.4 33.6 76.6 33.8 75.8 33.9C75 34 74.2 34 73.4 34.1C72.6 33.8 71.8 33.9 71 33.8C70.8 33.8 70.7 33.7 70.5 33.7C70.3 33.7 70.2 33.6 70 33.6L69.8 33.5H69.7C69.7 33.5 69.6 33.5 69.6 33.4C68.9 33.8 68.3 34.1 67.6 34.4C67.4 34.5 67.3 34.6 67.1 34.7C66.8 34.8 66.6 34.9 66.3 35C65.7 35.3 65.1 35.5 64.5 35.9C64.3 36 64.2 36.1 64 36.2C64 35.6 64.1 35 64.2 34.4C64.2 34.1 64.3 33.8 64.3 33.5C64.3 33.4 64.3 33.2 64.3 33.1V33C64.3 33 64.3 33 64.3 32.9V32.8C64.3 32.1 64.3 31.4 64.5 30.7C64.5 30.4 64.6 30 64.7 29.7V29.6C64.7 29.6 64.7 29.6 64.7 29.5C64.7 29.5 64.7 29.5 64.6 29.5L64.5 29.4C64.4 29.3 64.2 29.1 64.1 29C64 28.9 63.9 28.7 63.7 28.6C63.5 28.3 63.3 28 63.3 27.6C63.3 27.5 63.2 27.5 63.2 27.4C63.2 27.3 63.1 27.2 63.1 27.2C63 27 63 26.9 62.9 26.7C62.8 26.5 62.8 26.4 62.8 26.2C62.8 26 62.7 25.9 62.6 25.7C62.6 25.5 62.6 25.3 62.6 25.2C62.6 25 62.5 24.9 62.5 24.7C62.4 24.5 62.4 24.4 62.4 24.2C62.4 24 62.3 23.9 62.3 23.7C62.3 23 62.4 22.4 62.3 21.8C62.2 21.2 62.5 20.6 62.6 20C62.6 19.8 62.6 19.7 62.7 19.6C62.7 19.5 62.8 19.3 62.9 19.2C63 19.1 63 18.9 63.1 18.8C63.2 18.7 63.2 18.5 63.2 18.4C63.4 17.9 63.6 17.4 63.9 16.9C63.9 16.7 63.9 16.6 64 16.5C64.1 16.4 64.1 16.3 64.2 16.2C64.4 16 64.6 15.9 64.8 15.7C65 15.5 65.1 15.3 65.2 15.1C65.3 14.9 65.5 14.7 65.8 14.6C65.9 14.3 66 14.2 66.2 14C66.4 13.9 66.6 13.8 66.8 13.7C67 13.6 67.2 13.4 67.3 13.3C67.5 13.2 67.6 13 67.8 13C67.9 12.8 68.1 12.7 68.3 12.7C68.5 12.6 68.7 12.6 68.8 12.5C69.2 12.5 69.5 12.2 69.8 12.1C69.9 12 70.1 12 70.3 11.9C70.5 11.9 70.6 11.8 70.8 11.8C70.9 11.8 71.1 11.7 71.2 11.7C71.3 11.7 71.5 11.7 71.6 11.6C72.9 11 73.7 11.2 73.7 11.3Z" fill="#67B02C"/>
<path d="M23.9 5.5C23.9 5.4 24.8 5.2 26.4 5.4C26.5 5.4 26.7 5.4 26.8 5.5C26.9 5.5 27.1 5.5 27.2 5.6C27.4 5.6 27.5 5.7 27.7 5.7C27.9 5.7 28 5.8 28.2 5.9C28.3 6 28.5 6 28.7 6C28.8 6 29 6 29.2 6.2C29.4 6.3 29.5 6.4 29.7 6.5C29.9 6.6 30.1 6.7 30.3 6.7C30.5 6.8 30.7 6.9 30.8 7C31 7.1 31.2 7.3 31.4 7.3C31.7 7.3 31.8 7.5 32 7.7C32.1 7.9 32.3 8.1 32.6 8.1C33 8.6 33.3 9 33.6 9.4C33.8 9.9 34.3 10.2 34.6 10.7C34.7 11.3 35.1 11.7 35.5 12.2C35.4 12.9 35.7 13.4 36.2 13.9C36.4 14.5 36.4 15.1 36.7 15.7C36.8 16.3 37 17 36.9 17.7C37.1 18.4 37.1 19.1 36.8 19.8C36.9 20.5 36.7 21.2 36.3 21.9C36.2 22.1 36.1 22.2 36.1 22.4C36 22.6 36 22.8 36 22.9C35.9 23.3 35.8 23.6 35.5 23.9C35.1 24.6 34.8 25.2 34.3 25.8C33.8 26.4 33.2 26.8 32.7 27.5C32.2 28.1 31.6 28.6 30.8 29C30.3 29.7 29.4 29.9 28.6 30.1C27.8 30.4 27 30.5 26.2 30.8C25.4 30.9 24.5 31.2 23.7 31C22.8 30.9 22 30.8 21.2 30.8C20.8 30.8 20.4 30.7 20 30.5C19.8 30.4 19.6 30.3 19.4 30.3C19.2 30.2 19 30.1 18.8 30.1C18.6 30 18.5 29.9 18.3 29.8C18.2 29.8 18.1 29.7 18 29.7C17.9 29.7 17.8 29.6 17.7 29.6L17.4 29.5C17.3 29.5 17.2 29.4 17.1 29.4C16.9 29.3 16.7 29.2 16.6 29.1C15.9 28.7 15.4 28.1 14.7 27.6C14.1 27.1 13.5 26.5 13.1 25.9C12.7 25.7 12.5 25.4 12.4 25C12.3 24.8 12.3 24.6 12.2 24.5C12.2 24.4 12.1 24.3 12.1 24.2C12.1 24.1 12 24 12 24C11.8 23.3 11.4 22.7 11.2 21.9C11.1 21.6 11 21.2 11 20.8C11 20.7 11 20.6 11 20.5C11 20.4 11 20.3 11 20.2C11 20 10.9 19.9 10.9 19.7C10.8 19 10.6 18.3 10.8 17.6C10.8 17.4 10.7 17.3 10.8 17.1C10.8 16.9 10.9 16.8 10.9 16.6C10.9 16.4 11 16.3 11 16.1C11 15.9 11 15.8 11 15.6C11.1 15 11.3 14.3 11.5 13.8C11.6 13.7 11.7 13.5 11.8 13.4C11.9 13.3 11.9 13.1 12 13C12 12.9 12.1 12.7 12.1 12.6C12.1 12.5 12.2 12.3 12.2 12.2C12.5 11.7 12.6 11.1 13.1 10.7C13.4 10.2 13.9 9.9 14.1 9.4C14.3 9.2 14.5 9.1 14.7 8.9C14.9 8.8 15.1 8.6 15.2 8.3C15.4 8.1 15.6 8 15.8 7.9C16 7.8 16.2 7.7 16.3 7.4C16.4 7.2 16.6 7 16.8 7C17 6.9 17.2 6.9 17.4 6.8C17.6 6.7 17.8 6.6 18 6.5C18.2 6.4 18.4 6.3 18.5 6.3C19.3 6 20.1 5.8 20.7 5.6C21.4 5.5 21.9 5.4 22.4 5.4C22.9 5.4 23.2 5.4 23.5 5.4C23.7 5.4 23.9 5.5 23.9 5.5C23.9 5.6 23.3 5.7 22.2 5.9C21.7 6 21 6.1 20.3 6.4C19.6 6.7 18.8 7 17.9 7.6C17.7 7.7 17.6 7.9 17.4 8C17.2 8.1 17.1 8.3 16.9 8.3C16.7 8.4 16.6 8.6 16.4 8.7C16.2 8.9 16.1 9 15.9 9.1C15.8 9.6 15.3 9.8 15 10.1C14.7 10.5 14.3 10.8 14.1 11.3C14 11.6 13.9 11.8 13.7 12C13.5 12.2 13.4 12.4 13.3 12.7C12.9 13.1 12.7 13.6 12.7 14.2C12.4 14.7 12.4 15.3 12.3 15.9C12 16.4 12.1 17.1 12.2 17.7C12.3 18.3 12.2 18.9 12.3 19.5C12.3 20.1 12.6 20.7 12.7 21.3C13 21.9 13.3 22.4 13.5 23.1C13.9 23.6 14.2 24.2 14.6 24.8C15.1 25.3 15.5 25.9 16 26.3C16.3 26.5 16.5 26.8 16.7 27C16.8 27.1 17 27.2 17.1 27.3C17.2 27.4 17.4 27.5 17.6 27.5C18.2 27.8 18.8 28.2 19.5 28.5C20.2 28.8 20.8 29 21.6 29.1C22.3 29.5 23.1 29.4 23.8 29.3C24.5 29.2 25.3 29.2 26 29.1C26.7 28.9 27.4 28.7 28.1 28.5C28.7 28.2 29.5 28 30 27.5C30.1 27.4 30.3 27.3 30.4 27.2C30.5 27.1 30.7 27 30.8 26.9C31.1 26.7 31.4 26.5 31.6 26.2C32.1 25.7 32.5 25.2 33 24.7C33.2 24.4 33.4 24.2 33.6 23.9C33.7 23.8 33.8 23.6 33.9 23.5C33.9 23.4 34 23.3 34 23.3C34 23.2 34 23.1 34.1 23C34.2 22.7 34.3 22.4 34.4 22.1C34.4 21.9 34.5 21.8 34.6 21.7C34.7 21.6 34.8 21.4 34.9 21.3C34.9 21 35.1 20.7 35.2 20.4L35.3 20.2C35.3 20.1 35.3 20 35.4 20C35.4 19.8 35.4 19.7 35.4 19.5C35.5 19.4 35.5 19.2 35.6 19.1C35.6 18.9 35.6 18.8 35.6 18.6C35.6 18.4 35.6 18.3 35.6 18.1C35.6 17.9 35.6 17.8 35.6 17.6C35.7 17 35.7 16.4 35.5 15.8C35.3 15.3 35.3 14.7 35.1 14.1C35 14 35 13.9 34.9 13.7C34.9 13.6 34.8 13.4 34.8 13.3C34.8 13.2 34.7 13 34.7 12.9C34.6 12.8 34.6 12.7 34.5 12.6C34.3 12.1 34 11.7 33.8 11.2C33.5 11.1 33.4 10.9 33.3 10.7C33.2 10.5 33.1 10.2 33 10C32.9 9.8 32.7 9.7 32.5 9.5C32.3 9.4 32.1 9.2 32.1 8.9C31.8 8.9 31.7 8.7 31.5 8.6C31.3 8.4 31.2 8.2 31.1 8.1C31 7.9 30.8 7.8 30.6 7.8C30.4 7.7 30.2 7.6 30.1 7.4C29.9 7.4 29.7 7.3 29.6 7.1C29.1 7.2 29 7.1 28.8 7C28.5 6.7 28.2 6.7 27.9 6.6C27.7 6.6 27.6 6.5 27.4 6.5C27.3 6.5 27.1 6.4 27 6.3C26.9 6.3 26.7 6.2 26.6 6.2C26.5 6.2 26.3 6.1 26.2 6.1C24.7 5.7 23.8 5.6 23.9 5.5Z" fill="#67B02C"/>
<path d="M23.9 10C23.9 9.9 24 9.9 24.3 9.9C24.4 9.9 24.6 9.9 24.8 9.9C25 9.9 25.2 9.9 25.5 9.9C25.7 9.9 25.9 10 26.1 10C26.2 10 26.3 10 26.4 10C26.5 10 26.6 10.1 26.7 10.1C26.9 10.3 27.2 10 27.4 10.3C27.5 10.4 27.6 10.4 27.7 10.5C27.8 10.5 27.8 10.5 27.9 10.6C28 10.6 28 10.6 28.1 10.7C28.4 10.8 28.5 11.1 28.8 11.1C29 11.1 29.1 11.2 29.2 11.4C29.3 11.5 29.4 11.7 29.6 11.7C29.7 11.8 29.9 11.9 30 12C30.1 12.1 30.2 12.3 30.3 12.4C30.3 12.6 30.4 12.7 30.6 12.9C30.7 13 30.9 13.1 31 13.3C31 13.8 31.3 14 31.6 14.3C31.6 14.4 31.6 14.5 31.6 14.6C31.6 14.7 31.6 14.8 31.7 14.9C31.8 15.1 31.9 15.2 32.2 15.4C32.3 15.6 32.3 15.8 32.3 16C32.3 16.1 32.3 16.2 32.4 16.3C32.4 16.4 32.5 16.5 32.5 16.6C32.5 16.8 32.6 17 32.6 17.2C32.6 17.4 32.6 17.6 32.6 17.9C32.7 18 32.7 18.1 32.7 18.2C32.7 18.3 32.7 18.4 32.7 18.5C32.7 18.6 32.7 18.7 32.6 18.8C32.6 18.9 32.5 19 32.4 19.1C32.4 19.2 32.5 19.3 32.5 19.5C32.5 19.6 32.5 19.6 32.5 19.7C32.5 19.8 32.5 19.8 32.5 19.9C32.4 20.1 32.3 20.4 32.2 20.6C32.1 20.8 32 21 32 21.3C32 21.5 31.9 21.8 31.7 22H31.5L31.4 22.2C31.3 22.3 31.3 22.4 31.2 22.5C31.1 22.7 30.9 22.9 30.8 23.1L30.5 23.4C30.4 23.5 30.3 23.6 30.2 23.7C30.1 23.8 30 23.9 30 24C29.9 24.1 29.9 24.2 29.8 24.3C29.6 24.5 29.5 24.7 29.2 24.9C29 25.1 28.8 25.2 28.5 25.3C28.2 25.8 27.6 26 27.1 26C27 26.1 26.8 26.1 26.7 26.1C26.6 26.1 26.4 26.2 26.3 26.2C26 26.2 25.8 26.3 25.5 26.4C25.2 26.4 25 26.5 24.7 26.5C24.4 26.5 24.1 26.6 23.9 26.5C23.6 26.4 23.3 26.4 23.1 26.4C22.8 26.4 22.6 26.3 22.3 26.4C22 26.4 21.7 26.3 21.5 26.2C21.4 26.2 21.2 26.1 21.1 26C21 25.9 20.8 25.9 20.7 25.9C20.6 25.8 20.6 25.8 20.5 25.8C20.4 25.8 20.4 25.7 20.3 25.7C20.2 25.6 20.1 25.6 19.9 25.6L19.7 25.5C19.6 25.5 19.6 25.4 19.5 25.4C19.4 25.3 19.3 25.3 19.2 25.2C19 25.1 18.8 24.9 18.6 24.7C18.4 24.5 18.2 24.3 18 24.2C17.9 24.1 17.8 24 17.7 24C17.6 23.9 17.5 23.8 17.4 23.7C17.3 23.6 17.2 23.5 17.1 23.4C17 23.3 17 23.2 16.9 23.1C16.6 23 16.5 22.8 16.4 22.5C16.4 22.4 16.3 22.2 16.3 22.1C16.3 22 16.3 22 16.2 21.9C16.2 21.8 16.1 21.8 16.1 21.7C16.1 21.4 15.9 21.2 15.8 21C15.7 20.8 15.6 20.6 15.5 20.3C15.4 20.1 15.4 19.8 15.4 19.6C15.4 19.5 15.4 19.5 15.4 19.4C15.4 19.3 15.4 19.3 15.4 19.2C15.4 19.1 15.4 19 15.3 18.9C15.3 18.8 15.3 18.7 15.2 18.6C15.2 18.5 15.2 18.4 15.2 18.3C15.2 18.2 15.2 18.1 15.2 18C15.2 17.9 15.2 17.8 15.3 17.7C15.2 17.5 15.3 17.3 15.3 17C15.4 16.8 15.5 16.6 15.4 16.4C15.4 16.3 15.4 16.2 15.4 16.1C15.4 16 15.5 15.9 15.5 15.8C15.6 15.6 15.6 15.4 15.7 15.2C15.9 15.1 16 14.9 16 14.7C16 14.6 16 14.5 16.1 14.4C16.1 14.3 16.1 14.2 16.2 14.1C16.4 13.8 16.4 13.3 16.8 13.1C16.9 13 17.1 12.8 17.2 12.7C17.3 12.6 17.4 12.4 17.5 12.3C17.6 12.2 17.8 12.1 18 12C18.2 11.9 18.3 11.8 18.3 11.6C18.4 11.5 18.6 11.4 18.7 11.4C18.9 11.3 19 11.3 19 11.1C19.1 10.7 19.5 10.8 19.7 10.7C19.8 10.7 19.8 10.6 19.9 10.6C20 10.6 20 10.5 20.1 10.5C20.2 10.4 20.3 10.4 20.5 10.4C21.6 10 22.5 9.9 23.1 9.9C23.5 9.8 23.9 9.9 23.9 10C23.9 10 23.8 10.1 23.6 10.1C23.5 10.1 23.4 10.2 23.3 10.2C23.2 10.2 23.2 10.2 23.1 10.2C23 10.2 22.9 10.2 22.9 10.3C22.2 10.5 21.3 10.8 20.2 11.4C20 11.5 19.9 11.8 19.6 11.9C19.5 12 19.4 12.1 19.3 12.2C19.2 12.3 19.1 12.4 19 12.5C19 12.7 18.9 12.8 18.8 12.9C18.7 13 18.5 13.1 18.4 13.2C18.3 13.3 18.2 13.4 18.1 13.5C18 13.6 17.9 13.7 17.9 13.9C17.9 14.3 17.5 14.4 17.5 14.8C17.4 14.9 17.4 14.9 17.3 15C17.2 15.1 17.2 15.1 17.2 15.2C17.2 15.4 17.1 15.5 17.2 15.7C17.1 15.8 17 16 17 16.2C17 16.3 17 16.4 17 16.5C17 16.6 17 16.7 17 16.8C16.9 17 16.8 17.1 16.8 17.3C16.8 17.5 16.9 17.7 16.9 17.9C16.9 18 16.9 18.1 16.9 18.2C16.9 18.3 16.9 18.4 16.9 18.5C16.9 18.6 16.9 18.7 16.9 18.8C16.9 18.9 16.9 19 17 19.1C17 19.5 17.2 19.8 17.3 20.2C17.4 20.4 17.5 20.5 17.6 20.7C17.7 20.9 17.8 21.1 17.8 21.3L18 21.5C18.1 21.6 18.1 21.7 18.2 21.8C18.3 22 18.4 22.2 18.5 22.3C18.6 22.4 18.7 22.4 18.7 22.5C18.8 22.6 18.8 22.7 18.9 22.7L19.1 22.9C19.2 23 19.2 23 19.3 23.1C19.5 23.2 19.6 23.4 19.7 23.6C19.9 23.8 20 23.9 20.3 23.9C20.7 24.1 21 24.4 21.5 24.5L21.8 24.6C21.9 24.6 22 24.7 22.1 24.7C22.3 24.8 22.5 24.8 22.8 24.8C23 25 23.2 25 23.4 25C23.6 25 23.9 24.9 24.1 24.9C24.3 24.8 24.5 24.8 24.8 24.8C25 24.8 25.2 24.8 25.5 24.7C25.7 24.6 25.9 24.6 26.1 24.5C26.2 24.5 26.3 24.4 26.4 24.4L26.7 24.3C27.1 24.1 27.6 24 27.9 23.7C28.1 23.5 28.2 23.4 28.4 23.3C28.6 23.2 28.8 23.1 28.9 22.9C29 22.8 29 22.7 29.1 22.7C29.2 22.6 29.2 22.5 29.3 22.5C29.4 22.4 29.4 22.4 29.5 22.3C29.6 22.2 29.7 22.2 29.7 22.1C29.8 21.9 30 21.8 30.1 21.6C30.2 21.5 30.2 21.4 30.3 21.3C30.3 21.3 30.3 21.2 30.4 21.2C30.4 21.1 30.4 21.1 30.4 21C30.5 20.8 30.5 20.6 30.5 20.4C30.5 20.2 30.6 20 30.9 19.9C30.9 19.7 31 19.5 31.1 19.3C31.1 19.3 31.1 19.2 31.2 19.2V19.1C31.2 19 31.2 18.9 31.2 18.8C31.3 18.7 31.3 18.6 31.4 18.5C31.4 18.4 31.4 18.3 31.4 18.2C31.4 18.1 31.4 18 31.4 17.9C31.4 17.8 31.4 17.7 31.4 17.6C31.4 17.4 31.4 17.2 31.5 17C31.5 16.8 31.5 16.6 31.4 16.5C31.4 16.4 31.3 16.3 31.3 16.2C31.3 16.1 31.3 16 31.3 15.9C31.3 15.7 31.3 15.5 31.2 15.4C31.1 15.3 31.1 15.1 31 14.9C31 14.8 31 14.7 31 14.6C31 14.5 30.9 14.5 30.8 14.4C30.7 14.1 30.5 13.8 30.4 13.5C30.2 13.5 30.1 13.4 30 13.2C30 13 29.9 12.9 29.9 12.7C29.8 12.6 29.7 12.5 29.6 12.4C29.5 12.3 29.4 12.2 29.4 12C29.2 12 29.1 11.9 29 11.8C28.9 11.7 28.9 11.5 28.8 11.4C28.6 11.2 28.3 11.2 28.2 10.9C28.1 10.9 28.1 10.9 28 10.9C27.9 10.9 27.9 10.8 27.9 10.8C27.8 10.7 27.7 10.6 27.6 10.6C27.5 10.4 27.2 10.4 27 10.3C26.9 10.3 26.8 10.3 26.7 10.2C26.6 10.2 26.5 10.1 26.4 10.1C26.2 10 26.1 10 25.9 9.9C25.7 9.8 25.5 9.8 25.3 9.7C25.1 9.7 25 9.6 24.8 9.6C24 10.1 23.9 10 23.9 10Z" fill="#67B02C"/>
<path d="M23.9 14.7C23.9 14.6 24 14.6 24.1 14.6C24.2 14.6 24.2 14.6 24.3 14.5C24.4 14.5 24.5 14.5 24.6 14.5C24.7 14.5 24.8 14.5 24.8 14.5H25C25 14.7 25.3 14.3 25.3 14.6C25.4 14.7 25.5 14.7 25.6 14.7C25.7 14.7 25.8 14.9 25.9 14.9C26 14.8 26 14.9 26.1 15C26.1 15.1 26.1 15.2 26.3 15.1C26.5 15.1 26.5 15.3 26.6 15.4C26.6 15.5 26.6 15.6 26.7 15.6C26.8 15.6 26.9 15.7 26.9 15.7C26.8 16 27 16 27.2 16.1C27 16.4 27.1 16.5 27.4 16.6C27.4 16.7 27.4 16.8 27.4 16.9C27.4 17 27.4 17.1 27.5 17.2C27.5 17.3 27.6 17.4 27.6 17.5C27.6 17.6 27.6 17.7 27.6 17.8C27.7 17.9 27.8 18 27.8 18.1C27.8 18.2 27.8 18.2 27.8 18.3C27.8 18.4 27.7 18.4 27.7 18.4C27.9 18.6 27.8 18.9 27.6 19C27.5 19.1 27.5 19.2 27.5 19.3C27.5 19.4 27.5 19.5 27.3 19.6C27.2 19.7 27.2 19.8 27.1 19.9C27.1 20 27 20.1 26.9 20.2C26.8 20.2 26.8 20.3 26.7 20.3C26.6 20.3 26.6 20.4 26.6 20.4C26.5 20.5 26.5 20.6 26.4 20.7C26.3 20.8 26.3 20.9 26.2 21C26.1 21.1 26 21.2 25.9 21.2C25.8 21.6 25.5 21.6 25.2 21.5C25.1 21.6 25 21.6 24.8 21.6C24.7 21.6 24.6 21.6 24.4 21.7C24.3 21.7 24.2 21.7 24 21.8C23.9 21.8 23.7 21.8 23.6 21.8C23.5 21.8 23.3 21.7 23.2 21.7C23.1 21.7 23 21.7 22.8 21.7C22.7 21.8 22.5 21.7 22.4 21.6C22.3 21.5 22.2 21.4 22.1 21.4C22 21.2 21.9 21.2 21.8 21.2C21.7 21.2 21.5 21.2 21.5 21.1C21.4 21 21.3 20.9 21.2 20.9C21.1 20.8 21 20.7 20.9 20.7C20.8 20.6 20.7 20.6 20.6 20.5L20.5 20.4C20.5 20.3 20.4 20.3 20.4 20.2C20.2 20.2 20.1 20.1 20.1 20C20.1 19.9 20.1 19.7 20 19.6C20 19.5 20 19.4 19.9 19.3C19.8 19.2 19.8 19.1 19.8 19C19.7 18.9 19.8 18.8 19.8 18.7C19.8 18.6 19.8 18.5 19.7 18.4C19.7 18.3 19.7 18.3 19.7 18.2C19.7 18.1 19.7 18.1 19.7 18C19.7 17.9 19.7 17.8 19.7 17.7C19.6 17.6 19.7 17.5 19.7 17.4C19.8 17.3 19.8 17.2 19.8 17.1V16.9C19.8 16.8 19.9 16.7 19.9 16.6C20.1 16.6 20.1 16.5 20.1 16.4C20.1 16.3 20.1 16.2 20.1 16.1C20.2 16 20.1 15.7 20.4 15.7C20.5 15.6 20.7 15.5 20.7 15.3C20.7 15.2 20.9 15.2 21 15.2C21.1 15.2 21.2 15.2 21.1 15C21.1 14.9 21.2 14.9 21.3 14.9C21.4 14.9 21.5 14.9 21.4 14.7C21.4 14.4 21.6 14.6 21.7 14.5C21.8 14.4 21.9 14.4 22 14.4C22.5 14.3 22.9 14.3 23.1 14.3C23.7 14.5 23.9 14.6 23.9 14.7C23.9 14.7 23.9 14.8 23.8 14.8C23.7 14.9 23.6 14.9 23.5 14.9C23.3 15 22.9 15.2 22.6 15.5C22.5 15.6 22.6 15.8 22.4 15.7L22.3 15.8C22.3 15.8 22.3 15.9 22.2 15.9C22.3 16.2 22.1 16.1 22 16.1C21.9 16.2 21.8 16.2 21.8 16.4C21.9 16.6 21.6 16.5 21.7 16.7C21.5 16.7 21.5 16.9 21.6 17C21.5 17 21.5 17.1 21.5 17.2V17.4C21.4 17.4 21.3 17.5 21.4 17.6C21.4 17.7 21.5 17.7 21.5 17.8C21.5 17.9 21.5 17.9 21.5 18V18.2C21.5 18.3 21.6 18.4 21.6 18.6C21.7 18.6 21.7 18.7 21.8 18.7C21.8 18.8 21.8 18.8 21.8 18.9C21.9 19 21.9 19.1 22 19.2C22 19.2 22.1 19.2 22.1 19.3C22.1 19.3 22.1 19.3 22.2 19.4C22.2 19.5 22.3 19.5 22.3 19.6C22.4 19.6 22.4 19.7 22.4 19.8C22.4 19.9 22.5 19.9 22.6 19.8C22.7 19.8 22.8 20 23 20C23.1 20.1 23.3 20.2 23.4 20.1C23.4 20.2 23.5 20.3 23.6 20.3C23.7 20.3 23.8 20.2 23.8 20.2C23.9 20.2 23.9 20.1 24 20.1C24.1 20.1 24.1 20.1 24.2 20.1C24.3 20.1 24.3 20 24.4 20C24.5 20 24.5 20 24.6 19.9C24.7 19.8 24.9 19.9 25 19.7C25 19.6 25.1 19.6 25.2 19.6C25.3 19.6 25.4 19.6 25.4 19.5C25.4 19.4 25.4 19.4 25.5 19.3C25.5 19.3 25.5 19.3 25.6 19.2H25.7C25.7 19.1 25.8 19.1 25.9 19.1C26 19.1 26 19 25.9 18.9C25.9 18.8 25.9 18.7 25.8 18.7C25.8 18.6 25.8 18.6 26 18.6C26 18.5 26 18.5 26.1 18.4C26.2 18.3 26.2 18.3 26.1 18.2C26.2 18.2 26.2 18.1 26.2 18.1V18C26.2 17.9 26.1 17.9 26.1 17.8C26.1 17.7 26.2 17.7 26.2 17.6C26.2 17.5 26.2 17.5 26.1 17.4C26 17.4 26 17.3 26 17.2C26 17.1 26 17.1 26 17C25.9 17 25.9 16.9 26 16.8C26 16.7 26 16.7 25.9 16.6C25.9 16.5 25.8 16.4 25.8 16.3C25.6 16.4 25.6 16.3 25.6 16.3C25.6 16.2 25.7 16.1 25.6 16.1C25.6 16 25.5 16 25.4 16C25.3 16 25.3 16 25.4 15.8C25.3 15.9 25.2 15.8 25.2 15.8C25.2 15.7 25.2 15.7 25.2 15.6C25.2 15.5 25 15.6 25 15.4C24.8 15.5 24.9 15.2 24.8 15.2C24.8 15 24.7 15.1 24.6 15.1H24.5C24.5 15.1 24.4 15.1 24.4 15C24.3 15 24.3 14.9 24.2 14.9C24.1 14.9 24 14.8 24 14.8C23.9 14.8 23.9 14.7 23.8 14.7C23.9 14.8 23.9 14.7 23.9 14.7Z" fill="#67B02C"/>
<path d="M8.7 7.6C8.6 7.6 8.5 7.2 8.6 6.4C8.6 6.3 8.6 6.1 8.6 6C8.6 5.9 8.6 5.7 8.6 5.5C8.8 5.4 8.4 5.1 8.6 5C8.7 4.8 8.7 4.6 8.6 4.4C8.6 4.2 8.7 4 8.6 3.8C8.4 3.6 9 3.4 8.6 3.3C8.6 3.2 8.6 3.2 8.6 3.1C8.6 3.1 8.6 3.1 8.5 3.1C8.5 3 8.5 3 8.4 3H8.3C8.4 3 8.3 3 8.2 3C8.1 2.7 7.8 2.7 7.5 2.7C7.4 2.3 7.1 2.2 6.8 2.4C6.6 2.4 6.5 2.3 6.4 2.2C6.3 2.2 6.3 2.1 6.2 2.1H6C6 2.1 5.9 2.1 5.9 2V2.1C6 2.4 6 2.3 5.8 2.2C5.8 2.3 5.9 2.3 5.9 2.3C5.9 2.3 5.9 2.3 5.9 2.4V2.5C5.7 2.7 5.6 2.8 5.5 3C5.3 3.3 5.5 3.7 5.2 3.9V4.1C5.2 4.1 5.2 4.1 5.2 4.2C5.2 4.3 5.1 4.4 5.6 4.5C5.9 4.6 6.2 4.7 6.4 5C6.8 5 7.1 5.3 7.3 5.6C7.6 5.8 7.8 6.1 8.2 6.2C8.5 6.4 8.9 6.5 9.1 6.8C9.4 7.1 9.6 7.3 10 7.4C10.5 7.6 10.7 8 11 8.1C11.2 8.5 11.6 8.4 11.9 8.7C12.2 8.9 12.4 9.2 12.8 9.3C13.1 9.5 13.4 9.6 13.6 9.9C14.1 9.8 14.1 10.4 14.4 10.5C14.6 10.8 15 10.8 15.2 11.1C15.5 11.2 15.6 11.6 16 11.7C16.2 11.9 16.6 11.9 16.7 12.2C17.1 12.2 17.1 12.7 17.4 12.7C17.6 12.9 17.9 13 18.1 13.2C18.2 13.6 18.5 13.5 18.8 13.7C19 13.9 19.3 13.9 19.4 14.2C19.6 14.4 19.7 14.6 20 14.6C20.2 14.7 20.1 15.2 20.6 15C20.8 15.1 20.8 15.5 21.1 15.4C21.4 15.3 21.4 15.7 21.6 15.8C21.8 15.9 21.9 16 22 16.1C23.2 17.1 23.9 17.7 23.8 17.9C23.7 18 22.7 17.6 21 16.6C20.8 16.5 20.5 16.6 20.5 16.3C20.3 16.2 20.1 16.2 19.9 16C19.6 16.1 19.5 15.8 19.3 15.6C19.1 15.5 18.9 15.3 18.7 15.2C18.4 15.2 18.3 14.8 18 14.8C17.9 14.5 17.6 14.4 17.3 14.4C17.2 14.1 16.8 14.1 16.6 13.9C16.5 13.5 16.2 13.5 15.9 13.4C15.6 13.3 15.4 13 15.1 12.9C14.9 12.7 14.5 12.6 14.3 12.4C14 12.3 13.7 12.2 13.5 11.9C13.2 11.8 12.9 11.5 12.7 11.3C12.4 11.2 12.1 10.9 11.8 10.7C11.5 10.5 11.4 10.1 10.9 10.1C10.6 10 10.4 9.7 10 9.5C9.8 9.3 9.5 9.1 9.1 8.9C9 8.5 8.6 8.4 8.2 8.3C7.8 8.2 7.6 7.9 7.3 7.7C7 7.5 6.7 7.3 6.4 7.1C6 6.9 5.8 6.6 5.5 6.4C5.1 6.3 5 5.9 4.6 5.8C4.4 5.8 4.3 5.8 4 5.5C3.7 5.3 3.5 5.1 3.3 4.9L3.2 4.8C3.3 4.6 3.4 4.3 3.6 4C3.7 3.9 3.7 3.7 3.7 3.6V3.5C3.7 3.5 3.7 3.5 3.7 3.4V3.3C3.8 3 3.6 2.6 4 2.5C4 2.3 4.1 2.1 4.2 2C4.2 2 4.2 1.9 4.3 1.9V1.8C4.3 1.8 4.3 1.8 4.3 1.7C4.3 1.6 4.4 1.4 4.4 1.3C4.6 1.2 4.7 1 4.8 0.8C4.8 0.5 4.9 0.3 4.9 0C5 0 5 0 5.1 0.1C5.4 0.2 5.6 0.4 5.8 0.5C6 0.6 6.2 0.7 6.5 0.7C6.6 0.7 6.6 0.7 6.7 0.7H6.8C6.9 0.7 6.9 0.8 7 0.8C7.1 1 7.2 1.1 7.3 1.1C7.6 1.1 7.7 1.5 8 1.5C8.2 1.6 8.5 1.7 8.7 1.9C8.8 1.8 8.9 1.8 9 1.8C9 1.8 9 1.8 9.1 1.8H9.2L9.3 1.9C9.5 2 9.6 2.2 9.7 2.3C9.8 2.4 9.9 2.4 10 2.5C10 2.6 10 2.7 10 2.9C10 3 10 3.1 9.9 3.3C10 3.4 10 3.5 10 3.6V3.8C9.9 3.8 9.8 3.9 9.7 4C9.6 4.2 9.8 4.5 9.6 4.6C9.8 4.9 9.4 5 9.5 5.2C9.3 5.3 9.4 5.5 9.4 5.7C9.4 5.9 9.4 6 9.3 6.1C9.3 6.2 9.2 6.4 9.2 6.5C9 7.2 8.8 7.6 8.7 7.6Z" fill="#67B02C"/>
<path d="M8.7 7.6C8.8 7.7 8.7 7.9 8.5 8.1L8.3 8.3C8.2 8.2 8.3 8.6 8.2 8.4C8 8.4 8 8.5 8 8.5C8 8.6 7.8 8.5 7.8 8.6C7.9 9 7.5 8.5 7.6 8.8C7.6 8.9 7.5 9 7.4 9C7.3 8.8 7.3 9.1 7.2 9.1C7 9 7 9.1 7 9.3C6.7 9.1 6.7 9.1 6.7 9.5C6.6 9.6 6.5 9.5 6.4 9.7C6.4 9.7 6.4 9.8 6.2 9.8C6.2 10.1 6.1 10.1 5.9 10C5.9 10.3 5.8 10.2 5.6 10.2C5.5 10.2 5.5 10.2 5.5 10.3L5.4 10.4C5.4 10.4 5.3 10.4 5.2 10.4C5 10.5 4.8 10.7 4.6 10.7C4.5 10.7 4.4 10.7 4.4 10.7C4.3 10.6 4.2 10.6 4.1 10.6C3.9 10.5 3.7 10.4 3.6 10.2C3.5 10.2 3.4 10.2 3.4 10.2H3.3C3.3 10.1 3.2 10.1 3.2 10C3.1 10 3.1 9.7 2.9 9.8C2.9 9.6 2.7 9.7 2.6 9.5C2.6 9.3 2.5 9.2 2.3 9.2C2.1 9.3 2.1 9 2 9C2.1 8.7 1.7 8.9 1.7 8.7C1.6 8.7 1.6 8.6 1.6 8.5C1.6 8.5 1.6 8.5 1.5 8.4C1.5 8.4 1.4 8.3 1.3 8.3C1.1 8.3 0.9 8.1 0.8 8C0.5 8 0.4 7.9 0.4 7.8C0.4 7.7 0.4 7.6 0.3 7.6C0.3 7.5 0.1 7.4 0 7.3L0.1 7.2C0.1 7.1 0.3 7.1 0.4 7C0.5 6.9 0.6 6.9 0.6 6.8C0.7 6.7 0.7 6.7 0.8 6.6C0.9 6.5 0.9 6.5 1.1 6.4C1.1 6.3 1.2 6.2 1.3 6.2C1.4 6.2 1.5 6.1 1.5 6L1.8 5.7C2 5.9 1.9 5.7 2 5.6C2.1 5.6 2 5.3 2.2 5.4C2.3 5.4 2.4 5.4 2.4 5.2C2.4 5.1 2.8 5.4 2.6 5.1C2.7 5.1 3 5.3 2.9 5C2.7 4.8 3 5 3 4.9C3.1 4.9 3.1 4.8 3.2 4.8C3.7 4.5 4.1 4.4 4.2 4.5C4.3 4.6 4.1 5 3.7 5.6C3.7 5.7 3.7 5.9 3.6 5.8C3.5 5.8 3.5 6 3.4 6C3.5 6.3 3.3 6.1 3.2 6.2C3.2 6.2 3.1 6.2 3.1 6.4C3.1 6.6 2.9 6.5 2.9 6.6C2.7 6.5 2.7 6.6 2.7 6.8C2.6 6.8 2.6 6.8 2.6 6.9V7C2.4 6.9 2.4 6.9 2.4 7L2.5 7.1C2.4 7.1 2.6 7.1 2.5 7.1H2.6C2.7 7.1 2.7 7.1 2.5 7.1C2.6 7.1 2.5 7.1 2.6 7.1C2.7 7.1 2.7 7.1 2.7 7.1C2.7 7.2 2.8 7.2 2.9 7.2C2.9 7.5 3 7.6 3.1 7.7C3.2 7.8 3.3 7.9 3.4 7.9C3.3 8.2 3.5 8.2 3.7 8.2C3.9 8.2 3.9 8.3 4 8.5C4.1 8.6 4.2 8.7 4.3 8.8C4.4 8.8 4.4 8.9 4.4 8.9C4.4 8.9 4.4 9 4.5 9V8.9C4.5 8.9 4.5 8.9 4.5 9V9.1C4.5 9.1 4.5 9.1 4.5 9C4.5 9 4.5 9 4.5 8.9C4.5 8.8 4.6 8.8 4.7 9C4.8 8.9 5 9 5 8.9C5.2 9.1 5.2 8.8 5.3 8.8C5.4 8.8 5.6 8.8 5.6 8.7C5.6 8.5 5.8 8.7 5.9 8.6C5.9 8.4 6.2 8.7 6.2 8.5C6.4 8.1 6.5 8 6.6 8C6.5 7.7 6.8 8 6.8 7.9C6.9 7.9 6.8 7.6 7 7.8C7 7.6 7.2 7.7 7.3 7.8C7.4 7.8 7.4 7.6 7.5 7.7C7.5 7.5 7.7 7.7 7.7 7.6C7.8 7.7 7.8 7.5 7.9 7.6C7.9 7.5 8 7.5 8.1 7.6C8.2 7.6 8.2 7.6 8.2 7.6C8.5 7.5 8.7 7.5 8.7 7.6Z" fill="#67B02C"/>
</svg>
