<svg width="11" height="21" viewBox="0 0 11 21" fill="none" xmlns="http://www.w3.org/2000/svg">
<path d="M11 20.6401C10.7233 20.8479 10.5157 21.0557 10.4465 20.9864C10.239 20.9172 9.96226 20.7094 9.8239 20.5708C6.71069 17.454 3.5283 14.268 0.415094 11.1512C0.207547 10.9434 0.138365 10.7356 0 10.5278C0.899371 9.21186 9.61635 0.484835 10.4465 0C10.5157 0 10.6541 0.138524 10.7925 0.207786C10.9308 0.761883 10.3774 0.969669 10.1006 1.31598C7.54088 3.87868 4.91195 6.44137 2.3522 9.00407C1.86792 9.48891 1.45283 9.97374 0.968554 10.5278C2.55975 12.4672 4.35849 14.0602 6.01887 15.7225C7.67925 17.3155 9.33962 18.9778 11 20.6401Z" fill="#DDDFE2"/>
</svg>
