<svg width="11" height="21" viewBox="0 0 11 21" fill="none" xmlns="http://www.w3.org/2000/svg">
<path d="M0 20.6401C0.27673 20.8479 0.484277 21.0557 0.553459 20.9864C0.761006 20.9172 1.03774 20.7094 1.1761 20.5708C4.28931 17.454 7.4717 14.268 10.5849 11.1512C10.7925 10.9434 10.8616 10.7356 11 10.5278C10.1006 9.21186 1.38365 0.484835 0.553459 0C0.484277 0 0.345912 0.138524 0.207547 0.207786C0.0691824 0.761883 0.622641 0.969669 0.899371 1.31598C3.45912 3.87868 6.08805 6.44137 8.6478 9.00407C9.13208 9.48891 9.54717 9.97374 10.0314 10.5278C8.44025 12.4672 6.64151 14.0602 4.98113 15.7225C3.32075 17.3155 1.66038 18.9778 0 20.6401Z" fill="#DDDFE2"/>
</svg>
