<svg width="32" height="32" viewBox="0 0 32 32" fill="none" xmlns="http://www.w3.org/2000/svg">
<path d="M17.7639 8.19438C19.5208 6.43966 22.3157 6.43966 23.9927 8.19438C25.7495 9.94909 25.7495 12.7407 23.9927 14.4156M15.8474 6.20038C18.6424 3.40878 23.274 3.40878 26.0689 6.20038C28.8639 8.99197 28.8639 13.618 26.0689 16.4096M13.7712 4.20638C17.6841 0.298146 24.1524 0.298146 28.0653 4.20638C31.9782 8.11462 31.9782 14.5752 28.0653 18.4834M3.70938 2.05286L2.27198 4.44566C2.27198 4.44566 -3.1582 11.8633 8.42085 23.4285C8.42085 23.4285 8.42085 23.4285 8.50071 23.5083C8.50071 23.5083 8.50071 23.5083 8.58056 23.588C20.2395 35.1532 27.5862 29.7295 27.5862 29.7295L29.902 28.2939C31.2595 27.257 31.3394 25.3428 30.2214 24.1464L27.4265 21.3548C26.4682 20.3976 24.9509 20.3179 23.833 21.1155L20.8783 23.0297C20.8783 23.0297 18.8819 24.2261 13.3719 18.6429C7.86186 13.0597 8.97984 11.1455 8.97984 11.1455L10.8964 8.19437C11.6949 7.07774 11.6151 5.5623 10.6568 4.60518L7.86186 1.81358C6.66403 0.617185 4.7475 0.776705 3.70938 2.05286Z" stroke="white" stroke-width="1.3469" stroke-miterlimit="10" stroke-linecap="round" stroke-linejoin="round"/>
</svg>
